<svg width="1433" height="1039" viewBox="0 0 1433 1039" fill="none" xmlns="http://www.w3.org/2000/svg">
<g opacity="0.1">
<path d="M-7.00284 369.934C-7.00284 371.101 -7.00284 371.685 -7.00284 372.769C96.5531 382.192 216.353 385.612 299.05 318.23C343.26 282.204 362.365 229.916 403.437 192.305C419.127 177.878 438.232 168.205 460.568 165.369C503.486 159.865 535.051 189.553 561.447 216.323C649.867 306.138 711.428 415.8 790.433 512.036C824.214 553.149 914.94 670.317 979.824 603.936C1023.3 559.404 1031.79 484.099 1040.37 428.393C1045.91 392.533 1050.06 356.674 1057.91 321.065C1073.14 251.932 1099.44 183.049 1148.08 126.925C1218.41 45.8664 1322.43 12.5924 1432.81 3.00216C1432.81 1.75126 1432.81 1.16751 1432.81 0C1322.06 9.67364 1217.67 42.8642 1146.97 124.09C1097.96 180.38 1071.57 249.597 1056.43 319.064C1048.58 355.006 1044.52 391.282 1039.26 427.559C1031.05 483.933 1023.11 560.154 979.824 605.687C915.494 673.319 824.306 554.984 790.803 514.038C711.613 417.051 650.144 306.721 561.909 215.906C535.881 189.053 504.685 159.031 461.768 164.285C439.525 167.037 420.604 176.544 405.006 190.888C364.211 228.498 345.66 280.703 301.542 316.562C218.476 384.277 96.9222 379.774 -7.00284 369.934Z" fill="url(#paint0_linear_5492_334)"/>
<path d="M-7.00284 384.611C-7.00284 385.528 -7.00284 385.945 -7.00284 386.862C95.3532 394.284 207.031 391.866 286.682 325.151C330.892 288.124 353.505 234.753 398.084 198.56C415.435 184.466 437.032 174.292 460.66 172.374C498.963 169.205 529.236 193.89 554.34 217.157C645.344 301.384 706.998 409.545 785.542 502.779C821.168 545.06 910.787 657.725 977.794 593.512C1022.83 550.314 1032.89 476.344 1043.42 420.97C1049.32 390.031 1055.14 359.176 1063.08 328.654C1079.5 264.774 1104.79 201.395 1149.19 148.774C1218.59 66.4646 1321.87 32.3566 1432.81 22.8498C1432.81 21.2653 1432.81 20.5148 1432.81 19.0137C1321.78 28.6039 1218.22 62.7119 1148.73 145.105C1104.15 197.976 1078.95 261.689 1062.8 325.818C1055.05 356.757 1049.42 388.03 1043.79 419.219C1033.63 475.343 1023.94 550.23 978.994 594.429C912.356 659.976 822.091 546.394 786.557 504.03C707.736 410.046 645.898 301.217 554.802 215.989C529.882 192.639 499.886 167.704 461.491 170.706C438.048 172.541 416.543 182.632 399.376 196.725C355.166 233.001 333.2 286.54 289.082 323.567C209.154 390.949 95.8147 392.366 -7.00284 384.611Z" fill="url(#paint1_linear_5492_334)"/>
<path d="M-6.99991 395.953C-6.99991 396.62 -6.99991 396.954 -6.99991 397.621C94.6178 403.292 198.912 395.619 276.625 329.905C318.989 294.046 345.109 244.677 389.041 210.486C407.685 195.975 430.482 184.801 455.31 182.215C494.72 178.129 526.378 201.896 552.959 225.497C638.702 301.635 697.771 400.79 769.577 487.185C804.742 529.466 893.623 646.467 964.598 590.51C1012.13 553.066 1022.56 482.265 1035.94 430.478C1042.5 405.126 1049.51 379.941 1057.08 354.84C1075.91 291.628 1101.2 228.916 1145.13 176.128C1215.37 91.7334 1319.57 56.3746 1433 47.0345C1433 45.1998 1433 44.2825 1433 42.5312C1320.58 51.8713 1216.75 86.8132 1146.79 170.29C1102.77 222.828 1077.48 285.457 1059.11 348.669C1052.09 372.936 1045.54 397.371 1039.45 421.888C1025.98 475.927 1016.84 545.311 971.613 587.258C903.683 650.22 815.448 540.307 778.991 497.36C701.832 406.294 640.64 298.883 548.067 219.409C521.578 196.642 490.936 175.627 452.633 180.964C428.267 184.384 406.485 195.475 388.395 210.236C345.57 245.177 320.097 294.129 277.733 329.822C199.743 395.202 94.4332 401.957 -6.99991 395.953Z" fill="url(#paint2_linear_5492_334)"/>
<path d="M-7.00284 404.541C-7.00284 405.041 -7.00284 405.292 -7.00284 405.792C86.862 409.711 180.081 400.121 254.656 343.997C301.358 308.889 332.184 260.02 378.702 225.162C398.637 210.234 421.988 198.559 447.831 194.64C486.965 188.719 518.53 208.233 546.311 231.249C632.054 302.301 689.554 399.871 758.591 483.515C793.387 525.712 879.037 639.961 950.105 586.923C997.268 551.731 1005.3 487.685 1022.74 438.816C1031.05 415.633 1040.56 392.616 1049.32 369.599C1073.14 306.637 1102.02 244.175 1149.93 192.805C1222.29 115.166 1323.63 83.3093 1432.81 74.7198C1432.81 72.635 1432.81 71.6343 1432.81 69.6328C1324.64 78.2223 1224.04 109.662 1152.14 186.384C1104.24 237.504 1075.44 299.882 1052.37 362.844C1043.79 386.278 1034.83 409.712 1026.9 433.312C1010.1 483.098 1001.61 544.976 957.95 583.253C889.651 643.213 804.278 535.969 768.19 493.105C697.307 409.044 639.622 312.641 556.186 237.837C529.421 213.904 496.471 188.552 456.415 191.471C430.849 193.305 406.113 204.563 386.177 218.49C339.753 250.93 310.218 299.465 266.931 335.074C190.51 397.703 92.6766 408.961 -7.00284 404.541Z" fill="url(#paint3_linear_5492_334)"/>
<path d="M-6.99795 410.879C-6.99795 411.296 -6.99795 411.463 -6.99795 411.797C83.8211 414.549 170.395 401.873 243.124 349.752C290.933 315.477 326.19 268.36 375.753 236.253C397.442 222.243 422.916 210.818 449.682 207.816C489.277 203.396 521.396 223.744 549.177 247.178C631.32 316.478 686.052 410.296 752.597 491.104C784.716 530.216 856.522 626.869 923.621 591.009C973.092 564.574 980.291 503.613 1000.32 460.749C1010.56 438.733 1023.39 417.468 1033.82 395.535C1062.99 334.491 1093.63 273.53 1142.73 223.077C1218.23 145.521 1321.14 113.498 1432.63 105.242C1432.63 102.991 1432.63 101.907 1432.63 99.7383C1321.42 108.078 1218.69 140.184 1143.84 217.907C1095.01 268.61 1064.74 329.821 1036.59 391.365C1026.44 413.631 1014.16 435.314 1004.29 457.58C984.813 501.528 977.245 563.239 927.682 590.759C860.491 628.12 787.3 530.382 754.997 491.271C687.621 409.795 632.335 315.227 549.546 245.177C521.765 221.66 489.554 200.895 449.774 205.314C423.101 208.317 397.812 219.741 376.399 233.918C327.206 266.525 292.779 314.06 245.154 348.584C172.241 401.539 84.5595 413.798 -6.99795 410.879Z" fill="url(#paint4_linear_5492_334)"/>
<path d="M-7.00283 415.55C-7.00283 415.801 -7.00283 415.967 -7.00283 416.218C81.1396 417.969 162.083 402.458 233.612 354.256C283.175 320.815 323.232 275.699 376.763 246.929C397.438 235.754 420.419 226.998 444.416 223.662C483.55 218.158 514.653 234.003 543.357 256.936C623.932 321.399 675.71 413.382 737.732 491.522C768.19 529.8 835.381 624.952 901.373 592.595C948.998 569.245 954.074 514.455 977.794 476.178C990.623 455.579 1006.68 436.566 1019.14 415.55C1052.09 359.927 1084.49 303.887 1132.11 256.936C1211.86 178.629 1317.44 145.772 1432.81 137.683C1432.81 135.348 1432.81 134.181 1432.81 131.846C1317.9 139.935 1212.5 172.792 1133.59 251.515C1086.33 298.633 1054.4 354.923 1022.47 411.047C1010.37 432.313 994.869 451.827 982.501 472.675C959.15 511.953 953.889 567.66 906.08 592.011C839.812 625.786 771.328 529.966 740.501 491.439C677.463 412.632 625.039 319.898 543.726 254.684C514.93 231.584 483.734 215.406 444.416 220.993C420.604 224.412 397.807 233.252 377.317 244.51C324.247 273.698 285.021 319.398 235.735 353.172C163.837 402.374 81.878 417.468 -7.00283 415.55Z" fill="url(#paint5_linear_5492_334)"/>
<path d="M-6.99648 419.22C-6.99648 419.47 -6.99648 419.554 -6.99648 419.804C77.3619 420.721 153.045 403.292 223.005 360.011C271.46 329.989 313.732 291.628 365.233 265.693C420.703 237.839 479.587 226.998 532.657 264.942C611.57 321.316 660.21 411.381 715.496 485.518C744.384 524.213 803.546 618.03 869.537 599.267C883.197 595.431 894.365 585.924 903.41 576.334C911.993 566.743 919.469 556.486 925.745 545.561C934.144 530.968 941.528 515.957 947.804 500.529C962.848 481.432 982.784 465.42 997.644 445.489C1036.96 392.451 1071.76 337.161 1121.41 291.044C1205.77 212.654 1313.94 179.38 1432.73 171.541C1432.73 169.123 1432.73 167.956 1432.73 165.537C1314.4 173.376 1206.6 206.65 1123.07 285.207C1073.79 331.574 1039.55 386.947 1001.24 440.569C986.845 460.75 967.555 477.262 952.88 496.609C946.604 512.454 939.313 527.799 930.914 542.809C924.638 554.068 917.254 564.575 908.578 574.499C899.533 584.339 888.273 594.18 874.521 598.349C807.976 618.364 747.614 523.796 718.357 484.934C662.056 410.214 612.77 319.315 533.027 262.19C479.864 224.163 421.349 234.503 365.971 263.107C314.839 289.543 273.306 328.488 225.22 358.843C154.798 403.125 78.1926 420.304 -6.99648 419.22Z" fill="url(#paint6_linear_5492_334)"/>
<path d="M-7.00283 422.388C-7.00283 422.639 -7.00283 422.722 -7.00283 422.972C73.3868 423.222 144.547 404.292 212.754 366.181C263.609 337.827 310.31 302.635 364.857 279.785C423.096 255.435 483.457 245.177 536.343 284.706C610.179 339.829 654.297 425.724 705.244 497.192C731.733 534.303 785.172 622.366 848.026 603.436C884.298 592.511 895.835 555.985 914.94 530.55C930.262 510.202 956.75 495.525 974.564 476.094C1020.25 426.058 1058.28 371.185 1110.05 325.735C1199.3 247.512 1310.24 213.571 1432.81 205.899C1432.81 203.48 1432.81 202.313 1432.81 199.895C1310.71 207.567 1200.23 241.508 1111.72 319.981C1060.31 365.597 1023.02 420.721 978.255 471.174C960.904 490.771 934.969 506.116 920.109 526.714C901.188 552.899 889.651 590.426 853.102 602.185C789.787 622.533 735.148 533.802 708.198 496.525C656.143 424.39 611.287 337.744 536.62 281.87C483.642 242.175 423.65 252.015 365.411 277.117C311.233 300.384 265.27 336.243 214.784 365.014C146.208 404.042 74.2175 422.722 -7.00283 422.388Z" fill="url(#paint7_linear_5492_334)"/>
<path d="M-7.00282 425.641C-7.00282 425.891 -7.00282 425.974 -7.00282 426.225C69.0489 425.724 136.517 405.793 202.693 372.936C256.409 346.334 307.541 314.727 365.134 294.88C425.403 274.115 487.426 264.108 539.85 305.054C603.442 354.84 641.745 429.56 684.016 493.773C708.751 531.3 754.622 618.03 815.538 611.692C847.288 608.356 865.378 580.086 881.806 558.987C898.512 537.555 929.615 526.13 950.751 507.2C1002.81 460.75 1044.25 405.71 1098.33 360.761C1192.66 282.538 1306.27 247.596 1432.81 240.007C1432.81 237.672 1432.81 236.421 1432.81 234.086C1306.74 241.758 1193.58 276.617 1100.09 355.09C1046.46 400.122 1005.67 455.162 954.535 502.279C933.676 521.543 903.127 533.635 886.882 555.318C870.638 577 852.548 606.521 820.429 610.608C758.868 618.363 711.705 530.633 686.693 493.106C643.406 428.226 604.365 352.755 540.035 302.302C487.518 261.105 425.957 270.696 365.595 292.128C308.464 312.392 257.979 344.666 204.724 371.685C138.086 405.46 69.9719 425.307 -7.00282 425.641Z" fill="url(#paint8_linear_5492_334)"/>
<path d="M-6.99647 429.558C-6.99647 429.892 -6.99647 430.059 -6.99647 430.392C130.432 427.974 236.019 348.416 362.464 312.224C422.087 295.128 486.971 283.119 538.564 322.731C598.003 368.347 632.152 439.065 669.071 499.442C692.145 537.219 730.54 617.944 788.409 619.696C817.667 620.53 836.218 598.931 853.847 581.335C873.506 561.821 907.102 553.898 930.453 536.386C987.768 493.271 1032.9 438.315 1089.2 394.116C1187.77 316.644 1303.24 280.951 1432.73 273.196C1432.73 270.944 1432.73 269.776 1432.73 267.441C1303.79 275.197 1188.6 310.723 1090.77 388.362C1034.84 432.727 990.353 487.684 933.96 531.382C911.07 549.145 877.659 557.651 858.646 577.498C841.295 595.678 822.743 618.528 793.116 618.361C734.693 618.028 695.006 536.219 671.655 498.525C633.814 437.481 598.926 366.013 538.749 319.646C487.063 279.784 422.641 291.542 362.925 309.222C235.926 346.665 131.909 427.474 -6.99647 429.558Z" fill="url(#paint9_linear_5492_334)"/>
<path d="M-7.00282 434.647C-7.00282 435.064 -7.00282 435.314 -7.00282 435.731C124.703 431.144 237.766 357.925 363.196 329.154C423.834 315.227 490.749 303.135 541.788 343.748C596.797 387.446 626.793 454.494 659.558 512.036C680.97 549.73 714.197 624.117 769.944 628.286C801.324 630.621 814.153 608.606 837.504 595.846C846.918 590.676 863.809 589.675 874.423 585.422C891.313 578.667 906.818 569.411 921.401 559.32C984.162 516.122 1034.28 459.748 1096.12 415.466C1194.97 344.748 1307.84 312.058 1432.81 304.386C1432.81 302.301 1432.81 301.217 1432.81 299.049C1308.21 306.638 1195.61 339.161 1097.22 409.962C1035.66 454.244 986.101 510.535 924.17 554.233C909.772 564.407 894.451 573.83 877.837 580.752C867.5 585.089 850.61 586.339 841.473 591.593C818.122 604.936 806.031 628.203 774.005 626.785C717.704 624.2 683.37 548.562 661.773 511.202C628.177 452.91 597.443 385.194 541.881 340.746C490.749 299.883 424.388 311.641 363.565 326.068C237.95 355.84 125.811 430.56 -7.00282 434.647Z" fill="url(#paint10_linear_5492_334)"/>
<path d="M-6.99647 441.569C-6.99647 442.153 -6.99647 442.403 -6.99647 442.987C53.7342 440.568 112.711 419.387 169.289 401.04C231.958 380.692 294.811 360.094 360.156 347.751C419.78 336.493 490.201 322.984 540.964 361.511C592.65 400.79 619.323 463.669 647.566 517.291C668.425 556.819 695.836 624.118 748.907 636.794C777.703 643.632 792.747 627.87 817.39 619.948C829.942 615.862 844.525 615.862 857.446 611.609C875.444 605.771 892.242 597.265 908.025 587.591C974.57 547.062 1027.46 490.354 1090.77 446.073C1191.93 375.355 1305.82 341.497 1432.73 333.241C1432.73 331.323 1432.73 330.322 1432.73 328.404C1306.1 336.493 1192.3 370.184 1091.51 440.819C1028.38 485.101 975.954 541.725 910.055 582.671C894.457 592.345 877.844 601.018 860.031 607.022C847.386 611.358 832.711 611.442 820.436 615.695C795.793 624.201 781.579 641.464 752.137 635.292C698.605 624.118 670.27 555.568 649.319 516.373C620.338 462.084 593.111 398.455 540.872 358.342C490.109 319.398 420.333 332.741 360.526 344.416C295.549 357.092 233.342 378.274 171.135 398.955C114.188 418.136 54.6572 439.568 -6.99647 441.569Z" fill="url(#paint11_linear_5492_334)"/>
<path d="M-7.00282 450.825C-7.00282 451.576 -7.00282 451.993 -7.00282 452.744C48.9285 447.49 103.66 428.226 157.099 413.215C222.629 394.785 288.713 377.439 356.551 366.932C415.805 357.758 488.903 343.415 540.404 379.274C589.598 413.549 613.594 472.758 638.145 522.21C658.912 564.074 682.539 624.284 732.656 644.632C758.13 654.973 777.789 647.884 803.262 643.214C838.612 636.626 867.777 632.123 899.527 614.61C968.934 576.333 1023.85 519.041 1088.09 474.426C1190.44 403.375 1304.52 367.932 1432.81 358.843C1432.81 357.175 1432.81 356.341 1432.81 354.589C1304.71 363.513 1190.63 398.705 1088.36 469.672C1024.22 514.205 969.58 571.329 900.542 610.024C869.069 627.703 840.088 631.873 805.201 639.211C780.004 644.549 761.083 653.138 735.056 643.381C684.385 624.284 660.204 562.906 639.53 521.46C614.425 471.34 589.967 411.297 540.404 376.188C488.995 339.912 416.451 354.006 357.104 363.512C289.728 374.354 224.198 392.2 159.13 410.963C105.321 426.558 49.7591 446.239 -7.00282 450.825Z" fill="url(#paint12_linear_5492_334)"/>
<path d="M-6.99647 463.002C-6.99647 464.003 -6.99647 464.504 -6.99647 465.504C113.634 441.153 228.912 402.626 351.942 386.531C411.104 378.775 487.248 363.681 540.133 396.705C587.481 426.309 610.001 480.682 631.875 526.465C652.919 570.497 675.07 624.786 722.51 651.389C773.826 680.159 847.755 664.982 896.857 639.797C968.202 603.27 1024.23 545.145 1088.46 499.862C1190.63 427.977 1303.97 390.617 1432.73 380.276C1432.73 378.942 1432.73 378.191 1432.73 376.774C1303.97 386.781 1190.45 423.808 1088.09 495.526C1023.67 540.642 967.832 598.6 896.765 635.377C849.14 659.978 774.288 677.241 723.71 650.138C675.808 624.536 653.565 569.329 632.614 525.631C610.371 479.181 587.666 423.974 540.041 393.536C487.525 360.011 411.842 374.939 352.773 382.945C283.089 392.285 214.421 407.379 146.584 424.475C95.7289 437.401 45.0585 453.829 -6.99647 463.002Z" fill="url(#paint13_linear_5492_334)"/>
<path d="M-7.00282 478.346C-7.00282 479.43 -7.00282 479.93 -7.00282 480.931C105.598 442.904 229.09 421.388 347.875 407.295C408.144 400.123 483.826 384.612 538.558 416.301C585.26 443.321 608.334 493.857 630.392 537.555C652.912 582.338 676.079 633.124 722.227 662.396C776.589 696.837 846.365 687.497 901.65 660.144C974.102 624.285 1030.96 566.243 1095.29 520.46C1195.52 449.242 1305.91 409.797 1432.81 397.871C1432.81 396.62 1432.81 396.037 1432.81 394.869C1305.17 406.544 1193.95 445.656 1093.26 517.458C1029.02 563.241 972.533 621.616 900.265 657.475C845.349 684.745 775.112 693.835 721.211 659.56C675.064 630.206 652.359 579.002 630.208 534.136C608.611 490.355 585.813 439.401 539.204 412.382C484.75 380.859 408.421 396.37 348.428 403.542C228.905 417.802 106.429 440.902 -7.00282 478.346Z" fill="url(#paint14_linear_5492_334)"/>
<path d="M-7.00281 491.438C-7.00281 492.189 -7.00281 492.606 -7.00281 493.273C38.2222 477.095 87.8772 469.005 135.317 460.332C204.447 447.657 274.315 437.566 344.367 430.144C406.206 423.556 478.473 408.628 534.774 440.151C581.845 466.504 607.78 514.371 632.792 556.986C658.266 600.434 684.201 648.635 730.81 676.905C787.295 711.18 855.133 701.423 912.356 673.903C985.178 638.878 1043.42 582.671 1108.12 537.388C1205.12 469.506 1310.71 429.31 1432.81 416.051C1432.81 414.716 1432.81 414.049 1432.81 412.715C1309.78 425.808 1203.27 465.92 1105.62 534.469C1040.92 579.919 982.87 636.543 910.049 671.735C853.102 699.255 784.988 709.012 728.872 674.654C682.355 646.133 657.066 597.431 632.146 553.65C607.688 510.786 582.306 462.417 535.42 435.815C479.396 404.125 406.667 419.219 345.014 425.974C274.776 433.647 204.816 444.237 135.594 457.414C87.9696 466.504 38.4067 475.26 -7.00281 491.438Z" fill="url(#paint15_linear_5492_334)"/>
<path d="M-7.00281 500.528C-7.00281 501.028 -7.00281 501.278 -7.00281 501.779C37.1146 486.684 87.0466 482.098 133.379 475.927C201.955 466.837 270.992 459.832 340.03 454.161C403.16 448.907 472.936 435.231 530.99 465.252C578.799 490.02 608.61 534.469 637.315 575.248C666.388 616.695 696.107 661.477 743.639 687.746C802.247 720.103 868.423 711.096 927.308 683.994C999.76 650.636 1058.74 597.014 1123.16 553.066C1216.38 489.52 1316.52 449.574 1432.81 435.814C1432.81 434.397 1432.81 433.646 1432.81 432.229C1315.41 445.905 1214.35 485.934 1120.39 550.397C1055.88 594.596 996.991 648.718 924.447 682.409C865.839 709.595 799.386 718.852 741.147 686.078C693.8 659.392 664.819 613.943 636.392 572.079C608.426 530.883 579.353 485.767 531.636 460.666C473.951 430.31 403.806 444.237 340.86 449.741C271.638 455.829 202.509 463.334 133.748 473.175C87.2312 479.846 37.2992 485.183 -7.00281 500.528Z" fill="url(#paint16_linear_5492_334)"/>
<path d="M-7.00281 506.449C-7.00281 506.782 -7.00281 506.949 -7.00281 507.199C36.3762 494.356 86.0314 493.689 131.164 490.604C199.094 485.85 267.116 482.598 335.138 479.179C399.376 475.927 467.582 464.085 527.298 491.354C576.399 513.787 610.641 554.233 643.683 592.511C677.094 631.122 711.243 671.985 760.068 695.668C820.522 724.94 885.683 717.351 945.767 691.249C1017.3 660.226 1076.46 609.94 1140.05 567.91C1229.02 509.201 1323.17 470.423 1432.81 456.913C1432.81 455.412 1432.81 454.661 1432.81 453.16C1321.97 466.837 1226.72 505.781 1137 565.408C1073.23 607.772 1014.07 658.642 942.352 690.165C882.452 716.517 817.107 724.356 757.022 694.501C708.382 670.4 675.063 628.787 642.483 589.592C610.179 550.814 576.768 509.618 527.944 486.684C468.413 458.831 400.022 471.09 335.969 474.676C267.762 478.512 199.555 482.431 131.533 488.019C86.2159 491.771 36.4685 493.106 -7.00281 506.449Z" fill="url(#paint17_linear_5492_334)"/>
<path d="M-7.00281 509.784C-7.00281 509.951 -7.00281 510.034 -7.00281 510.201C36.2839 500.861 84.5547 504.28 128.672 504.447C195.679 504.614 262.686 505.531 329.693 504.864C394.669 504.197 462.229 494.273 523.606 518.207C574.369 537.888 613.318 573.997 651.436 609.023C689.646 644.215 728.595 680.658 779.266 701.172C841.288 726.357 905.895 720.687 967.088 696.169C1037.14 667.982 1096.21 621.532 1158.51 582.003C1242.5 528.631 1330.46 491.771 1432.81 478.845C1432.81 477.261 1432.81 476.51 1432.81 474.926C1329.16 488.019 1240.1 525.295 1155.09 579.501C1092.52 619.447 1033.45 666.648 963.119 695.335C902.204 720.186 837.412 726.19 775.666 700.255C725.365 679.156 687.339 641.88 649.959 606.104C612.856 570.495 574.646 533.551 524.252 513.37C463.06 488.852 395.499 499.11 330.615 500.277C263.424 501.445 196.233 501.361 129.041 502.029C84.8315 502.529 36.3762 499.86 -7.00281 509.784Z" fill="url(#paint18_linear_5492_334)"/>
<path d="M-7.00281 511.369C-7.00281 511.453 -7.00281 511.453 -7.00281 511.536C36.1916 506.115 83.0779 514.205 126.088 517.874C191.987 523.461 257.979 528.798 324.062 531.133C389.5 533.385 457.245 525.546 520.099 545.561C572.8 562.406 616.825 593.762 660.112 624.868C703.491 656.057 747.423 687.663 800.124 705.009C863.162 725.774 928.139 722.021 989.885 699.422C1058.18 674.32 1116.79 632.123 1177.71 595.513C1256.62 548.062 1338.12 513.454 1432.81 501.612C1432.81 500.028 1432.81 499.194 1432.81 497.609C1336.73 509.701 1254.13 544.643 1174.29 593.178C1113.1 630.288 1054.49 673.32 985.824 698.921C924.17 721.938 859.286 726.024 796.34 704.425C744.101 686.496 700.999 654.056 658.543 622.116C616.271 590.343 573.077 558.07 520.745 540.724C458.076 519.959 390.516 528.215 325.078 526.463C258.809 524.712 192.633 520.126 126.549 515.539C83.3547 512.453 36.1916 505.281 -7.00281 511.369Z" fill="url(#paint19_linear_5492_334)"/>
<path d="M-7.00281 511.785C36.1917 510.868 81.4166 523.544 123.504 530.882C188.111 542.14 252.995 552.148 318.525 557.652C384.424 563.239 452.538 557.068 516.868 573.246C571.969 587.173 620.978 613.775 669.434 640.461C776.497 699.337 888.267 742.869 1013.79 701.672C1080.15 679.907 1138.11 642.129 1197.46 608.605C1271.02 567.075 1346.05 535.135 1432.81 524.544C1432.81 522.876 1432.81 522.126 1432.81 520.458C1344.67 531.299 1268.53 563.656 1193.95 606.27C1134.33 640.378 1076.27 678.906 1009.54 701.255C883.744 743.369 773.451 698.753 667.772 637.626C620.24 610.189 572.061 582.67 517.422 568.243C453.369 551.397 385.347 557.818 319.54 552.815C253.918 547.894 188.849 538.721 124.057 528.464C81.6935 521.876 36.1917 510.117 -7.00281 511.785Z" fill="url(#paint20_linear_5492_334)"/>
<path d="M-6.99646 511.871C36.2903 515.707 79.6693 532.803 121.018 543.894C184.056 560.74 248.017 575.5 313.086 584.34C379.631 593.346 447.838 588.51 513.644 601.102C571.422 612.11 625.23 634.043 678.762 655.975C792.563 702.759 912.732 739.702 1037.61 703.76C1177.16 663.647 1283.11 565.326 1432.73 547.814C1432.73 546.146 1432.73 545.395 1432.73 543.727C1352.52 553.151 1282.75 582.756 1213.71 619.449C1155.47 650.388 1098.06 684.329 1033.45 703.426C908.578 740.202 789.886 702.092 677.1 653.223C624.492 630.373 571.514 607.69 514.198 596.182C448.668 583.006 380.462 588.009 314.009 579.67C248.848 571.414 184.794 557.487 121.387 541.642C79.9463 531.135 36.2903 514.873 -6.99646 511.871Z" fill="url(#paint21_linear_5492_334)"/>
<path d="M-7.00281 512.119C-7.00281 512.202 -7.00281 512.202 -7.00281 512.286C36.2839 520.792 77.9094 542.141 118.797 556.901C180.265 579.167 243.211 598.682 308.187 610.774C375.563 623.366 443.309 619.447 510.961 628.703C571.6 637.043 629.931 654.222 688.077 671.568C807.508 707.177 935.707 737.115 1060.77 706.176C1191.37 673.903 1295.94 586.089 1432.81 570.828C1432.81 569.244 1432.81 568.41 1432.81 566.825C1293.72 582.42 1188.87 672.151 1056.8 705.759C931.831 737.532 804.924 706.343 686.416 668.815C629.1 650.719 571.508 632.706 511.331 623.866C444.047 614.026 376.21 618.112 308.926 606.187C243.95 594.595 180.819 575.998 119.073 554.65C78.1862 540.473 36.2839 519.875 -7.00281 512.119Z" fill="url(#paint22_linear_5492_334)"/>
<path d="M-7.00281 513.453C-7.00281 513.62 -7.00281 513.703 -7.00281 513.87C36.2839 526.629 76.4326 551.981 116.951 570.411C176.851 597.68 238.873 621.698 303.942 637.042C372.149 653.054 439.155 649.718 508.562 656.056C572.154 661.894 634.453 674.82 696.661 687.579C821.076 713.181 955.458 736.197 1082.27 709.761C1204.38 684.16 1307.2 606.937 1432.81 593.344C1432.81 591.76 1432.81 591.009 1432.81 589.425C1305.26 603.268 1202.17 682.325 1078.58 708.928C952.136 736.197 818.768 711.846 695.184 684.66C633.623 671.067 571.969 657.474 508.931 651.219C439.894 644.381 372.702 647.8 304.68 632.372C239.704 617.612 177.497 594.345 117.32 567.909C76.6172 550.146 36.2839 525.462 -7.00281 513.453Z" fill="url(#paint23_linear_5492_334)"/>
<path d="M-7.00281 516.457C-7.00281 516.707 -7.00281 516.874 -7.00281 517.207C36.4685 533.302 75.3251 562.574 115.474 584.339C173.897 616.029 235.182 644.383 300.435 662.562C369.287 681.659 435.556 678.657 506.347 682.744C572.615 686.496 638.422 695.419 704.044 704.092C833.074 721.105 971.518 737.617 1101.01 714.934C1160.45 704.509 1216.66 684.078 1272.13 662.729C1323.53 642.882 1376.42 620.199 1432.81 615.278C1432.81 613.777 1432.81 613.027 1432.81 611.526C1375.31 616.446 1321.6 639.629 1269.26 660.227C1213.79 682.077 1157.59 703.175 1097.96 713.933C969.026 737.283 831.136 719.604 702.845 701.257C637.684 691.917 572.523 682.327 506.716 678.24C436.11 673.821 369.749 676.906 300.988 658.309C235.735 640.63 174.359 613.027 115.658 582.004C75.5096 560.655 36.3762 532.051 -7.00281 516.457Z" fill="url(#paint24_linear_5492_334)"/>
<path d="M-7.00281 521.877C-7.00281 522.377 -7.00281 522.627 -7.00281 523.128C36.9299 540.64 75.2327 574.748 114.551 599.183C171.682 634.625 232.32 666.815 298.035 687.413C366.98 709.012 433.064 706.343 504.778 708.678C573.353 710.847 641.837 716.434 710.228 721.521C778.619 726.608 847.011 731.278 915.679 731.778C982.04 732.195 1051.08 732.362 1116.61 722.605C1175.49 713.765 1231.98 696.67 1287.54 677.656C1334.52 661.644 1382.42 641.38 1432.81 636.043C1432.81 634.625 1432.81 633.874 1432.81 632.457C1381.4 637.627 1332.67 658.309 1284.95 674.904C1229.39 694.251 1173 711.931 1114.11 721.021C1048.77 731.028 979.64 730.861 913.464 730.111C845.165 729.36 777.143 724.106 709.213 718.435C641.191 712.765 573.261 706.677 504.962 704.258C433.433 701.757 367.257 704.425 298.312 683.243C232.69 663.062 171.959 631.539 114.643 596.681C74.9559 572.413 36.7454 539.89 -7.00281 521.877Z" fill="url(#paint25_linear_5492_334)"/>
<path d="M-7.00281 530.383C-7.00281 531.133 -7.00281 531.467 -7.00281 532.217C37.576 550.23 75.7865 588.508 114.366 614.944C170.574 653.388 230.659 688.747 296.927 711.18C365.226 734.28 431.956 732.195 503.578 733.446C573.907 734.697 644.144 737.532 714.382 739.867C850.518 744.287 992.561 751.209 1127.77 733.196C1186.75 725.357 1244.25 710.68 1300.64 693.501C1344.02 680.241 1387.5 662.562 1432.81 655.557C1432.81 654.222 1432.81 653.555 1432.81 652.221C1386.66 658.809 1342.45 676.989 1298.52 690.665C1242.31 708.178 1185.09 723.189 1126.21 731.111C991.454 749.374 849.503 741.869 713.92 736.615C643.867 733.863 573.907 730.611 503.855 729.276C432.141 727.859 365.596 730.027 297.112 707.177C230.936 684.994 170.759 650.136 114.366 612.192C75.6019 586.006 37.4838 548.396 -7.00281 530.383Z" fill="url(#paint26_linear_5492_334)"/>
<path d="M-7.00281 542.64C-7.00281 543.641 -7.00281 544.142 -7.00281 545.226C38.4067 561.738 77.4479 604.602 114.92 631.872C170.482 672.484 230.29 710.262 297.296 733.695C364.303 757.129 432.325 755.878 502.932 757.045C574.092 758.213 645.252 759.214 716.32 759.547C854.302 760.214 996.899 765.218 1133.87 747.622C1238.07 734.196 1332.86 700.338 1432.81 673.485C1432.81 672.318 1432.81 671.65 1432.81 670.483C1331.93 694.917 1237.79 731.36 1133.22 744.786C996.53 762.383 853.933 757.212 716.227 756.045C645.16 755.377 574.092 754.21 503.024 753.042C432.141 751.958 364.396 753.376 297.112 729.859C230.197 706.509 170.39 669.065 114.735 628.786C77.0787 601.6 38.2222 559.569 -7.00281 542.64Z" fill="url(#paint27_linear_5492_334)"/>
<path d="M-6.99646 559.07C-6.99646 560.321 -6.99646 560.905 -6.99646 562.239C39.3361 580.085 78.8387 618.363 118.434 645.633C174.457 684.327 233.619 720.353 298.78 745.288C364.956 770.556 430.855 775.56 501.646 778.979C571.883 782.398 642.213 784.149 712.45 784.483C851.447 785.067 994.229 784.4 1131.38 761.967C1192.11 752.043 1251.73 737.866 1310.8 722.021C1350.77 711.264 1391.29 696.586 1432.73 691.249C1432.73 689.915 1432.73 689.248 1432.73 687.913C1391.47 695.169 1351.51 709.596 1311.36 720.437C1252.47 736.448 1192.76 750.292 1132.12 759.798C995.06 781.147 852.278 780.563 713.465 780.146C642.951 779.98 572.437 778.479 502.015 775.56C431.317 772.724 364.771 769.055 298.503 744.287C232.788 719.686 173.442 682.993 117.511 643.715C78.6542 616.111 39.2438 576.583 -6.99646 559.07Z" fill="url(#paint28_linear_5492_334)"/>
<path d="M-7.00281 577.666C-7.00281 579 -7.00281 579.751 -7.00281 581.085C39.0527 599.432 79.7552 630.371 121.288 655.639C177.589 689.914 235.551 722.02 297.389 747.455C424.111 799.576 567.631 803.496 705.06 805.747C846.088 808.082 988.777 800.41 1126.76 773.224C1187.49 761.299 1247.21 745.787 1307.2 731.277C1345.69 721.937 1392.29 706.175 1432.81 712.43C1432.81 710.846 1432.81 710.012 1432.81 708.427C1391.93 704.174 1346.61 719.935 1307.84 729.526C1248.04 744.37 1188.32 759.714 1127.59 771.306C989.792 797.742 847.103 804.246 706.536 802.328C569.662 800.41 424.388 798.909 297.85 747.372C235.366 721.937 177.127 689.08 120.827 653.888C79.663 628.202 39.1451 596.012 -7.00281 577.666Z" fill="url(#paint29_linear_5492_334)"/>
<path d="M-7.00281 597.848C-7.00281 599.349 -7.00281 600.099 -7.00281 601.517C96.9222 640.795 191.526 700.505 293.328 744.12C322.955 756.796 352.951 768.888 383.316 780.229C416.635 792.655 454.015 797.075 489.457 802.579C557.663 813.086 626.7 819.424 695.83 821.843C839.627 826.763 982.132 813.086 1121.87 782.481C1182.51 769.221 1242.5 753.21 1303.41 741.034C1341.53 733.362 1395.52 719.352 1432.81 736.948C1432.81 735.113 1432.81 734.196 1432.81 732.445C1395.06 716.683 1342.09 731.361 1304.15 739.283C1243.42 751.959 1183.52 767.887 1122.79 780.98C983.424 811.085 840.827 823.761 697.584 819.341C628.362 817.173 559.325 811.335 490.933 801.495C455.492 796.408 417.927 792.405 384.516 780.479C353.966 769.638 323.878 757.713 294.251 745.121C235.551 720.102 178.696 691.749 122.581 662.227C80.2168 640.045 38.2222 615.277 -7.00281 597.848Z" fill="url(#paint30_linear_5492_334)"/>
<path d="M-7.00281 619.531C-7.00281 621.116 -7.00281 621.866 -7.00281 623.451C91.6614 656.891 188.664 693.835 283.729 735.031C347.044 762.468 405.467 789.404 474.043 804.581C540.588 819.342 608.61 828.766 677.002 833.102C822.737 842.275 964.78 824.679 1105.81 792.406C1166.35 778.563 1226.72 762.718 1288.18 752.794C1332.03 745.706 1395.34 734.781 1432.81 763.969C1432.81 761.967 1432.81 761.05 1432.81 759.049C1394.97 731.529 1332.03 743.788 1288.92 751.126C1227.55 761.634 1167.28 777.479 1106.73 791.239C966.072 823.095 824.121 839.857 678.94 831.351C610.549 827.348 542.527 818.425 475.797 804.415C440.355 796.993 404.637 789.487 371.872 774.893C342.891 762.051 313.91 749.292 284.837 736.616C189.033 695.002 92.3998 653.889 -7.00281 619.531Z" fill="url(#paint31_linear_5492_334)"/>
<path d="M-7.00281 642.131C-7.00281 643.715 -7.00281 644.549 -7.00281 646.217C34.5303 658.142 77.817 664.313 119.996 673.82C172.605 685.579 223.737 701.59 272.838 722.355C335.322 748.708 391.161 781.898 457.061 801.412C527.113 822.177 599.75 835.604 673.125 841.775C820.891 854.034 961.55 830.85 1103.96 797.493C1163.77 783.483 1224.04 768.472 1285.6 762.134C1334.7 757.047 1397.83 755.129 1432.81 792.99C1432.81 790.905 1432.81 789.821 1432.81 787.819C1397.56 751.46 1334.33 755.046 1286.43 760.466C1225.05 767.471 1164.79 782.649 1105.07 796.576C963.119 829.766 822.552 852.116 675.34 840.524C602.058 834.77 529.421 821.927 459.183 801.996C392.915 783.233 336.707 751.043 274.223 724.524C183.219 685.912 87.6005 670.234 -7.00281 642.131Z" fill="url(#paint32_linear_5492_334)"/>
<path d="M-7.00134 665.48C-7.00134 667.148 -7.00134 667.982 -7.00134 669.65C33.4242 678.907 75.5111 675.988 116.767 677.739C170.391 679.991 221.892 690.582 270.717 711.013C332.37 736.782 384.979 774.309 448.386 797.492C516.316 822.344 587.753 839.022 660.482 847.112C733.58 855.284 807.786 854.617 880.885 846.111C957.306 837.188 1030.96 817.507 1105.44 800.328C1198.38 778.979 1366.45 731.862 1432.91 823.344C1432.91 821.176 1432.91 820.092 1432.91 817.924C1366.08 729.277 1197.46 778.562 1106.46 799.577C958.875 833.685 816.185 862.539 662.79 846.278C590.245 838.605 518.808 822.51 450.694 798.576C387.01 776.144 333.939 739.617 272.378 713.682C223.092 692.917 171.037 681.158 116.952 677.072C75.6035 673.903 33.4242 675.154 -7.00134 665.48Z" fill="url(#paint33_linear_5492_334)"/>
<path d="M-7.00281 689.248C-7.00281 690.915 -7.00281 691.749 -7.00281 693.417C33.8843 700.422 73.756 688.58 113.628 681.826C162.36 673.57 209.523 675.488 255.856 692.667C287.698 704.509 316.679 721.771 343.906 740.701C373.164 761.049 405.837 777.144 439.063 791.655C504.87 820.259 575.199 840.19 647.375 850.364C720.104 860.538 794.31 860.705 867.316 852.199C944.106 843.276 1017.57 822.01 1092.43 805.081C1203.83 779.98 1361.19 747.707 1432.81 854.2C1432.81 852.032 1432.81 850.948 1432.81 848.696C1360.82 744.788 1202.53 779.813 1093.44 804.581C1018.77 821.51 945.49 842.358 868.885 851.281C796.156 859.704 722.227 859.621 649.59 849.864C577.599 840.106 507.27 820.843 441.278 792.989C408.052 778.979 375.194 763.468 345.844 743.453C318.34 724.69 289.175 707.594 257.333 695.586C210.908 678.073 163.191 674.654 113.72 681.158C73.7561 686.412 33.6073 696.586 -7.00281 689.248Z" fill="url(#paint34_linear_5492_334)"/>
<path d="M-7.00135 713.182C-7.00135 714.85 -7.00135 715.684 -7.00135 717.352C39.0543 722.605 79.0183 698.672 119.536 682.994C163.561 665.898 207.586 661.311 252.904 677.99C284.654 689.748 311.512 708.929 337.447 728.86C365.689 750.542 397.439 768.806 429.835 785.151C493.427 817.341 562.556 840.441 634.27 852.533C712.537 865.709 793.019 865.792 871.747 855.035C947.153 844.694 1018.87 821.76 1092.89 806.082C1216.29 779.98 1364.61 767.722 1432.91 885.39C1432.91 883.222 1432.91 882.137 1432.91 879.969C1364.33 764.469 1215 779.98 1094 805.749C1020.16 821.51 948.538 844.11 873.316 854.284C794.865 864.958 714.66 865.042 636.578 852.199C565.048 840.441 495.919 818.008 432.05 786.652C399.654 770.724 367.812 752.961 339.477 731.612C313.265 711.848 286.223 692.917 254.473 680.992C209.248 664.063 164.761 667.065 119.813 682.577C78.8337 696.753 38.5005 718.769 -7.00135 713.182Z" fill="url(#paint35_linear_5492_334)"/>
<path d="M-7.00281 736.781C-7.00281 738.449 -7.00282 739.283 -7.00282 740.867C87.6005 746.788 136.056 630.287 237.212 658.474C266.747 666.73 292.497 684.493 315.017 703.09C343.26 726.44 371.318 748.623 403.068 768.22C466.936 807.666 538.281 837.02 613.687 852.781C689.831 868.709 768.928 870.544 846.272 861.037C927.308 851.03 1003.36 824.678 1082.83 808.583C1143.37 796.324 1207.52 787.818 1269.26 797.575C1346.7 809.75 1400.05 852.531 1432.81 915.994C1432.81 913.909 1432.81 912.825 1432.81 910.657C1400.05 848.278 1346.52 807.415 1270.09 796.157C1208.35 787.067 1144.39 795.907 1083.93 808.249C1004.74 824.428 928.785 850.363 847.934 860.287C770.774 869.71 691.954 867.959 615.81 852.448C540.496 837.103 469.151 808.416 404.914 769.721C349.444 736.281 303.111 679.907 238.32 661.31C138.086 632.622 86.9543 743.452 -7.00281 736.781Z" fill="url(#paint36_linear_5492_334)"/>
<path d="M-7.00282 759.966C-7.00282 761.551 -7.00282 762.385 -7.00282 763.969C93.0459 766.137 127.565 615.612 233.428 643.215C262.224 650.721 286.683 669.901 307.265 688.665C338.091 716.768 368.549 743.871 403.898 767.638C465.275 808.835 534.774 840.024 609.164 856.619C684.385 873.382 762.745 874.883 839.166 864.709C919.278 854.034 993.946 826.181 1072.67 810.586C1136.54 797.91 1205.03 791.156 1269.26 806.166C1349.84 825.097 1401.16 877.968 1432.81 945.434C1432.81 943.432 1432.81 942.431 1432.81 940.347C1401.16 873.882 1349.84 822.762 1270.19 804.832C1206.04 790.405 1137.74 797.66 1073.97 810.336C995.422 825.931 920.847 853.45 840.919 863.958C764.59 874.049 686.416 872.548 611.287 856.119C536.989 839.941 467.398 809.419 405.744 768.806C370.395 745.539 339.66 718.937 308.741 691.25C287.882 672.486 263.332 653.64 234.535 645.967C129.041 617.697 92.1229 762.718 -7.00282 759.966Z" fill="url(#paint37_linear_5492_334)"/>
<path d="M-7.00282 782.231C-7.00282 783.733 -7.00282 784.483 -7.00282 786.068C52.0665 785.651 88.3387 728.443 119.35 690.999C145.747 659.059 180.819 616.445 231.305 629.371C259.547 636.626 282.806 657.391 301.911 676.489C331.446 706.093 360.058 735.198 393.93 760.966C451.615 804.831 518.161 839.106 590.797 858.12C669.157 878.634 751.946 880.553 832.243 868.794C911.433 857.202 984.532 827.681 1062.52 812.253C1125.74 799.744 1193.21 794.657 1256.16 810.752C1345.78 833.685 1399.96 897.398 1432.81 973.036C1432.81 971.201 1432.81 970.201 1432.81 968.366C1399.96 893.645 1345.78 831.767 1257.08 809.751C1194.14 794.157 1126.76 799.577 1063.72 812.086C985.916 827.514 912.818 856.619 833.812 867.96C753.607 879.552 671.002 877.634 592.643 857.453C520.099 838.772 453.369 804.998 395.223 761.8C361.258 736.532 332.369 707.844 302.742 678.573C283.452 659.56 260.101 639.045 231.859 631.706C123.688 603.519 97.6606 781.898 -7.00282 782.231Z" fill="url(#paint38_linear_5492_334)"/>
<path d="M-7.00282 803.414C-7.00282 804.832 -7.00282 805.583 -7.00282 807C55.3891 805.749 90.7384 740.869 118.704 699.423C141.409 665.732 175.189 604.688 229.367 617.363C256.594 623.785 278.653 645.467 296.097 664.147C324.616 694.586 350.551 725.942 382.578 753.712C439.155 802.831 506.162 842.276 581.383 863.625C656.789 885.057 736.902 887.225 814.522 875.717C897.773 863.374 973.271 829.683 1055.14 813.422C1121.5 800.246 1192.66 797.077 1257.45 818.175C1348.36 847.78 1400.6 919.498 1432.81 998.305C1432.81 996.637 1432.81 995.803 1432.81 994.052C1400.42 915.662 1347.72 845.195 1256.71 816.757C1195.24 797.577 1128.33 799.912 1065.38 811.42C983.978 826.348 908.941 859.705 826.982 872.881C748.346 885.557 666.849 884.64 589.874 864.292C513.823 844.194 445.431 805.833 387.47 757.381C354.982 730.195 327.939 699.673 299.696 669.067C281.791 649.637 259.363 627.204 231.49 619.698C177.035 605.021 142.424 663.23 118.797 697.338C90.4617 738.284 54.9277 802.163 -7.00282 803.414Z" fill="url(#paint39_linear_5492_334)"/>
<path d="M-6.99648 823.095C-6.99648 824.429 -6.99648 825.096 -6.99648 826.347C59.6412 825.18 95.2673 752.544 121.479 707.345C140.769 674.071 172.15 599.517 226.512 607.94C258.17 612.86 282.997 642.131 300.81 663.563C327.484 695.67 352.219 728.193 382.953 757.464C436.024 808.001 500.077 849.447 573.637 871.797C652.734 895.814 737.739 895.897 818.867 880.72C899.81 865.626 972.724 829.516 1053.11 813.672C1119.84 800.495 1191.28 799.745 1255.15 823.762C1348.65 858.787 1400.33 937.761 1432.73 1020.49C1432.73 1019.07 1432.73 1018.32 1432.73 1016.82C1400.42 935.009 1348.83 857.286 1256.07 823.095C1192.2 799.495 1120.95 800.495 1054.41 813.421C974.108 829.099 901.102 864.625 820.251 879.386C738.939 894.313 653.934 893.979 574.652 870.129C501 848.03 436.577 807.083 382.953 756.88C352.127 728.026 327.022 695.92 300.256 664.064C282.259 642.715 257.431 614.027 225.866 609.107C171.688 600.601 140.215 672.987 120.372 706.261C94.0675 750.709 58.8105 821.761 -6.99648 823.095Z" fill="url(#paint40_linear_5492_334)"/>
<path d="M-7.00283 840.94C-7.00283 842.107 -7.00283 842.691 -7.00283 843.859C68.0337 843.942 105.044 757.213 131.533 706.676C148.608 674.153 179.066 593.094 233.428 603.935C265.362 610.273 289.544 642.63 306.619 665.063C331.815 698.087 354.428 732.028 383.224 762.8C434.541 817.423 498.594 862.956 574.461 885.722C651.62 908.822 734.41 906.487 812.677 889.558C892.328 872.379 962.842 833.768 1042.03 816.172C1107.65 801.662 1178.17 800.577 1241.58 823.594C1343.84 860.787 1398.76 949.268 1432.81 1039C1432.81 1037.83 1432.81 1037.25 1432.81 1036C1398.94 947.016 1344.12 859.787 1242.68 823.344C1179.37 800.577 1109.04 801.578 1043.6 815.838C964.503 833.017 893.805 870.961 814.246 887.807C735.61 904.402 652.728 906.404 575.384 883.387C499.24 860.704 434.725 815.672 382.67 761.299C353.597 730.944 330.708 697.336 305.419 664.562C288.252 642.296 264.07 610.607 232.32 604.352C178.143 593.678 147.593 672.985 130.333 705.509C103.752 755.378 67.0184 840.69 -7.00283 840.94Z" fill="url(#paint41_linear_5492_334)"/>
</g>
<defs>
<linearGradient id="paint0_linear_5492_334" x1="712.905" y1="-6.29363e-05" x2="712.905" y2="626.138" gradientUnits="userSpaceOnUse">
<stop stop-color="#428AEC"/>
<stop offset="1" stop-color="#01C1AE"/>
</linearGradient>
<linearGradient id="paint1_linear_5492_334" x1="712.905" y1="19.0136" x2="712.905" y2="614.354" gradientUnits="userSpaceOnUse">
<stop stop-color="#428AEC"/>
<stop offset="1" stop-color="#01C1AE"/>
</linearGradient>
<linearGradient id="paint2_linear_5492_334" x1="713" y1="42.5312" x2="713" y2="606.279" gradientUnits="userSpaceOnUse">
<stop stop-color="#428AEC"/>
<stop offset="1" stop-color="#01C1AE"/>
</linearGradient>
<linearGradient id="paint3_linear_5492_334" x1="712.905" y1="69.6327" x2="712.905" y2="601.052" gradientUnits="userSpaceOnUse">
<stop stop-color="#428AEC"/>
<stop offset="1" stop-color="#01C1AE"/>
</linearGradient>
<linearGradient id="paint4_linear_5492_334" x1="712.817" y1="99.7382" x2="712.817" y2="599.116" gradientUnits="userSpaceOnUse">
<stop stop-color="#428AEC"/>
<stop offset="1" stop-color="#01C1AE"/>
</linearGradient>
<linearGradient id="paint5_linear_5492_334" x1="712.905" y1="131.846" x2="712.905" y2="599.194" gradientUnits="userSpaceOnUse">
<stop stop-color="#428AEC"/>
<stop offset="1" stop-color="#01C1AE"/>
</linearGradient>
<linearGradient id="paint6_linear_5492_334" x1="712.865" y1="165.537" x2="712.865" y2="601.72" gradientUnits="userSpaceOnUse">
<stop stop-color="#428AEC"/>
<stop offset="1" stop-color="#01C1AE"/>
</linearGradient>
<linearGradient id="paint7_linear_5492_334" x1="712.905" y1="199.894" x2="712.905" y2="606.069" gradientUnits="userSpaceOnUse">
<stop stop-color="#428AEC"/>
<stop offset="1" stop-color="#01C1AE"/>
</linearGradient>
<linearGradient id="paint8_linear_5492_334" x1="712.905" y1="234.086" x2="712.905" y2="612.021" gradientUnits="userSpaceOnUse">
<stop stop-color="#428AEC"/>
<stop offset="1" stop-color="#01C1AE"/>
</linearGradient>
<linearGradient id="paint9_linear_5492_334" x1="712.865" y1="267.441" x2="712.865" y2="619.719" gradientUnits="userSpaceOnUse">
<stop stop-color="#428AEC"/>
<stop offset="1" stop-color="#01C1AE"/>
</linearGradient>
<linearGradient id="paint10_linear_5492_334" x1="712.905" y1="299.049" x2="712.905" y2="628.458" gradientUnits="userSpaceOnUse">
<stop stop-color="#428AEC"/>
<stop offset="1" stop-color="#01C1AE"/>
</linearGradient>
<linearGradient id="paint11_linear_5492_334" x1="712.865" y1="328.404" x2="712.865" y2="638.471" gradientUnits="userSpaceOnUse">
<stop stop-color="#428AEC"/>
<stop offset="1" stop-color="#01C1AE"/>
</linearGradient>
<linearGradient id="paint12_linear_5492_334" x1="712.905" y1="352.678" x2="712.905" y2="649.959" gradientUnits="userSpaceOnUse">
<stop stop-color="#428AEC"/>
<stop offset="1" stop-color="#01C1AE"/>
</linearGradient>
<linearGradient id="paint13_linear_5492_334" x1="712.865" y1="372.625" x2="712.865" y2="667.013" gradientUnits="userSpaceOnUse">
<stop stop-color="#428AEC"/>
<stop offset="1" stop-color="#01C1AE"/>
</linearGradient>
<linearGradient id="paint14_linear_5492_334" x1="712.905" y1="393.348" x2="712.905" y2="684.644" gradientUnits="userSpaceOnUse">
<stop stop-color="#428AEC"/>
<stop offset="1" stop-color="#01C1AE"/>
</linearGradient>
<linearGradient id="paint15_linear_5492_334" x1="712.905" y1="412.715" x2="712.905" y2="698.821" gradientUnits="userSpaceOnUse">
<stop stop-color="#428AEC"/>
<stop offset="1" stop-color="#01C1AE"/>
</linearGradient>
<linearGradient id="paint16_linear_5492_334" x1="712.905" y1="432.228" x2="712.905" y2="708.42" gradientUnits="userSpaceOnUse">
<stop stop-color="#428AEC"/>
<stop offset="1" stop-color="#01C1AE"/>
</linearGradient>
<linearGradient id="paint17_linear_5492_334" x1="712.905" y1="453.16" x2="712.905" y2="714.465" gradientUnits="userSpaceOnUse">
<stop stop-color="#428AEC"/>
<stop offset="1" stop-color="#01C1AE"/>
</linearGradient>
<linearGradient id="paint18_linear_5492_334" x1="712.905" y1="474.926" x2="712.905" y2="717.522" gradientUnits="userSpaceOnUse">
<stop stop-color="#428AEC"/>
<stop offset="1" stop-color="#01C1AE"/>
</linearGradient>
<linearGradient id="paint19_linear_5492_334" x1="712.905" y1="497.609" x2="712.905" y2="718.665" gradientUnits="userSpaceOnUse">
<stop stop-color="#428AEC"/>
<stop offset="1" stop-color="#01C1AE"/>
</linearGradient>
<linearGradient id="paint20_linear_5492_334" x1="712.905" y1="511.625" x2="712.905" y2="717.88" gradientUnits="userSpaceOnUse">
<stop stop-color="#428AEC"/>
<stop offset="1" stop-color="#01C1AE"/>
</linearGradient>
<linearGradient id="paint21_linear_5492_334" x1="712.865" y1="511.871" x2="712.865" y2="718.193" gradientUnits="userSpaceOnUse">
<stop stop-color="#428AEC"/>
<stop offset="1" stop-color="#01C1AE"/>
</linearGradient>
<linearGradient id="paint22_linear_5492_334" x1="712.905" y1="512.119" x2="712.905" y2="719.081" gradientUnits="userSpaceOnUse">
<stop stop-color="#428AEC"/>
<stop offset="1" stop-color="#01C1AE"/>
</linearGradient>
<linearGradient id="paint23_linear_5492_334" x1="712.905" y1="513.453" x2="712.905" y2="721.487" gradientUnits="userSpaceOnUse">
<stop stop-color="#428AEC"/>
<stop offset="1" stop-color="#01C1AE"/>
</linearGradient>
<linearGradient id="paint24_linear_5492_334" x1="712.905" y1="516.457" x2="712.905" y2="726.006" gradientUnits="userSpaceOnUse">
<stop stop-color="#428AEC"/>
<stop offset="1" stop-color="#01C1AE"/>
</linearGradient>
<linearGradient id="paint25_linear_5492_334" x1="712.905" y1="521.877" x2="712.905" y2="731.923" gradientUnits="userSpaceOnUse">
<stop stop-color="#428AEC"/>
<stop offset="1" stop-color="#01C1AE"/>
</linearGradient>
<linearGradient id="paint26_linear_5492_334" x1="712.905" y1="530.383" x2="712.905" y2="744.944" gradientUnits="userSpaceOnUse">
<stop stop-color="#428AEC"/>
<stop offset="1" stop-color="#01C1AE"/>
</linearGradient>
<linearGradient id="paint27_linear_5492_334" x1="712.905" y1="542.641" x2="712.905" y2="760.709" gradientUnits="userSpaceOnUse">
<stop stop-color="#428AEC"/>
<stop offset="1" stop-color="#01C1AE"/>
</linearGradient>
<linearGradient id="paint28_linear_5492_334" x1="712.865" y1="559.07" x2="712.865" y2="784.604" gradientUnits="userSpaceOnUse">
<stop stop-color="#428AEC"/>
<stop offset="1" stop-color="#01C1AE"/>
</linearGradient>
<linearGradient id="paint29_linear_5492_334" x1="712.905" y1="577.666" x2="712.905" y2="806.142" gradientUnits="userSpaceOnUse">
<stop stop-color="#428AEC"/>
<stop offset="1" stop-color="#01C1AE"/>
</linearGradient>
<linearGradient id="paint30_linear_5492_334" x1="712.905" y1="597.848" x2="712.905" y2="822.823" gradientUnits="userSpaceOnUse">
<stop stop-color="#428AEC"/>
<stop offset="1" stop-color="#01C1AE"/>
</linearGradient>
<linearGradient id="paint31_linear_5492_334" x1="712.905" y1="619.531" x2="712.905" y2="835.524" gradientUnits="userSpaceOnUse">
<stop stop-color="#428AEC"/>
<stop offset="1" stop-color="#01C1AE"/>
</linearGradient>
<linearGradient id="paint32_linear_5492_334" x1="712.905" y1="642.131" x2="712.905" y2="845.1" gradientUnits="userSpaceOnUse">
<stop stop-color="#428AEC"/>
<stop offset="1" stop-color="#01C1AE"/>
</linearGradient>
<linearGradient id="paint33_linear_5492_334" x1="712.952" y1="665.48" x2="712.952" y2="852.881" gradientUnits="userSpaceOnUse">
<stop stop-color="#428AEC"/>
<stop offset="1" stop-color="#01C1AE"/>
</linearGradient>
<linearGradient id="paint34_linear_5492_334" x1="712.905" y1="677.098" x2="712.905" y2="858.306" gradientUnits="userSpaceOnUse">
<stop stop-color="#428AEC"/>
<stop offset="1" stop-color="#01C1AE"/>
</linearGradient>
<linearGradient id="paint35_linear_5492_334" x1="712.952" y1="667.574" x2="712.952" y2="885.39" gradientUnits="userSpaceOnUse">
<stop stop-color="#428AEC"/>
<stop offset="1" stop-color="#01C1AE"/>
</linearGradient>
<linearGradient id="paint36_linear_5492_334" x1="712.905" y1="654.068" x2="712.905" y2="915.994" gradientUnits="userSpaceOnUse">
<stop stop-color="#428AEC"/>
<stop offset="1" stop-color="#01C1AE"/>
</linearGradient>
<linearGradient id="paint37_linear_5492_334" x1="712.905" y1="639.834" x2="712.905" y2="945.434" gradientUnits="userSpaceOnUse">
<stop stop-color="#428AEC"/>
<stop offset="1" stop-color="#01C1AE"/>
</linearGradient>
<linearGradient id="paint38_linear_5492_334" x1="712.905" y1="626.998" x2="712.905" y2="973.036" gradientUnits="userSpaceOnUse">
<stop stop-color="#428AEC"/>
<stop offset="1" stop-color="#01C1AE"/>
</linearGradient>
<linearGradient id="paint39_linear_5492_334" x1="712.905" y1="615.658" x2="712.905" y2="998.305" gradientUnits="userSpaceOnUse">
<stop stop-color="#428AEC"/>
<stop offset="1" stop-color="#01C1AE"/>
</linearGradient>
<linearGradient id="paint40_linear_5492_334" x1="712.865" y1="607.281" x2="712.865" y2="1020.49" gradientUnits="userSpaceOnUse">
<stop stop-color="#428AEC"/>
<stop offset="1" stop-color="#01C1AE"/>
</linearGradient>
<linearGradient id="paint41_linear_5492_334" x1="712.905" y1="602.945" x2="712.905" y2="1039" gradientUnits="userSpaceOnUse">
<stop stop-color="#428AEC"/>
<stop offset="1" stop-color="#01C1AE"/>
</linearGradient>
</defs>
</svg>
