<svg width="1438" height="1039" viewBox="0 0 1438 1039" fill="none" xmlns="http://www.w3.org/2000/svg">
<g opacity="0.1">
<path d="M1440 669.067C1440 667.899 1440 667.315 1440 666.231C1336.45 656.808 1216.65 653.389 1133.95 720.77C1089.74 756.796 1070.63 809.084 1029.56 846.695C1013.87 861.122 994.768 870.795 972.432 873.631C929.514 879.135 897.949 849.447 871.553 822.677C783.133 732.863 721.572 623.2 642.567 526.964C608.786 485.851 518.06 368.683 453.176 435.064C409.704 479.596 401.213 554.901 392.63 610.608C387.092 646.467 382.938 682.326 375.093 717.935C359.865 787.068 333.56 855.951 284.92 912.075C214.591 993.134 110.573 1026.41 0.187501 1036C0.1875 1037.25 0.1875 1037.83 0.1875 1039C110.943 1029.33 215.329 996.136 286.028 914.91C335.037 858.62 361.434 789.403 376.57 719.936C384.415 683.994 388.476 647.718 393.737 611.441C401.951 555.067 409.889 478.846 453.176 433.313C517.506 365.681 608.694 484.016 642.198 524.962C721.387 621.949 782.856 732.279 871.091 823.094C897.119 849.947 928.315 879.969 971.232 874.715C993.475 871.963 1012.4 862.456 1027.99 848.112C1068.79 810.502 1087.34 758.298 1131.46 722.438C1214.52 654.723 1336.08 659.226 1440 669.067Z" fill="url(#paint0_linear_5492_290)"/>
<path d="M1440 654.389C1440 653.472 1440 653.055 1440 652.138C1337.65 644.716 1225.97 647.134 1146.32 713.849C1102.11 750.876 1079.5 804.247 1034.92 840.44C1017.56 854.534 995.968 864.708 972.34 866.626C934.037 869.795 903.764 845.11 878.66 821.843C787.656 737.616 726.002 629.455 647.458 536.221C611.832 493.94 522.213 381.275 455.206 445.488C410.166 488.686 400.106 562.656 389.584 618.03C383.677 648.969 377.862 679.824 369.925 710.346C353.496 774.226 328.207 837.605 283.813 890.226C214.406 972.535 111.127 1006.64 0.187501 1016.15C0.1875 1017.73 0.1875 1018.49 0.1875 1019.99C111.219 1010.4 214.775 976.288 284.274 893.895C328.853 841.024 354.05 777.311 370.202 713.182C377.955 682.243 383.585 650.97 389.215 619.781C399.367 563.657 409.058 488.77 454.006 444.571C520.644 379.024 610.909 492.606 646.443 534.97C725.264 628.954 787.102 737.783 878.198 823.011C903.118 846.361 933.114 871.296 971.509 868.294C994.952 866.459 1016.46 856.368 1033.62 842.275C1077.83 805.999 1099.8 752.46 1143.92 715.433C1223.85 648.051 1337.19 646.634 1440 654.389Z" fill="url(#paint1_linear_5492_290)"/>
<path d="M1440 643.047C1440 642.38 1440 642.046 1440 641.379C1338.38 635.709 1234.09 643.381 1156.37 709.095C1114.01 744.954 1087.89 794.323 1043.96 828.514C1025.31 843.025 1002.52 854.2 977.69 856.785C938.28 860.871 906.622 837.104 880.041 813.503C794.298 737.365 735.229 638.21 663.423 551.815C628.258 509.534 539.377 392.533 468.402 448.49C420.869 485.934 410.44 556.735 397.057 608.522C390.504 633.874 383.489 659.059 375.921 684.16C357.093 747.372 331.804 810.084 287.871 862.872C217.634 947.267 113.432 982.625 7.87373e-07 991.966C4.66591e-07 993.8 3.06201e-07 994.717 0 996.469C112.416 987.129 216.249 952.187 286.209 868.71C330.235 816.172 355.524 753.543 373.891 690.331C380.905 666.064 387.458 641.629 393.55 617.112C407.025 563.073 416.162 493.689 461.387 451.742C529.317 388.78 617.552 498.693 654.009 541.641C731.168 632.706 792.36 740.117 884.933 819.591C911.422 842.358 942.064 863.373 980.367 858.036C1004.73 854.617 1026.51 843.525 1044.6 828.765C1087.43 793.823 1112.9 744.871 1155.27 709.178C1233.26 643.798 1338.57 637.043 1440 643.047Z" fill="url(#paint2_linear_5492_290)"/>
<path d="M1440 634.459C1440 633.959 1440 633.709 1440 633.208C1346.14 629.289 1252.92 638.879 1178.34 695.003C1131.64 730.111 1100.82 778.98 1054.3 813.838C1034.36 828.766 1011.01 840.441 985.169 844.36C946.035 850.281 914.47 830.767 886.689 807.751C800.946 736.699 743.446 639.129 674.409 555.485C639.613 513.288 553.963 399.039 482.895 452.077C435.732 487.269 427.702 551.316 410.258 600.184C401.951 623.368 392.445 646.384 383.677 669.401C359.864 732.363 330.976 794.825 283.074 846.195C210.714 923.834 109.373 955.691 0.187501 964.28C0.187501 966.365 0.1875 967.366 0.1875 969.367C108.358 960.778 208.961 929.338 280.859 852.616C328.761 801.496 357.557 739.118 380.631 676.156C389.215 652.722 398.167 629.288 406.105 605.688C422.903 555.902 431.394 494.024 475.05 455.747C543.349 395.787 628.722 503.031 664.81 545.895C735.693 629.956 793.378 726.359 876.814 801.163C903.579 825.097 936.529 850.448 976.585 847.529C1002.15 845.695 1026.89 834.437 1046.82 820.51C1093.25 788.07 1122.78 739.535 1166.07 703.926C1242.49 641.297 1340.32 630.039 1440 634.459Z" fill="url(#paint3_linear_5492_290)"/>
<path d="M1440 628.121C1440 627.704 1440 627.537 1440 627.203C1349.18 624.451 1262.61 637.127 1189.88 689.248C1142.07 723.523 1106.81 770.64 1057.25 802.747C1035.56 816.757 1010.08 828.182 983.318 831.184C943.723 835.604 911.604 815.256 883.823 791.822C801.68 722.522 746.948 628.704 680.403 547.896C648.284 508.784 576.478 412.131 509.379 447.991C459.908 474.426 452.709 535.387 432.681 578.251C422.436 600.267 409.607 621.532 399.178 643.465C370.012 704.509 339.37 765.47 290.268 815.923C214.77 893.479 111.861 925.502 0.367188 933.758C0.367188 936.009 0.367188 937.093 0.367188 939.262C111.584 930.922 214.309 898.816 289.161 821.093C337.985 770.39 368.258 709.179 396.409 647.635C406.561 625.369 418.837 603.686 428.712 581.42C448.187 537.472 455.755 475.761 505.318 448.241C572.509 410.88 645.7 508.618 678.003 547.729C745.379 629.205 800.665 723.773 883.454 793.824C911.235 817.341 943.446 838.106 983.226 833.686C1009.9 830.684 1035.19 819.259 1056.6 805.082C1105.79 772.475 1140.22 724.941 1187.85 690.416C1260.76 637.461 1348.44 625.202 1440 628.121Z" fill="url(#paint4_linear_5492_290)"/>
<path d="M1440 623.45C1440 623.2 1440 623.033 1440 622.783C1351.86 621.031 1270.92 636.542 1199.39 684.744C1149.82 718.185 1109.77 763.301 1056.24 792.071C1035.56 803.246 1012.58 812.002 988.584 815.338C949.45 820.842 918.347 804.997 889.643 782.064C809.068 717.601 757.29 625.618 695.268 547.478C664.81 509.2 597.619 414.048 531.627 446.405C484.002 469.755 478.926 524.545 455.206 562.823C442.377 583.421 426.318 602.434 413.858 623.45C380.908 679.073 348.512 735.113 300.887 782.064C221.144 860.371 115.557 893.228 0.187501 901.317C0.187501 903.652 0.1875 904.819 0.1875 907.154C115.096 899.065 220.498 866.208 299.411 787.485C346.666 740.367 378.601 684.077 410.535 627.953C422.626 606.687 438.131 587.173 450.499 566.325C473.85 527.047 479.111 471.34 526.92 446.989C593.188 413.215 661.672 509.034 692.499 547.561C755.537 626.368 807.961 719.102 889.274 784.316C918.07 807.416 949.266 823.594 988.584 818.007C1012.4 814.588 1035.19 805.748 1055.68 794.49C1108.75 765.302 1147.98 719.602 1197.26 685.828C1269.16 636.626 1351.12 621.532 1440 623.45Z" fill="url(#paint5_linear_5492_290)"/>
<path d="M1440 619.78C1440 619.53 1440 619.446 1440 619.196C1355.64 618.279 1279.96 635.708 1210 678.989C1161.54 709.011 1119.27 747.372 1067.77 773.307C1012.3 801.161 953.413 812.002 900.343 774.058C821.43 717.684 772.79 627.619 717.505 553.482C688.616 514.787 629.454 420.97 563.463 439.733C549.803 443.569 538.635 453.076 529.59 462.666C521.007 472.257 513.531 482.514 507.255 493.439C498.856 508.033 491.472 523.043 485.196 538.471C470.152 557.568 450.216 573.58 435.356 593.511C396.038 646.549 361.243 701.839 311.587 747.956C227.229 826.346 119.058 859.62 0.273439 867.459C0.273438 869.877 0.273438 871.044 0.273438 873.463C118.597 865.624 226.398 832.35 309.926 753.793C359.212 707.426 393.454 652.053 431.757 598.431C446.155 578.25 465.445 561.738 480.12 542.391C486.396 526.546 493.687 511.201 502.086 496.191C508.362 484.933 515.746 474.425 524.422 464.501C533.467 454.661 544.727 444.82 558.479 440.651C625.024 420.636 685.386 515.204 714.643 554.066C770.944 628.786 820.23 719.685 899.973 776.81C953.136 814.837 1011.65 804.497 1067.03 775.893C1118.16 749.457 1159.69 710.512 1207.78 680.157C1278.2 635.875 1354.81 618.696 1440 619.78Z" fill="url(#paint6_linear_5492_290)"/>
<path d="M1440 616.612C1440 616.362 1440 616.278 1440 616.028C1359.61 615.778 1288.45 634.708 1220.25 672.819C1169.39 701.173 1122.69 736.365 1068.14 759.215C1009.9 783.566 949.543 793.823 896.657 754.294C822.821 699.171 778.703 613.276 727.756 541.808C701.267 504.698 647.828 416.634 584.974 435.564C548.702 446.489 537.165 483.015 518.06 508.45C502.738 528.798 476.25 543.475 458.436 562.906C412.75 612.942 374.724 667.815 322.946 713.265C233.696 791.488 122.756 825.429 0.187501 833.101C0.187501 835.52 0.1875 836.687 0.1875 839.105C122.295 831.433 232.773 797.492 321.285 719.019C372.694 673.403 409.981 618.279 454.745 567.826C472.096 548.229 498.031 532.885 512.891 512.286C531.812 486.101 543.349 448.574 579.898 436.815C643.213 416.467 697.852 505.198 724.802 542.475C776.857 614.61 821.713 701.256 896.38 757.13C949.358 796.825 1009.35 786.985 1067.59 761.883C1121.77 738.616 1167.73 702.757 1218.22 673.986C1286.79 634.958 1358.78 616.278 1440 616.612Z" fill="url(#paint7_linear_5492_290)"/>
<path d="M1440 613.359C1440 613.109 1440 613.026 1440 612.776C1363.95 613.276 1296.48 633.207 1230.31 666.064C1176.59 692.667 1125.46 724.273 1067.87 744.12C1007.6 764.885 945.574 774.893 893.15 733.946C829.558 684.16 791.255 609.44 748.984 545.227C724.249 507.7 678.378 420.97 617.462 427.308C585.713 430.644 567.622 458.914 551.194 480.013C534.488 501.445 503.385 512.87 482.249 531.8C430.194 578.251 388.753 633.29 334.668 678.239C240.341 756.462 126.725 791.404 0.187501 798.993C0.187501 801.328 0.1875 802.579 0.1875 804.914C126.264 797.242 239.418 762.383 332.914 683.91C386.538 638.878 427.333 583.838 478.465 536.721C499.324 517.457 529.873 505.365 546.118 483.682C562.362 462 580.452 432.479 612.571 428.392C674.132 420.637 721.295 508.367 746.307 545.894C789.594 610.774 828.635 686.245 892.965 736.698C945.482 777.895 1007.04 768.304 1067.4 746.872C1124.54 726.608 1175.02 694.334 1228.28 667.315C1294.91 633.541 1363.03 613.693 1440 613.359Z" fill="url(#paint8_linear_5492_290)"/>
<path d="M1440 609.442C1440 609.108 1440 608.941 1440 608.608C1302.57 611.026 1196.98 690.584 1070.54 726.776C1010.91 743.872 946.029 755.881 894.436 716.269C834.997 670.653 800.848 599.935 763.929 539.558C740.855 501.781 702.46 421.056 644.591 419.304C615.333 418.47 596.782 440.069 579.153 457.665C559.494 477.18 525.898 485.102 502.547 502.615C445.232 545.729 400.099 600.685 343.799 644.884C245.227 722.356 129.765 758.049 0.273439 765.804C0.273438 768.056 0.273438 769.224 0.273438 771.559C129.211 763.803 244.396 728.277 342.23 650.638C398.161 606.273 442.647 551.316 499.04 507.618C521.93 489.855 555.341 481.349 574.354 461.502C591.705 443.322 610.257 420.472 639.884 420.639C698.307 420.972 737.994 502.781 761.345 540.475C799.186 601.519 834.074 672.988 894.251 719.354C945.937 759.216 1010.36 747.458 1070.07 729.779C1197.07 692.335 1301.09 611.527 1440 609.442Z" fill="url(#paint9_linear_5492_290)"/>
<path d="M1440 604.354C1440 603.937 1440 603.686 1440 603.269C1308.3 607.856 1195.23 681.076 1069.8 709.846C1009.17 723.773 942.251 735.865 891.212 695.252C836.203 651.554 806.207 584.506 773.442 526.964C752.03 489.27 718.803 414.883 663.056 410.714C631.676 408.379 618.847 430.395 595.496 443.154C586.082 448.324 569.192 449.325 558.578 453.578C541.687 460.333 526.182 469.589 511.599 479.68C448.838 522.878 398.721 579.252 336.883 623.534C238.034 694.252 125.156 726.942 0.187501 734.614C0.187501 736.699 0.1875 737.783 0.1875 739.951C124.787 732.362 237.388 699.839 335.775 629.038C397.337 584.756 446.899 528.465 508.83 484.767C523.228 474.593 538.549 465.17 555.163 458.248C565.5 453.911 582.39 452.661 591.527 447.407C614.878 434.064 626.969 410.797 658.995 412.215C715.296 414.8 749.63 490.438 771.227 527.798C804.823 586.09 835.557 653.806 891.119 698.255C942.251 739.117 1008.61 727.359 1069.43 712.932C1195.05 683.16 1307.19 608.44 1440 604.354Z" fill="url(#paint10_linear_5492_290)"/>
<path d="M1440 597.431C1440 596.847 1440 596.597 1440 596.013C1379.27 598.432 1320.29 619.614 1263.71 637.96C1201.04 658.308 1138.19 678.906 1072.84 691.249C1013.22 702.507 942.799 716.016 892.036 677.489C840.35 638.21 813.677 575.332 785.434 521.709C764.575 482.181 737.164 414.882 684.093 402.207C655.297 395.368 640.253 411.13 615.61 419.052C603.058 423.138 588.475 423.138 575.554 427.391C557.556 433.229 540.758 441.735 524.975 451.409C458.43 491.938 405.545 548.646 342.23 592.928C241.073 663.645 127.18 697.503 0.273438 705.759C0.273438 707.677 0.273438 708.678 0.273438 710.596C126.903 702.507 240.704 668.816 341.491 598.181C404.622 553.899 457.046 497.275 522.945 456.329C538.543 446.655 555.156 437.982 572.969 431.978C585.614 427.642 600.289 427.558 612.564 423.305C637.207 414.799 651.421 397.536 680.863 403.708C734.395 414.882 762.73 483.432 783.681 522.627C812.662 576.916 839.889 640.545 892.128 680.658C942.891 719.602 1012.67 706.259 1072.47 694.584C1137.45 681.909 1199.66 660.727 1261.87 640.045C1318.81 620.865 1378.34 599.432 1440 597.431Z" fill="url(#paint11_linear_5492_290)"/>
<path d="M1440 588.175C1440 587.424 1440 587.007 1440 586.257C1384.07 591.51 1329.34 610.774 1275.9 625.785C1210.37 644.215 1144.29 661.561 1076.45 672.069C1017.2 681.242 944.097 695.585 892.596 659.726C843.402 625.451 819.406 566.242 794.855 516.79C774.088 474.926 750.461 414.716 700.344 394.368C674.87 384.027 655.211 391.116 629.738 395.786C594.388 402.374 565.223 406.877 533.473 424.39C464.067 462.667 409.15 519.959 344.913 564.574C242.556 635.625 128.479 671.068 0.187501 680.157C0.187501 681.825 0.187501 682.659 0.1875 684.411C128.294 675.487 242.372 640.295 344.636 569.328C408.781 524.795 463.42 467.671 532.458 428.976C563.931 411.297 592.912 407.127 627.799 399.789C652.996 394.451 671.917 385.862 697.944 395.619C748.615 414.716 772.796 476.094 793.47 517.54C818.575 567.66 843.033 627.703 892.596 662.812C944.005 699.088 1016.55 684.994 1075.9 675.488C1143.27 664.646 1208.8 646.8 1273.87 628.037C1327.68 612.442 1383.24 592.761 1440 588.175Z" fill="url(#paint12_linear_5492_290)"/>
<path d="M1440 575.998C1440 574.997 1440 574.497 1440 573.496C1319.37 597.847 1204.09 636.375 1081.06 652.47C1021.9 660.225 945.752 675.319 892.867 642.295C845.519 612.691 822.999 558.318 801.125 512.535C780.081 468.503 757.93 414.214 710.49 387.612C659.174 358.841 585.245 374.018 536.143 399.203C464.798 435.73 408.775 493.855 344.537 539.138C242.365 611.023 129.026 648.383 0.273439 658.724C0.273439 660.058 0.273438 660.809 0.273438 662.226C129.026 652.219 242.55 615.192 344.906 543.474C409.329 498.358 465.168 440.4 536.235 403.623C583.86 379.022 658.712 361.76 709.29 388.862C757.192 414.464 779.435 469.671 800.386 513.369C822.629 559.819 845.334 615.026 892.959 645.464C945.475 678.989 1021.16 664.061 1080.23 656.055C1149.91 646.715 1218.58 631.621 1286.42 614.525C1337.27 601.6 1387.94 585.171 1440 575.998Z" fill="url(#paint13_linear_5492_290)"/>
<path d="M1440 560.654C1440 559.57 1440 559.07 1440 558.069C1327.4 596.096 1203.91 617.612 1085.13 631.705C1024.86 638.877 949.174 654.388 894.442 622.699C847.74 595.679 824.666 545.143 802.608 501.445C780.088 456.662 756.921 405.876 710.773 376.605C656.411 342.163 586.635 351.503 531.35 378.856C458.898 414.715 402.044 472.757 337.713 518.54C237.48 589.758 127.094 629.203 0.187501 641.129C0.187501 642.38 0.1875 642.963 0.1875 644.131C127.833 632.456 239.049 593.344 339.744 521.542C403.982 475.759 460.467 417.384 532.735 381.525C587.651 354.255 657.888 345.165 711.789 379.44C757.937 408.794 780.641 459.998 802.792 504.864C824.389 548.645 847.187 599.599 893.796 626.618C948.25 658.141 1024.58 642.63 1084.57 635.458C1204.09 621.198 1326.57 598.098 1440 560.654Z" fill="url(#paint14_linear_5492_290)"/>
<path d="M1440 547.562C1440 546.811 1440 546.394 1440 545.727C1394.78 561.906 1345.12 569.995 1297.68 578.668C1228.55 591.344 1158.69 601.434 1088.63 608.856C1026.79 615.444 954.527 630.372 898.226 598.849C851.155 572.496 825.22 524.629 800.208 482.014C774.734 438.566 748.799 390.365 702.19 362.095C645.705 327.82 577.867 337.577 520.644 365.097C447.822 400.122 389.584 456.329 324.884 501.612C227.881 569.494 122.295 609.69 0.187501 622.949C0.1875 624.284 0.1875 624.951 0.1875 626.285C123.218 613.192 229.727 573.08 327.376 504.531C392.076 459.081 450.13 402.457 522.951 367.265C579.898 339.745 648.012 329.988 704.128 364.346C750.645 392.867 775.934 441.569 800.854 485.35C825.312 528.215 850.694 576.583 897.58 603.185C953.604 634.875 1026.33 619.781 1087.99 613.026C1158.22 605.354 1228.18 594.763 1297.41 581.586C1345.03 572.497 1394.59 563.74 1440 547.562Z" fill="url(#paint15_linear_5492_290)"/>
<path d="M1440 538.472C1440 537.972 1440 537.722 1440 537.222C1395.89 552.316 1345.95 556.902 1299.62 563.074C1231.05 572.163 1162.01 579.168 1092.97 584.839C1029.84 590.093 960.064 603.77 902.01 573.748C854.201 548.98 824.39 504.531 795.686 463.752C766.612 422.305 736.893 377.523 689.361 351.254C630.753 318.897 564.577 327.904 505.692 355.007C433.24 388.364 374.263 441.986 309.84 485.934C216.621 549.48 116.48 589.426 0.187501 603.186C0.1875 604.603 0.1875 605.354 0.1875 606.771C117.588 593.095 218.652 553.066 312.609 488.603C377.124 444.404 436.009 390.282 508.553 356.591C567.161 329.405 633.614 320.148 691.853 352.922C739.2 379.608 768.181 425.057 796.608 466.921C824.574 508.117 853.647 553.233 901.364 578.334C959.049 608.69 1029.19 594.763 1092.14 589.259C1161.36 583.171 1230.49 575.666 1299.25 565.826C1345.77 559.154 1395.7 553.817 1440 538.472Z" fill="url(#paint16_linear_5492_290)"/>
<path d="M1440 532.552C1440 532.218 1440 532.051 1440 531.801C1396.62 544.644 1346.97 545.311 1301.84 548.396C1233.91 553.15 1165.88 556.402 1097.86 559.821C1033.62 563.074 965.418 574.915 905.702 547.646C856.601 525.213 822.359 484.767 789.317 446.489C755.906 407.878 721.757 367.015 672.932 343.332C612.478 314.06 547.317 321.649 487.233 347.751C415.703 378.774 356.542 429.06 292.95 471.09C203.977 529.799 109.835 568.577 0.187501 582.087C0.1875 583.588 0.1875 584.339 0.1875 585.84C111.035 572.163 206.284 533.219 295.996 473.592C359.772 431.228 418.934 380.358 490.648 348.836C550.548 322.483 615.893 314.644 675.978 344.499C724.618 368.6 757.937 410.213 790.517 449.408C822.821 488.186 856.232 529.383 905.056 552.316C964.587 580.169 1032.98 567.91 1097.03 564.325C1165.24 560.488 1233.44 556.569 1301.47 550.982C1346.78 547.229 1396.53 545.895 1440 532.552Z" fill="url(#paint17_linear_5492_290)"/>
<path d="M1440 529.216C1440 529.049 1440 528.966 1440 528.799C1396.72 538.139 1348.45 534.72 1304.33 534.553C1237.32 534.386 1170.31 533.469 1103.31 534.136C1038.33 534.803 970.771 544.727 909.394 520.793C858.631 501.112 819.682 465.003 781.564 429.978C743.354 394.785 704.405 358.342 653.734 337.828C591.712 312.643 527.105 318.314 465.912 342.831C395.86 371.018 336.791 417.468 274.491 456.997C190.502 510.369 102.544 547.229 0.187501 560.155C0.1875 561.739 0.1875 562.49 0.1875 564.074C103.836 550.981 192.901 513.705 277.906 459.499C340.482 419.553 399.552 372.353 469.881 343.665C530.796 318.814 595.588 312.81 657.334 338.745C707.635 359.844 745.661 397.12 783.041 432.896C820.144 468.505 858.354 505.449 908.748 525.63C969.94 550.148 1037.5 539.89 1102.38 538.723C1169.58 537.555 1236.77 537.639 1303.96 536.972C1348.17 536.471 1396.62 539.14 1440 529.216Z" fill="url(#paint18_linear_5492_290)"/>
<path d="M1440 527.631C1440 527.548 1440 527.548 1440 527.464C1396.81 532.885 1349.92 524.796 1306.91 521.126C1241.01 515.539 1175.02 510.202 1108.94 507.867C1043.5 505.615 975.755 513.454 912.901 493.44C860.2 476.594 816.175 445.238 772.888 414.132C729.509 382.943 685.577 351.337 632.876 333.991C569.838 313.226 504.861 316.979 443.115 339.578C374.816 364.68 316.209 406.877 255.293 443.487C176.38 490.938 94.8831 525.546 0.187501 537.388C0.1875 538.972 0.1875 539.806 0.1875 541.391C96.2675 529.299 178.872 494.357 258.708 445.822C319.9 408.712 378.508 365.681 447.176 340.079C508.83 317.062 573.714 312.976 636.66 334.575C688.899 352.504 732.001 384.945 774.457 416.884C816.729 448.657 859.923 480.93 912.255 498.276C974.924 519.041 1042.48 510.785 1107.92 512.537C1174.19 514.288 1240.37 518.875 1306.45 523.461C1349.65 526.547 1396.81 533.719 1440 527.631Z" fill="url(#paint19_linear_5492_290)"/>
<path d="M1440 527.215C1396.81 528.132 1351.58 515.457 1309.5 508.118C1244.89 496.86 1180.01 486.853 1114.48 481.349C1048.58 475.761 980.462 481.932 916.132 465.754C861.031 451.827 812.022 425.225 763.566 398.539C656.503 339.663 544.733 296.131 419.211 337.328C352.85 359.094 294.888 396.871 235.542 430.395C161.982 471.925 86.9456 503.865 0.187502 514.456C0.187502 516.124 0.187502 516.874 0.187502 518.542C88.33 507.701 164.474 475.344 239.049 432.73C298.672 398.622 356.726 360.094 423.456 337.745C549.256 295.631 659.549 340.247 765.228 401.374C812.76 428.811 860.939 456.33 915.578 470.758C979.631 487.603 1047.65 481.182 1113.46 486.185C1179.08 491.106 1244.15 500.279 1308.94 510.536C1351.31 517.124 1396.81 528.883 1440 527.215Z" fill="url(#paint20_linear_5492_290)"/>
<path d="M1440 527.129C1396.71 523.293 1353.33 506.197 1311.98 495.106C1248.94 478.261 1184.98 463.5 1119.91 454.66C1053.37 445.654 985.162 450.49 919.356 437.898C861.578 426.89 807.77 404.958 754.238 383.025C640.437 336.241 520.268 299.298 395.392 335.24C255.841 375.353 149.885 473.674 0.273444 491.186C0.273443 492.854 0.273443 493.605 0.273443 495.273C80.4785 485.849 150.254 456.244 219.292 419.551C277.53 388.612 334.938 354.671 399.545 335.574C524.422 298.798 643.114 336.908 755.9 385.777C808.508 408.627 861.486 431.31 918.802 442.818C984.332 455.994 1052.54 450.991 1118.99 459.33C1184.15 467.586 1248.21 481.513 1311.61 497.358C1353.05 507.865 1396.71 524.127 1440 527.129Z" fill="url(#paint21_linear_5492_290)"/>
<path d="M1440 526.881C1440 526.798 1440 526.798 1440 526.714C1396.72 518.208 1355.09 496.859 1314.2 482.099C1252.73 459.833 1189.79 440.319 1124.81 428.227C1057.44 415.634 989.691 419.554 922.039 410.297C861.4 401.958 803.069 384.778 744.923 367.433C625.492 331.823 497.293 301.885 372.232 332.824C241.633 365.097 137.062 452.911 0.18751 468.172C0.18751 469.756 0.18751 470.59 0.18751 472.175C139.277 456.58 244.125 366.849 376.201 333.241C501.169 301.468 628.076 332.657 746.584 370.185C803.9 388.281 861.492 406.294 921.669 415.134C988.953 424.974 1056.79 420.888 1124.07 432.813C1189.05 444.405 1252.18 463.002 1313.93 484.35C1354.81 498.527 1396.72 519.126 1440 526.881Z" fill="url(#paint22_linear_5492_290)"/>
<path d="M1440 525.547C1440 525.38 1440 525.297 1440 525.13C1396.72 512.371 1356.57 487.019 1316.05 468.589C1256.15 441.32 1194.13 417.302 1129.06 401.958C1060.85 385.946 993.845 389.282 924.438 382.944C860.846 377.107 798.547 364.181 736.339 351.421C611.924 325.819 477.542 302.803 350.727 329.239C228.62 354.84 125.802 432.063 0.187514 445.656C0.187514 447.24 0.187514 447.991 0.187513 449.575C127.74 435.732 230.835 356.675 354.419 330.072C480.864 302.803 614.232 327.154 737.816 354.34C799.377 367.933 861.031 381.526 924.069 387.781C993.106 394.619 1060.3 391.2 1128.32 406.628C1193.3 421.389 1255.5 444.655 1315.68 471.091C1356.38 488.854 1396.72 513.538 1440 525.547Z" fill="url(#paint23_linear_5492_290)"/>
<path d="M1440 522.543C1440 522.293 1440 522.126 1440 521.793C1396.53 505.698 1357.67 476.427 1317.53 454.661C1259.1 422.971 1197.82 394.618 1132.57 376.438C1063.71 357.341 997.444 360.343 926.653 356.256C860.385 352.504 794.578 343.581 728.956 334.908C599.926 317.895 461.482 301.383 331.991 324.066C272.553 334.491 216.344 354.922 160.875 376.271C109.466 396.118 56.5803 418.801 0.187517 423.722C0.187517 425.223 0.187517 425.973 0.187517 427.474C57.6878 422.554 111.404 399.371 163.736 378.773C219.206 356.924 275.414 335.825 335.037 325.067C463.974 301.717 601.864 319.396 730.155 337.743C795.316 347.083 860.477 356.673 926.284 360.76C996.89 365.18 1063.25 362.094 1132.01 380.691C1197.26 398.37 1258.64 425.974 1317.34 456.996C1357.49 478.345 1396.62 506.949 1440 522.543Z" fill="url(#paint24_linear_5492_290)"/>
<path d="M1440 517.123C1440 516.623 1440 516.373 1440 515.872C1396.07 498.36 1357.77 464.252 1318.45 439.818C1261.32 404.375 1200.68 372.185 1134.97 351.587C1066.02 329.988 999.936 332.657 928.222 330.322C859.647 328.153 791.163 322.566 722.772 317.479C654.381 312.392 585.989 307.722 517.321 307.222C450.96 306.805 381.923 306.638 316.393 316.395C257.508 325.235 201.023 342.33 145.461 361.344C98.4826 377.356 50.5811 397.62 0.18752 402.957C0.18752 404.375 0.18752 405.126 0.187519 406.543C51.5963 401.373 100.329 380.691 148.045 364.096C203.608 344.749 260 327.069 318.885 317.979C384.231 307.972 453.36 308.139 519.536 308.89C587.835 309.64 655.857 314.894 723.787 320.565C791.809 326.235 859.739 332.323 928.038 334.742C999.567 337.243 1065.74 334.575 1134.69 355.757C1200.31 375.938 1261.04 407.461 1318.36 442.319C1358.04 466.587 1396.25 499.11 1440 517.123Z" fill="url(#paint25_linear_5492_290)"/>
<path d="M1440 508.617C1440 507.867 1440 507.533 1440 506.783C1395.42 488.77 1357.21 450.492 1318.63 424.056C1262.43 385.612 1202.34 350.253 1136.07 327.82C1067.77 304.72 1001.04 306.805 929.422 305.554C859.093 304.303 788.856 301.468 718.619 299.133C582.482 294.713 440.439 287.791 305.225 305.804C246.248 313.643 188.748 328.32 132.355 345.499C88.9762 358.759 45.5048 376.438 0.187522 383.443C0.187522 384.778 0.187522 385.445 0.187521 386.779C46.3354 380.191 90.5452 362.011 134.478 348.335C190.686 330.822 247.91 315.811 306.794 307.889C441.546 289.626 583.497 297.131 719.08 302.385C789.133 305.137 859.093 308.389 929.145 309.724C1000.86 311.141 1067.4 308.973 1135.89 331.823C1202.06 354.006 1262.24 388.864 1318.63 426.808C1357.4 452.994 1395.52 490.604 1440 508.617Z" fill="url(#paint26_linear_5492_290)"/>
<path d="M1440 496.36C1440 495.359 1440 494.859 1440 493.774C1394.59 477.262 1355.55 434.398 1318.08 407.129C1262.52 366.516 1202.71 328.739 1135.7 305.305C1068.7 281.871 1000.67 283.122 930.068 281.955C858.908 280.787 787.748 279.786 716.68 279.453C578.698 278.786 436.101 273.782 299.134 291.378C194.932 304.804 100.144 338.662 0.187523 365.515C0.187523 366.682 0.187523 367.35 0.187522 368.517C101.067 344.083 195.209 307.64 299.78 294.214C436.47 276.618 579.067 281.788 716.773 282.955C787.84 283.623 858.908 284.79 929.976 285.958C1000.86 287.042 1068.6 285.624 1135.89 309.141C1202.8 332.491 1262.61 369.935 1318.26 410.214C1355.92 437.4 1394.78 479.431 1440 496.36Z" fill="url(#paint27_linear_5492_290)"/>
<path d="M1440 479.93C1440 478.679 1440 478.095 1440 476.761C1393.66 458.915 1354.16 420.637 1314.57 393.367C1258.54 354.673 1199.38 318.647 1134.22 293.712C1068.04 268.444 1002.14 263.44 931.354 260.021C861.117 256.602 790.787 254.851 720.55 254.517C581.553 253.933 438.771 254.6 301.619 277.033C240.889 286.957 181.266 301.134 122.196 316.979C82.2322 327.736 41.7143 342.414 0.273461 347.751C0.27346 349.085 0.27346 349.752 0.27346 351.087C41.5297 343.831 81.4938 329.404 121.642 318.563C180.527 302.552 240.243 288.708 300.881 279.202C437.94 257.853 580.722 258.437 719.535 258.854C790.049 259.02 860.563 260.521 930.985 263.44C1001.68 266.276 1068.23 269.945 1134.5 294.713C1200.21 319.314 1259.56 356.007 1315.49 395.285C1354.35 422.889 1393.76 462.417 1440 479.93Z" fill="url(#paint28_linear_5492_290)"/>
<path d="M1440 461.334C1440 460 1440 459.249 1440 457.915C1393.95 439.568 1353.24 408.63 1311.71 383.361C1255.41 349.087 1197.45 316.98 1135.61 291.545C1008.89 239.424 865.369 235.504 727.94 233.253C586.912 230.918 444.223 238.59 306.241 265.776C245.51 277.701 185.794 293.213 125.802 307.723C87.3148 317.063 40.7054 332.825 0.187524 326.57C0.187523 328.154 0.187523 328.988 0.187523 330.573C41.0746 334.826 86.3919 319.065 125.156 309.474C184.964 294.63 244.679 279.286 305.41 267.694C443.208 241.259 585.897 234.754 726.464 236.672C863.338 238.59 1008.61 240.091 1135.15 291.628C1197.63 317.063 1255.87 349.92 1312.17 385.113C1353.34 410.798 1393.85 442.988 1440 461.334Z" fill="url(#paint29_linear_5492_290)"/>
<path d="M1440 441.153C1440 439.652 1440 438.901 1440 437.483C1336.08 398.205 1241.47 338.495 1139.67 294.88C1110.05 282.204 1080.05 270.112 1049.68 258.771C1016.36 246.345 978.985 241.925 943.543 236.421C875.337 225.914 806.3 219.576 737.17 217.157C593.373 212.237 450.868 225.914 311.132 256.519C250.494 269.779 190.502 285.79 129.586 297.966C91.4681 305.638 37.475 319.648 0.187524 302.052C0.187524 303.887 0.187524 304.804 0.187524 306.555C37.9365 322.317 90.9144 307.639 128.848 299.717C189.579 287.041 249.479 271.113 310.209 258.02C449.576 227.915 592.173 215.239 735.416 219.659C804.638 221.828 873.676 227.665 942.067 237.506C977.508 242.593 1015.07 246.595 1048.48 258.521C1079.03 269.362 1109.12 281.287 1138.75 293.88C1197.45 318.898 1254.3 347.251 1310.42 376.773C1352.78 398.955 1394.78 423.723 1440 441.153Z" fill="url(#paint30_linear_5492_290)"/>
<path d="M1440 419.469C1440 417.885 1440 417.134 1440 415.549C1341.34 382.109 1244.34 345.165 1149.27 303.969C1085.96 276.532 1027.53 249.596 958.957 234.419C892.412 219.658 824.39 210.235 755.998 205.898C610.263 196.725 468.22 214.321 327.192 246.594C266.646 260.437 206.284 276.282 144.815 286.206C100.975 293.294 37.6596 304.219 0.187525 275.031C0.187525 277.033 0.187525 277.95 0.187524 279.951C38.0288 307.471 100.975 295.212 144.077 287.874C205.454 277.366 265.723 261.521 326.269 247.762C466.928 215.905 608.879 199.143 754.06 207.649C822.451 211.652 890.473 220.575 957.203 234.585C992.645 242.008 1028.36 249.513 1061.13 264.107C1090.11 276.949 1119.09 289.709 1148.16 302.384C1243.97 343.998 1340.6 385.111 1440 419.469Z" fill="url(#paint31_linear_5492_290)"/>
<path d="M1440 396.869C1440 395.285 1440 394.451 1440 392.783C1398.47 380.858 1355.18 374.687 1313 365.18C1260.4 353.421 1209.26 337.41 1160.16 316.645C1097.68 290.292 1041.84 257.102 975.939 237.588C905.887 216.823 833.25 203.396 759.875 197.225C612.109 184.966 471.45 208.15 329.038 241.507C269.23 255.517 208.961 270.528 147.399 276.866C98.298 281.953 35.1676 283.871 0.187526 246.01C0.187526 248.095 0.187526 249.179 0.187525 251.181C35.4445 287.54 98.6672 283.954 146.569 278.534C207.945 271.529 268.215 256.351 327.93 242.424C469.881 209.234 610.448 186.884 757.66 198.476C830.942 204.23 903.579 217.073 973.817 237.004C1040.08 255.767 1096.29 287.957 1158.78 314.476C1249.78 353.088 1345.4 368.766 1440 396.869Z" fill="url(#paint32_linear_5492_290)"/>
<path d="M1440 373.52C1440 371.852 1440 371.018 1440 369.35C1399.58 360.093 1357.49 363.012 1316.23 361.261C1262.61 359.009 1211.11 348.418 1162.28 327.987C1100.63 302.218 1048.02 264.691 984.614 241.508C916.684 216.656 845.247 199.978 772.518 191.889C699.42 183.716 625.214 184.383 552.115 192.889C475.694 201.812 402.042 221.493 327.559 238.672C234.618 260.021 66.5468 307.138 0.0937776 215.656C0.0937772 217.824 0.093777 218.908 0.0937767 221.076C66.916 309.723 235.54 260.438 326.544 239.423C474.125 205.315 616.815 176.461 770.21 192.722C842.755 200.395 914.192 216.49 982.306 240.424C1045.99 262.857 1099.06 299.383 1160.62 325.318C1209.91 346.083 1261.96 357.842 1316.05 361.928C1357.4 365.097 1399.58 363.846 1440 373.52Z" fill="url(#paint33_linear_5492_290)"/>
<path d="M1440 349.753C1440 348.085 1440 347.251 1440 345.583C1399.12 338.578 1359.24 350.42 1319.37 357.175C1270.64 365.43 1223.48 363.512 1177.14 346.333C1145.3 334.491 1116.32 317.229 1089.09 298.299C1059.84 277.951 1027.16 261.856 993.937 247.345C928.13 218.741 857.801 198.81 785.625 188.636C712.896 178.462 638.69 178.295 565.684 186.801C488.894 195.725 415.427 216.99 340.575 233.919C229.174 259.02 71.8091 291.293 0.187531 184.8C0.187531 186.968 0.18753 188.052 0.18753 190.304C72.1783 294.212 230.466 259.187 339.559 234.419C414.227 217.49 487.51 196.642 564.115 187.719C636.844 179.296 710.773 179.379 783.41 189.137C855.401 198.894 925.73 218.157 991.722 246.011C1024.95 260.021 1057.81 275.532 1087.16 295.547C1114.66 314.31 1143.83 331.406 1175.67 343.415C1222.09 360.927 1269.81 364.346 1319.28 357.842C1359.24 352.588 1399.39 342.414 1440 349.753Z" fill="url(#paint34_linear_5492_290)"/>
<path d="M1440 325.818C1440 324.15 1440 323.316 1440 321.648C1393.95 316.395 1353.98 340.329 1313.46 356.007C1269.44 373.102 1225.41 377.689 1180.1 361.01C1148.35 349.252 1121.49 330.071 1095.55 310.14C1067.31 288.458 1035.56 270.195 1003.17 253.849C939.573 221.66 870.444 198.559 798.73 186.467C720.463 173.291 639.981 173.208 561.253 183.966C485.847 194.306 414.133 217.24 340.112 232.918C216.712 259.02 68.3927 271.278 0.0937881 153.61C0.0937877 155.778 0.0937875 156.863 0.0937871 159.031C68.6696 274.531 218.004 259.02 339.004 233.251C412.841 217.49 484.462 194.89 559.684 184.716C638.135 174.042 718.34 173.958 796.422 186.801C867.952 198.559 937.081 220.992 1000.95 252.348C1033.35 268.276 1065.19 286.039 1093.52 307.388C1119.73 327.152 1146.78 346.083 1178.53 358.008C1223.75 374.937 1268.24 371.935 1313.19 356.424C1354.17 342.247 1394.5 320.231 1440 325.818Z" fill="url(#paint35_linear_5492_290)"/>
<path d="M1440 302.219C1440 300.551 1440 299.717 1440 298.133C1345.4 292.212 1296.94 408.713 1195.79 380.526C1166.25 372.27 1140.5 354.507 1117.98 335.91C1089.74 312.56 1061.68 290.377 1029.93 270.78C966.064 231.335 894.719 201.98 819.313 186.219C743.169 170.291 664.072 168.456 586.728 177.963C505.692 187.97 429.64 214.322 350.173 230.417C289.627 242.676 225.482 251.182 163.736 241.425C86.2996 229.25 32.9526 186.469 0.187546 123.006C0.187545 125.091 0.187545 126.175 0.187545 128.343C32.9526 190.722 86.4841 231.585 162.905 242.843C224.651 251.933 288.612 243.093 349.066 230.751C428.256 214.572 504.215 188.637 585.066 178.713C662.226 169.29 741.046 171.041 817.19 186.552C892.504 201.897 963.849 230.584 1028.09 269.279C1083.56 302.72 1129.89 359.094 1194.68 377.69C1294.91 406.378 1346.05 295.548 1440 302.219Z" fill="url(#paint36_linear_5492_290)"/>
<path d="M1440 279.034C1440 277.449 1440 276.616 1440 275.031C1339.95 272.863 1305.44 423.388 1199.57 395.785C1170.78 388.279 1146.32 369.099 1125.74 350.335C1094.91 322.232 1064.45 295.129 1029.1 271.362C967.725 230.165 898.226 198.976 823.836 182.381C748.615 165.619 670.255 164.117 593.834 174.291C513.722 184.966 439.054 212.819 360.326 228.414C296.457 241.09 227.974 247.844 163.736 232.834C83.1615 213.903 31.845 161.032 0.187553 93.5664C0.187553 95.5678 0.187553 96.5686 0.187553 98.6535C31.845 165.118 83.1615 216.238 162.813 234.168C226.958 248.595 295.257 241.34 359.034 228.664C437.578 213.069 512.153 185.55 592.081 175.042C668.41 164.951 746.584 166.453 821.713 182.881C896.011 199.059 965.602 229.581 1027.26 270.194C1062.61 293.461 1093.34 320.063 1124.26 347.75C1145.12 366.514 1169.67 385.361 1198.46 393.033C1303.96 421.303 1340.88 276.282 1440 279.034Z" fill="url(#paint37_linear_5492_290)"/>
<path d="M1440 256.769C1440 255.268 1440 254.517 1440 252.933C1380.93 253.35 1344.66 310.557 1313.65 348.001C1287.25 379.941 1252.18 422.555 1201.69 409.629C1173.45 402.374 1150.19 381.609 1131.09 362.512C1101.55 332.907 1072.94 303.803 1039.07 278.034C981.385 234.169 914.84 199.894 842.203 180.88C763.843 160.366 681.054 158.448 600.757 170.206C521.567 181.798 448.469 211.319 370.479 226.747C307.256 239.256 239.788 244.343 176.842 228.248C87.2226 205.315 33.0449 141.602 0.187561 65.964C0.18756 67.7986 0.18756 68.7993 0.18756 70.634C33.0449 145.355 87.2226 207.233 175.919 229.249C238.865 244.843 306.241 239.423 369.279 226.914C447.084 211.486 520.182 182.381 599.188 171.04C679.393 159.448 761.998 161.366 840.357 181.548C912.901 200.228 979.631 234.002 1037.78 277.2C1071.74 302.468 1100.63 331.156 1130.26 360.427C1149.55 379.44 1172.9 399.955 1201.14 407.294C1309.31 435.481 1335.34 257.102 1440 256.769Z" fill="url(#paint38_linear_5492_290)"/>
<path d="M1440 235.586C1440 234.168 1440 233.417 1440 232C1377.61 233.251 1342.26 298.131 1314.3 339.577C1291.59 373.268 1257.81 434.312 1203.63 421.637C1176.41 415.215 1154.35 393.533 1136.9 374.853C1108.38 344.414 1082.45 313.058 1050.42 285.288C993.845 236.169 926.838 196.724 851.617 175.376C776.211 153.943 696.098 151.775 618.478 163.283C535.227 175.626 459.729 209.317 377.862 225.578C311.501 238.755 240.341 241.923 175.55 220.825C84.6382 191.22 32.3988 119.502 0.187567 40.6949C0.187567 42.3627 0.187566 43.1966 0.187566 44.9479C32.5834 123.338 85.2843 193.805 176.288 222.243C237.757 241.423 304.672 239.088 367.617 227.58C449.022 212.652 524.059 179.295 606.018 166.119C684.654 153.443 766.151 154.36 843.126 174.708C919.177 194.806 987.569 233.167 1045.53 281.619C1078.02 308.805 1105.06 339.327 1133.3 369.933C1151.21 389.363 1173.64 411.796 1201.51 419.302C1255.96 433.979 1290.58 375.77 1314.2 341.662C1342.54 300.716 1378.07 236.837 1440 235.586Z" fill="url(#paint39_linear_5492_290)"/>
<path d="M1440 215.905C1440 214.571 1440 213.904 1440 212.653C1373.36 213.82 1337.73 286.456 1311.52 331.655C1292.23 364.929 1260.85 439.483 1206.49 431.06C1174.83 426.14 1150 396.869 1132.19 375.437C1105.52 343.33 1080.78 310.807 1050.05 281.536C996.976 230.999 932.923 189.553 859.363 167.203C780.266 143.186 695.261 143.103 614.133 158.28C533.19 173.374 460.276 209.484 379.886 225.328C313.156 238.505 241.719 239.255 177.851 215.238C84.355 180.213 32.6693 101.239 0.27351 18.5124C0.273509 19.9301 0.273509 20.6807 0.273509 22.1818C32.577 103.991 84.1704 181.714 176.928 215.905C240.796 239.505 312.049 238.505 378.594 225.579C458.892 209.901 531.898 174.375 612.749 159.614C694.061 144.687 779.066 145.021 858.348 168.871C932 190.97 996.423 231.917 1050.05 282.12C1080.87 310.974 1105.98 343.08 1132.74 374.937C1150.74 396.285 1175.57 424.973 1207.13 429.893C1261.31 438.399 1292.78 366.014 1312.63 332.74C1338.93 288.291 1374.19 217.239 1440 215.905Z" fill="url(#paint40_linear_5492_290)"/>
<path d="M1440 198.06C1440 196.893 1440 196.309 1440 195.142C1364.97 195.058 1327.96 281.787 1301.47 332.324C1284.39 364.847 1253.93 445.906 1199.57 435.065C1167.64 428.727 1143.46 396.37 1126.38 373.937C1101.18 340.913 1078.57 306.972 1049.78 276.2C998.459 221.577 934.406 176.044 858.539 153.278C781.38 130.178 698.59 132.513 620.323 149.442C540.672 166.621 470.158 205.232 390.968 222.828C325.346 237.338 254.832 238.423 191.425 215.406C89.1608 178.213 34.2447 89.7319 0.187576 0.000488281C0.187576 1.168 0.187576 1.75171 0.187576 3.00262C34.0601 91.9835 88.8839 179.213 190.317 215.656C253.632 238.423 323.961 237.422 389.399 223.162C468.497 205.983 539.195 168.039 618.754 151.193C697.39 134.598 780.272 132.596 857.616 155.613C933.76 178.296 998.275 223.329 1050.33 277.701C1079.4 308.056 1102.29 341.664 1127.58 374.438C1144.75 396.704 1168.93 428.393 1200.68 434.648C1254.86 445.322 1285.41 366.015 1302.67 333.491C1329.25 283.622 1365.98 198.311 1440 198.06Z" fill="url(#paint41_linear_5492_290)"/>
</g>
<defs>
<linearGradient id="paint0_linear_5492_290" x1="720.095" y1="1039" x2="720.095" y2="412.862" gradientUnits="userSpaceOnUse">
<stop stop-color="#428AEC"/>
<stop offset="1" stop-color="#01C1AE"/>
</linearGradient>
<linearGradient id="paint1_linear_5492_290" x1="720.095" y1="1019.99" x2="720.095" y2="424.646" gradientUnits="userSpaceOnUse">
<stop stop-color="#428AEC"/>
<stop offset="1" stop-color="#01C1AE"/>
</linearGradient>
<linearGradient id="paint2_linear_5492_290" x1="720" y1="996.469" x2="720" y2="432.721" gradientUnits="userSpaceOnUse">
<stop stop-color="#428AEC"/>
<stop offset="1" stop-color="#01C1AE"/>
</linearGradient>
<linearGradient id="paint3_linear_5492_290" x1="720.095" y1="969.367" x2="720.095" y2="437.948" gradientUnits="userSpaceOnUse">
<stop stop-color="#428AEC"/>
<stop offset="1" stop-color="#01C1AE"/>
</linearGradient>
<linearGradient id="paint4_linear_5492_290" x1="720.183" y1="939.262" x2="720.183" y2="439.884" gradientUnits="userSpaceOnUse">
<stop stop-color="#428AEC"/>
<stop offset="1" stop-color="#01C1AE"/>
</linearGradient>
<linearGradient id="paint5_linear_5492_290" x1="720.095" y1="907.154" x2="720.095" y2="439.806" gradientUnits="userSpaceOnUse">
<stop stop-color="#428AEC"/>
<stop offset="1" stop-color="#01C1AE"/>
</linearGradient>
<linearGradient id="paint6_linear_5492_290" x1="720.135" y1="873.463" x2="720.135" y2="437.28" gradientUnits="userSpaceOnUse">
<stop stop-color="#428AEC"/>
<stop offset="1" stop-color="#01C1AE"/>
</linearGradient>
<linearGradient id="paint7_linear_5492_290" x1="720.095" y1="839.106" x2="720.095" y2="432.931" gradientUnits="userSpaceOnUse">
<stop stop-color="#428AEC"/>
<stop offset="1" stop-color="#01C1AE"/>
</linearGradient>
<linearGradient id="paint8_linear_5492_290" x1="720.095" y1="804.914" x2="720.095" y2="426.979" gradientUnits="userSpaceOnUse">
<stop stop-color="#428AEC"/>
<stop offset="1" stop-color="#01C1AE"/>
</linearGradient>
<linearGradient id="paint9_linear_5492_290" x1="720.135" y1="771.559" x2="720.135" y2="419.281" gradientUnits="userSpaceOnUse">
<stop stop-color="#428AEC"/>
<stop offset="1" stop-color="#01C1AE"/>
</linearGradient>
<linearGradient id="paint10_linear_5492_290" x1="720.095" y1="739.951" x2="720.095" y2="410.542" gradientUnits="userSpaceOnUse">
<stop stop-color="#428AEC"/>
<stop offset="1" stop-color="#01C1AE"/>
</linearGradient>
<linearGradient id="paint11_linear_5492_290" x1="720.135" y1="710.596" x2="720.135" y2="400.529" gradientUnits="userSpaceOnUse">
<stop stop-color="#428AEC"/>
<stop offset="1" stop-color="#01C1AE"/>
</linearGradient>
<linearGradient id="paint12_linear_5492_290" x1="720.095" y1="686.322" x2="720.095" y2="389.041" gradientUnits="userSpaceOnUse">
<stop stop-color="#428AEC"/>
<stop offset="1" stop-color="#01C1AE"/>
</linearGradient>
<linearGradient id="paint13_linear_5492_290" x1="720.135" y1="666.375" x2="720.135" y2="371.987" gradientUnits="userSpaceOnUse">
<stop stop-color="#428AEC"/>
<stop offset="1" stop-color="#01C1AE"/>
</linearGradient>
<linearGradient id="paint14_linear_5492_290" x1="720.095" y1="645.652" x2="720.095" y2="354.356" gradientUnits="userSpaceOnUse">
<stop stop-color="#428AEC"/>
<stop offset="1" stop-color="#01C1AE"/>
</linearGradient>
<linearGradient id="paint15_linear_5492_290" x1="720.095" y1="626.285" x2="720.095" y2="340.179" gradientUnits="userSpaceOnUse">
<stop stop-color="#428AEC"/>
<stop offset="1" stop-color="#01C1AE"/>
</linearGradient>
<linearGradient id="paint16_linear_5492_290" x1="720.095" y1="606.772" x2="720.095" y2="330.58" gradientUnits="userSpaceOnUse">
<stop stop-color="#428AEC"/>
<stop offset="1" stop-color="#01C1AE"/>
</linearGradient>
<linearGradient id="paint17_linear_5492_290" x1="720.095" y1="585.84" x2="720.095" y2="324.535" gradientUnits="userSpaceOnUse">
<stop stop-color="#428AEC"/>
<stop offset="1" stop-color="#01C1AE"/>
</linearGradient>
<linearGradient id="paint18_linear_5492_290" x1="720.095" y1="564.074" x2="720.095" y2="321.478" gradientUnits="userSpaceOnUse">
<stop stop-color="#428AEC"/>
<stop offset="1" stop-color="#01C1AE"/>
</linearGradient>
<linearGradient id="paint19_linear_5492_290" x1="720.095" y1="541.391" x2="720.095" y2="320.335" gradientUnits="userSpaceOnUse">
<stop stop-color="#428AEC"/>
<stop offset="1" stop-color="#01C1AE"/>
</linearGradient>
<linearGradient id="paint20_linear_5492_290" x1="720.095" y1="527.375" x2="720.095" y2="321.12" gradientUnits="userSpaceOnUse">
<stop stop-color="#428AEC"/>
<stop offset="1" stop-color="#01C1AE"/>
</linearGradient>
<linearGradient id="paint21_linear_5492_290" x1="720.135" y1="527.129" x2="720.135" y2="320.807" gradientUnits="userSpaceOnUse">
<stop stop-color="#428AEC"/>
<stop offset="1" stop-color="#01C1AE"/>
</linearGradient>
<linearGradient id="paint22_linear_5492_290" x1="720.095" y1="526.881" x2="720.095" y2="319.919" gradientUnits="userSpaceOnUse">
<stop stop-color="#428AEC"/>
<stop offset="1" stop-color="#01C1AE"/>
</linearGradient>
<linearGradient id="paint23_linear_5492_290" x1="720.095" y1="525.547" x2="720.095" y2="317.513" gradientUnits="userSpaceOnUse">
<stop stop-color="#428AEC"/>
<stop offset="1" stop-color="#01C1AE"/>
</linearGradient>
<linearGradient id="paint24_linear_5492_290" x1="720.095" y1="522.543" x2="720.095" y2="312.994" gradientUnits="userSpaceOnUse">
<stop stop-color="#428AEC"/>
<stop offset="1" stop-color="#01C1AE"/>
</linearGradient>
<linearGradient id="paint25_linear_5492_290" x1="720.095" y1="517.123" x2="720.095" y2="307.077" gradientUnits="userSpaceOnUse">
<stop stop-color="#428AEC"/>
<stop offset="1" stop-color="#01C1AE"/>
</linearGradient>
<linearGradient id="paint26_linear_5492_290" x1="720.095" y1="508.617" x2="720.095" y2="294.056" gradientUnits="userSpaceOnUse">
<stop stop-color="#428AEC"/>
<stop offset="1" stop-color="#01C1AE"/>
</linearGradient>
<linearGradient id="paint27_linear_5492_290" x1="720.095" y1="496.36" x2="720.095" y2="278.291" gradientUnits="userSpaceOnUse">
<stop stop-color="#428AEC"/>
<stop offset="1" stop-color="#01C1AE"/>
</linearGradient>
<linearGradient id="paint28_linear_5492_290" x1="720.135" y1="479.93" x2="720.135" y2="254.396" gradientUnits="userSpaceOnUse">
<stop stop-color="#428AEC"/>
<stop offset="1" stop-color="#01C1AE"/>
</linearGradient>
<linearGradient id="paint29_linear_5492_290" x1="720.095" y1="461.334" x2="720.095" y2="232.858" gradientUnits="userSpaceOnUse">
<stop stop-color="#428AEC"/>
<stop offset="1" stop-color="#01C1AE"/>
</linearGradient>
<linearGradient id="paint30_linear_5492_290" x1="720.095" y1="441.152" x2="720.095" y2="216.177" gradientUnits="userSpaceOnUse">
<stop stop-color="#428AEC"/>
<stop offset="1" stop-color="#01C1AE"/>
</linearGradient>
<linearGradient id="paint31_linear_5492_290" x1="720.095" y1="419.469" x2="720.095" y2="203.476" gradientUnits="userSpaceOnUse">
<stop stop-color="#428AEC"/>
<stop offset="1" stop-color="#01C1AE"/>
</linearGradient>
<linearGradient id="paint32_linear_5492_290" x1="720.095" y1="396.869" x2="720.095" y2="193.901" gradientUnits="userSpaceOnUse">
<stop stop-color="#428AEC"/>
<stop offset="1" stop-color="#01C1AE"/>
</linearGradient>
<linearGradient id="paint33_linear_5492_290" x1="720.048" y1="373.52" x2="720.048" y2="186.119" gradientUnits="userSpaceOnUse">
<stop stop-color="#428AEC"/>
<stop offset="1" stop-color="#01C1AE"/>
</linearGradient>
<linearGradient id="paint34_linear_5492_290" x1="720.095" y1="361.902" x2="720.095" y2="180.694" gradientUnits="userSpaceOnUse">
<stop stop-color="#428AEC"/>
<stop offset="1" stop-color="#01C1AE"/>
</linearGradient>
<linearGradient id="paint35_linear_5492_290" x1="720.048" y1="371.426" x2="720.048" y2="153.61" gradientUnits="userSpaceOnUse">
<stop stop-color="#428AEC"/>
<stop offset="1" stop-color="#01C1AE"/>
</linearGradient>
<linearGradient id="paint36_linear_5492_290" x1="720.095" y1="384.932" x2="720.095" y2="123.006" gradientUnits="userSpaceOnUse">
<stop stop-color="#428AEC"/>
<stop offset="1" stop-color="#01C1AE"/>
</linearGradient>
<linearGradient id="paint37_linear_5492_290" x1="720.095" y1="399.166" x2="720.095" y2="93.5665" gradientUnits="userSpaceOnUse">
<stop stop-color="#428AEC"/>
<stop offset="1" stop-color="#01C1AE"/>
</linearGradient>
<linearGradient id="paint38_linear_5492_290" x1="720.095" y1="412.002" x2="720.095" y2="65.9641" gradientUnits="userSpaceOnUse">
<stop stop-color="#428AEC"/>
<stop offset="1" stop-color="#01C1AE"/>
</linearGradient>
<linearGradient id="paint39_linear_5492_290" x1="720.095" y1="423.342" x2="720.095" y2="40.695" gradientUnits="userSpaceOnUse">
<stop stop-color="#428AEC"/>
<stop offset="1" stop-color="#01C1AE"/>
</linearGradient>
<linearGradient id="paint40_linear_5492_290" x1="720.135" y1="431.719" x2="720.135" y2="18.5125" gradientUnits="userSpaceOnUse">
<stop stop-color="#428AEC"/>
<stop offset="1" stop-color="#01C1AE"/>
</linearGradient>
<linearGradient id="paint41_linear_5492_290" x1="720.095" y1="436.055" x2="720.095" y2="0.000614154" gradientUnits="userSpaceOnUse">
<stop stop-color="#428AEC"/>
<stop offset="1" stop-color="#01C1AE"/>
</linearGradient>
</defs>
</svg>
