<svg width="64" height="68" viewBox="0 0 64 68" fill="none" xmlns="http://www.w3.org/2000/svg">
<path d="M26.6667 0.666016L50.9933 8.26602C51.6718 8.47782 52.2648 8.90096 52.6858 9.47364C53.1068 10.0463 53.3337 10.7386 53.3333 11.4494V17.3327H60C60.8841 17.3327 61.7319 17.6839 62.357 18.309C62.9822 18.9341 63.3333 19.782 63.3333 20.666V27.3327H20V20.666C20 19.782 20.3512 18.9341 20.9763 18.309C21.6014 17.6839 22.4493 17.3327 23.3333 17.3327H46.6667V13.8993L26.6667 7.64602L6.66667 13.8993V38.5793C6.66619 40.6201 7.13417 42.6337 8.03455 44.4651C8.93493 46.2965 10.2437 47.8968 11.86 49.1427L12.49 49.596L26.6667 59.266L39.2733 50.666H23.3333C22.4493 50.666 21.6014 50.3148 20.9763 49.6897C20.3512 49.0646 20 48.2167 20 47.3327V33.9994H63.3333V47.3327C63.3333 48.2167 62.9822 49.0646 62.357 49.6897C61.7319 50.3148 60.8841 50.666 60 50.666L49.2667 50.6693C47.9767 52.3694 46.41 53.8694 44.6 55.1027L26.6667 67.3327L8.73333 55.106C6.04174 53.2709 3.83917 50.806 2.31713 47.9257C0.795094 45.0455 -0.000337409 41.837 1.07366e-07 38.5793V11.4494C0.000402021 10.7392 0.227622 10.0477 0.648541 9.47563C1.06946 8.90362 1.66207 8.48099 2.34 8.26935L26.6667 0.666016Z" fill="url(#paint0_linear_5268_787)"/>
<defs>
<linearGradient id="paint0_linear_5268_787" x1="31.6667" y1="0.666012" x2="116.897" y2="23.5819" gradientUnits="userSpaceOnUse">
<stop stop-color="#FD5A14"/>
<stop offset="0.609375" stop-color="#FFF06B" stop-opacity="0.59"/>
<stop offset="1" stop-color="#060ED0" stop-opacity="0.28"/>
</linearGradient>
</defs>
</svg>
