<svg width="19" height="17" viewBox="0 0 19 17" fill="none" xmlns="http://www.w3.org/2000/svg">
<path d="M14.5667 16.3462L14.1534 16.8416C14.2736 16.9485 14.4282 17.0049 14.5867 16.9997L14.5667 16.3462ZM13.2158 14.1072C12.999 13.8238 12.6007 13.7754 12.3262 13.9992C12.0517 14.2229 12.0048 14.6341 12.2216 14.9176L13.2158 14.1072ZM13.7208 13.5718L13.5004 12.9588C13.492 12.9621 13.4837 12.9655 13.4754 12.969L13.7208 13.5718ZM11.5193 14.2459L11.4129 13.6013L11.4026 13.6032L11.5193 14.2459ZM7.58699 14.2302L7.46692 14.8722L7.47078 14.873L7.58699 14.2302ZM4.24669 13.0234L3.89456 13.5667C3.90845 13.5764 3.92271 13.5854 3.93729 13.5938L4.24669 13.0234ZM4.11011 12.9449L4.46169 12.4011C4.43976 12.3859 4.41693 12.3723 4.39334 12.3601L4.11011 12.9449ZM4.04939 12.898L4.49722 12.4356C4.45563 12.3927 4.40843 12.3559 4.357 12.3264L4.04939 12.898ZM6.77839 14.8861C6.99509 14.6025 6.94817 14.1914 6.6736 13.9677C6.39902 13.7441 6.00078 13.7924 5.78408 14.0759L6.77839 14.8861ZM4.43333 16.3462L4.41328 16.9997C4.57453 17.005 4.73163 16.9466 4.85255 16.8363L4.43333 16.3462ZM0.633333 13.3995H0C0 13.4345 0.00271813 13.4694 0.00812821 13.504L0.633333 13.3995ZM2.81961 2.29977L2.43961 1.7767C2.34262 1.8518 2.26856 1.95405 2.2262 2.07131L2.81961 2.29977ZM7.0859 0.653976L7.71638 0.591978C7.68593 0.261854 7.42091 0.0075484 7.09977 0.000290749L7.0859 0.653976ZM6.60726 2.36188C6.64042 2.72135 6.94959 2.98501 7.2978 2.95078C7.64599 2.91654 7.90139 2.59736 7.86823 2.23788L6.60726 2.36188ZM11.0733 2.27927C11.0287 2.63743 11.2738 2.96507 11.6208 3.01108C11.9677 3.05708 12.285 2.80402 12.3296 2.44586L11.0733 2.27927ZM11.914 0.65408L11.9001 0.00039535C11.5869 0.00749607 11.3257 0.249967 11.2858 0.570781L11.914 0.65408ZM16.1803 2.29988L16.7737 2.07141C16.7313 1.95415 16.6573 1.85191 16.5603 1.77682L16.1803 2.29988ZM18.3667 13.3995L18.9919 13.504C18.9973 13.4694 19 13.4345 19 13.3995H18.3667ZM8.20941 10.2019L7.57607 10.1911V10.2019H8.20941ZM14.5667 16.3462C14.98 15.8509 14.98 15.8509 14.98 15.8509C14.9801 15.8509 14.98 15.8507 14.98 15.8509C14.9799 15.8507 14.9796 15.8505 14.9792 15.8502C14.9787 15.8497 14.9778 15.8489 14.9766 15.8477C14.9742 15.8456 14.9704 15.8422 14.9654 15.8378C14.9555 15.829 14.9408 15.8158 14.9218 15.7987C14.8837 15.7646 14.8286 15.7147 14.761 15.6531C14.6254 15.5297 14.4405 15.3593 14.2419 15.171C13.8305 14.7812 13.4069 14.3571 13.2158 14.1072L12.2216 14.9176C12.486 15.2632 12.9864 15.7562 13.3851 16.1342C13.5916 16.33 13.7831 16.5064 13.9229 16.6338C13.993 16.6975 14.0502 16.7491 14.0901 16.7849C14.11 16.803 14.1256 16.817 14.1364 16.8265C14.1417 16.8312 14.1459 16.835 14.1488 16.8375C14.1502 16.8388 14.1513 16.8397 14.1521 16.8405C14.1525 16.8408 14.1531 16.8413 14.1534 16.8416C14.1532 16.8414 14.1535 16.8416 14.1534 16.8416C14.1534 16.8416 14.1534 16.8416 14.5667 16.3462ZM15.1184 12.1011C14.536 12.497 13.9868 12.7724 13.5004 12.9588L13.9411 14.1849C14.5174 13.964 15.1525 13.6438 15.8151 13.1933L15.1184 12.1011ZM13.4754 12.969C12.7577 13.2803 12.0755 13.4847 11.4129 13.6013L11.6256 14.8905C12.3901 14.7561 13.1655 14.5219 13.966 14.1747L13.4754 12.969ZM11.4026 13.6032C10.0362 13.8678 8.78051 13.7952 7.70321 13.5875L7.47078 14.873C8.67078 15.1043 10.0872 15.1883 11.636 14.8885L11.4026 13.6032ZM7.70705 13.5883C6.88777 13.425 6.1813 13.1872 5.58537 12.9471L5.12431 14.1651C5.7732 14.4265 6.55524 14.6906 7.46692 14.8722L7.70705 13.5883ZM5.58537 12.9471C5.25351 12.8131 4.90279 12.6532 4.55609 12.4528L3.93729 13.5938C4.34991 13.8323 4.75768 14.017 5.12431 14.1651L5.58537 12.9471ZM4.59884 12.4799C4.53811 12.4379 4.48063 12.409 4.46181 12.3994C4.4349 12.3855 4.44671 12.3907 4.46169 12.4011L3.75852 13.4888C3.81908 13.5305 3.87644 13.5593 3.89508 13.5688C3.92179 13.5827 3.90982 13.5773 3.89456 13.5667L4.59884 12.4799ZM4.39334 12.3601C4.41787 12.3727 4.44392 12.3897 4.46905 12.4103C4.49069 12.4281 4.50593 12.4446 4.49722 12.4356L3.60156 13.3602C3.63084 13.3906 3.70392 13.4663 3.82688 13.5297L4.39334 12.3601ZM4.357 12.3264C4.23162 12.2545 4.13555 12.1942 4.07256 12.1531C4.04108 12.1326 4.01793 12.1169 4.00358 12.1071C3.9964 12.1021 3.99143 12.0986 3.98872 12.0968C3.98737 12.0957 3.98658 12.0952 3.98636 12.0951C3.98644 12.0951 3.98702 12.0955 3.98712 12.0956C3.98716 12.0957 3.98745 12.0958 3.62428 12.6315C3.26111 13.1671 3.26116 13.1672 3.2612 13.1672C3.26134 13.1674 3.26177 13.1676 3.26193 13.1678C3.26224 13.168 3.26259 13.1683 3.26297 13.1685C3.26374 13.1691 3.26467 13.1697 3.26575 13.1705C3.26789 13.1721 3.27062 13.1739 3.27395 13.1763C3.28062 13.181 3.28965 13.1874 3.30097 13.1951C3.32363 13.2106 3.35551 13.2322 3.39616 13.2588C3.47741 13.3117 3.5939 13.3847 3.74178 13.4696L4.357 12.3264ZM5.78408 14.0759C5.59076 14.3288 5.16454 14.7622 4.75346 15.1599C4.55454 15.3524 4.36925 15.5268 4.23359 15.6533C4.16583 15.7164 4.11062 15.7674 4.07251 15.8025C4.05346 15.8201 4.03869 15.8336 4.02876 15.8428C4.02379 15.8472 4.02005 15.8507 4.01759 15.853C4.01635 15.8541 4.01543 15.8549 4.01486 15.8554C4.01499 15.8553 4.01457 15.8557 4.01486 15.8554C4.0148 15.8556 4.01413 15.8561 4.0141 15.8561C4.01412 15.8561 4.01412 15.8561 4.43333 16.3462C4.85255 16.8363 4.85252 16.8363 4.85255 16.8363C4.85277 16.8362 4.85345 16.8355 4.85383 16.8352C4.85459 16.8345 4.85568 16.8335 4.8571 16.8321C4.85993 16.8295 4.86405 16.8257 4.86941 16.8209C4.8801 16.8111 4.89569 16.7968 4.9156 16.7785C4.95542 16.7418 5.01255 16.689 5.08246 16.6238C5.22212 16.4936 5.41343 16.3135 5.61955 16.1141C6.01855 15.7281 6.51629 15.2289 6.77839 14.8861L5.78408 14.0759ZM4.45338 15.6928C2.97688 15.6444 2.20118 15.0109 1.77984 14.4369C1.56126 14.139 1.42828 13.8425 1.35056 13.6214C1.31192 13.5115 1.28768 13.4224 1.27366 13.364C1.26666 13.335 1.26226 13.3138 1.25991 13.3018C1.25874 13.2958 1.25809 13.2921 1.25788 13.2909C1.25777 13.2903 1.25778 13.2904 1.25788 13.2909C1.25794 13.2913 1.25804 13.292 1.25814 13.2926C1.2582 13.2929 1.25826 13.2933 1.25832 13.2937C1.25831 13.2937 1.25836 13.2939 1.25832 13.2937C1.25838 13.2941 1.25854 13.2951 0.633333 13.3995C0.00812819 13.504 0.00806593 13.5036 0.00812821 13.504C0.00815136 13.5041 0.00833848 13.5053 0.00838505 13.5055C0.00847837 13.5062 0.0085795 13.5068 0.00868852 13.5075C0.0089066 13.5088 0.00915639 13.5104 0.00943921 13.5121C0.0100048 13.5155 0.0107026 13.5195 0.0115427 13.5244C0.0132226 13.5339 0.0154733 13.5462 0.0183764 13.561C0.0241797 13.5907 0.0326081 13.6305 0.044321 13.6792C0.0677108 13.7765 0.104419 13.9099 0.159889 14.0676C0.270378 14.3818 0.458258 14.8014 0.770233 15.2266C1.41004 16.0984 2.53435 16.9383 4.41328 16.9997L4.45338 15.6928ZM1.26667 13.3995C1.26667 10.9591 1.79748 8.24745 2.33895 6.12339C2.60845 5.06622 2.87799 4.16448 3.0799 3.52781C3.18082 3.20961 3.26471 2.95802 3.32309 2.78677C3.35227 2.70116 3.37507 2.63565 3.39042 2.59198C3.3981 2.57015 3.4039 2.55378 3.40771 2.54307C3.40963 2.53772 3.41103 2.5338 3.41192 2.53131C3.41236 2.53007 3.41269 2.52919 3.41287 2.52867C3.41286 2.5287 3.41303 2.52823 2.81961 2.29977C2.2262 2.07131 2.22626 2.07119 2.2262 2.07131C2.22627 2.07115 2.22618 2.07139 2.2262 2.07131C2.2261 2.0716 2.22574 2.0726 2.22557 2.07307C2.22522 2.07403 2.22475 2.07535 2.22414 2.07704C2.22294 2.08041 2.2212 2.08525 2.21897 2.0915C2.21451 2.10401 2.20804 2.12224 2.19971 2.14598C2.18302 2.19343 2.15886 2.2629 2.12827 2.35263C2.06707 2.53211 1.98017 2.79281 1.87611 3.12091C1.6681 3.77682 1.39107 4.70369 1.114 5.79057C0.562332 7.95461 0 10.7929 0 13.3995H1.26667ZM3.19963 2.82285C4.21227 2.03875 5.19671 1.66016 5.92276 1.47727C6.28585 1.3858 6.58331 1.34354 6.7855 1.3241C6.8865 1.31438 6.96342 1.31038 7.01252 1.30876C7.03706 1.30795 7.0546 1.30774 7.06468 1.3077C7.06972 1.30767 7.0729 1.30769 7.07414 1.3077C7.07394 1.3077 7.07322 1.30769 7.07294 1.30767C7.073 1.30767 7.0728 1.30767 7.07294 1.30767C7.07271 1.30766 7.07203 1.30766 7.0859 0.653976C7.09977 0.000290704 7.10003 0.000290749 7.09977 0.000290749C7.09967 0.000290749 7.09887 0.00026456 7.09868 0.00026456C7.09827 0.000251483 7.09784 0.000251448 7.09737 0.000238371C7.09645 0.000225294 7.0954 0.000199225 7.09422 0.000186148C7.09185 0.000144302 7.08898 0.000105059 7.08559 7.3675e-05C7.07883 1.09062e-05 7.07006 -2.57021e-05 7.05934 2.13745e-05C7.03788 0.000115528 7.00861 0.000539172 6.972 0.00175532C6.8988 0.00417453 6.79615 0.00971908 6.66799 0.0220505C6.41185 0.0466873 6.05268 0.0984847 5.62248 0.206852C4.76194 0.42364 3.61324 0.867952 2.43961 1.7767L3.19963 2.82285ZM6.45543 0.71596L6.60726 2.36188L7.86823 2.23788L7.71638 0.591978L6.45543 0.71596ZM12.3296 2.44586L12.5422 0.73738L11.2858 0.570781L11.0733 2.27927L12.3296 2.44586ZM11.914 0.65408C11.9279 1.30777 11.9276 1.30777 11.9274 1.30778C11.9276 1.30778 11.9274 1.30778 11.9274 1.30778C11.9271 1.30779 11.9265 1.30779 11.9263 1.3078C11.9275 1.30779 11.9302 1.30778 11.9352 1.3078C11.9453 1.30784 11.9629 1.30805 11.9874 1.30886C12.0365 1.31049 12.1134 1.31447 12.2144 1.32419C12.4166 1.34364 12.714 1.38587 13.0772 1.47733C13.8031 1.66023 14.7876 2.0388 15.8003 2.82294L16.5603 1.77682C15.3867 0.868017 14.238 0.423693 13.3774 0.206918C12.9472 0.0985501 12.588 0.0467659 12.3319 0.0221422C12.2037 0.00982382 12.1011 0.00426604 12.0279 0.00184682C11.9913 0.000643755 11.962 0.000225377 11.9405 0.000127301C11.9298 8.15316e-05 11.921 0.000118149 11.9143 0.000186148C11.9109 0.000212302 11.908 0.000251519 11.9057 0.000290749C11.9045 0.000303826 11.9034 0.000329895 11.9025 0.000342972C11.902 0.000356049 11.9016 0.000369161 11.9012 0.000369161C11.9013 0.000369161 11.901 0.000369161 11.9012 0.000369161C11.9009 0.000382238 11.9001 0.000395285 11.914 0.65408ZM16.1803 2.29988C15.5868 2.52835 15.5868 2.52829 15.5868 2.52825C15.5871 2.52878 15.5875 2.53019 15.588 2.53143C15.5889 2.53392 15.5903 2.53785 15.5922 2.5432C15.596 2.5539 15.6018 2.57027 15.6095 2.59211C15.6248 2.63577 15.6476 2.70127 15.6768 2.78689C15.7352 2.95813 15.8191 3.20971 15.92 3.5279C16.1219 4.16459 16.3914 5.0663 16.661 6.12346C17.2025 8.24749 17.7333 10.9591 17.7333 13.3995H19C19 10.7929 18.4376 7.95462 17.886 5.79061C17.6088 4.70374 17.3318 3.7769 17.1238 3.12099C17.0197 2.79289 16.9328 2.53219 16.8716 2.35272C16.8411 2.26299 16.8169 2.19353 16.8002 2.14607C16.7918 2.12234 16.7854 2.10411 16.7809 2.09159C16.7786 2.08534 16.777 2.08052 16.7757 2.07714C16.7751 2.07545 16.7747 2.07412 16.7743 2.07317C16.7742 2.0727 16.7737 2.0717 16.7737 2.07141C16.7737 2.07148 16.7736 2.07127 16.7737 2.07141C16.7736 2.07128 16.7737 2.07141 16.1803 2.29988ZM18.3667 13.3995C17.7414 13.2951 17.7416 13.2947 17.7416 13.2943C17.7416 13.2946 17.7416 13.2942 17.7416 13.2943C17.7416 13.2939 17.7418 13.2929 17.7418 13.2926C17.7419 13.292 17.7421 13.2915 17.7421 13.2911C17.7422 13.2905 17.7422 13.2904 17.7421 13.2911C17.7419 13.2922 17.7413 13.2958 17.74 13.3018C17.7378 13.3138 17.7333 13.335 17.7264 13.364C17.7123 13.4224 17.6881 13.5115 17.6495 13.6214C17.5717 13.8425 17.4387 14.139 17.2201 14.4369C16.7988 15.0109 16.0231 15.6444 14.5467 15.6928L14.5867 16.9997C16.4657 16.9383 17.5899 16.0984 18.2297 15.2266C18.5417 14.8014 18.7296 14.3819 18.8401 14.0676C18.8956 13.9099 18.9322 13.7765 18.9557 13.6792C18.9674 13.6305 18.9758 13.5907 18.9816 13.561C18.9845 13.5462 18.9868 13.5339 18.9885 13.5244C18.9892 13.5195 18.99 13.5155 18.9905 13.5121C18.9909 13.5104 18.9911 13.5088 18.9913 13.5075C18.9914 13.5068 18.9915 13.5062 18.9916 13.5055C18.9916 13.5053 18.9919 13.5041 18.9919 13.504C18.9919 13.5036 18.9919 13.504 18.3667 13.3995ZM6.66079 7.80828C5.39261 7.80828 4.47895 8.94199 4.47895 10.2019H5.74561C5.74561 9.54963 6.19822 9.11596 6.66079 9.11596V7.80828ZM4.47895 10.2019C4.47895 11.4662 5.41158 12.5956 6.66079 12.5956V11.2879C6.20954 11.2879 5.74561 10.85 5.74561 10.2019H4.47895ZM6.66079 12.5956C7.92908 12.5956 8.84274 11.4619 8.84274 10.2019H7.57607C7.57607 10.8543 7.12347 11.2879 6.66079 11.2879V12.5956ZM8.84265 10.2127C8.86306 8.93397 7.92001 7.80828 6.66079 7.80828V9.11596C7.13232 9.11596 7.58619 9.55764 7.57607 10.1911L8.84265 10.2127ZM12.2025 7.80828C10.9343 7.80828 10.0205 8.94189 10.0205 10.2019H11.2871C11.2871 9.54972 11.7398 9.11596 12.2025 9.11596V7.80828ZM10.0205 10.2019C10.0205 11.4663 10.9534 12.5956 12.2025 12.5956V11.2879C11.7512 11.2879 11.2871 10.8498 11.2871 10.2019H10.0205ZM12.2025 12.5956C13.4707 12.5956 14.3844 11.4619 14.3844 10.2019H13.1177C13.1177 10.8543 12.6651 11.2879 12.2025 11.2879V12.5956ZM14.3844 10.2019C14.3844 8.94199 13.4707 7.80828 12.2025 7.80828V9.11596C12.6651 9.11596 13.1177 9.54963 13.1177 10.2019H14.3844ZM4.73657 4.49721C6.56446 3.46805 8.05307 2.98786 9.50298 2.98712C10.9525 2.98637 12.4389 3.46482 14.2623 4.49655L14.871 3.34982C12.9423 2.25841 11.2416 1.67855 9.50234 1.67944C7.76346 1.68032 6.06152 2.26171 4.13009 3.34915L4.73657 4.49721Z" fill="white"/>
</svg>
