<svg width="60" height="60" viewBox="0 0 60 60" fill="none" xmlns="http://www.w3.org/2000/svg">
<circle cx="30" cy="30" r="29.5" stroke="url(#paint0_linear_5343_87)"/>
<path d="M36.125 27.875C36.5 27.875 36.8281 27.8438 37.1094 27.7812C37.3906 27.7188 37.6211 27.5977 37.8008 27.418C37.9883 27.2305 38.1289 26.9648 38.2227 26.6211C38.3164 26.2773 38.3633 25.8242 38.3633 25.2617C38.3633 24.6367 38.3164 24.1094 38.2227 23.6797C38.1289 23.25 37.9727 22.8945 37.7539 22.6133C37.5352 22.332 37.2383 22.1172 36.8633 21.9688C36.4961 21.8203 36.0352 21.7109 35.4805 21.6406C34.9258 21.5703 34.2695 21.5312 33.5117 21.5234C32.7539 21.5078 31.875 21.5 30.875 21.5C29.5 21.5 28.3398 21.5195 27.3945 21.5586C26.457 21.5898 25.6797 21.6562 25.0625 21.7578C24.4531 21.8516 23.9844 21.9844 23.6562 22.1562C23.3281 22.3281 23.0859 22.5547 22.9297 22.8359C22.7812 23.1094 22.6914 23.4453 22.6602 23.8438C22.6367 24.2422 22.625 24.7109 22.625 25.25H20.375C20.375 24.3047 20.4766 23.5078 20.6797 22.8594C20.8906 22.2109 21.1953 21.6797 21.5938 21.2656C22 20.8438 22.5 20.5234 23.0938 20.3047C23.6875 20.0781 24.3711 19.918 25.1445 19.8242C25.9258 19.7227 26.793 19.6641 27.7461 19.6484C28.707 19.6328 29.75 19.625 30.875 19.625C32 19.625 33.0195 19.6445 33.9336 19.6836C34.8555 19.7148 35.6758 19.793 36.3945 19.918C37.1211 20.043 37.75 20.2266 38.2812 20.4688C38.8125 20.7109 39.25 21.043 39.5938 21.4648C39.9453 21.8789 40.2031 22.3945 40.3672 23.0117C40.5391 23.6289 40.625 24.375 40.625 25.25C40.625 25.8125 40.5859 26.2891 40.5078 26.6797C40.4375 27.0703 40.3242 27.4023 40.168 27.6758C40.0195 27.9414 39.8281 28.1641 39.5938 28.3438C39.3594 28.5156 39.0781 28.6719 38.75 28.8125C39.0781 28.9531 39.3594 29.1328 39.5938 29.3516C39.8281 29.5703 40.0195 29.8398 40.168 30.1602C40.3242 30.4727 40.4375 30.8438 40.5078 31.2734C40.5859 31.6953 40.625 32.1875 40.625 32.75C40.625 33.625 40.5391 34.3711 40.3672 34.9883C40.2031 35.6055 39.9453 36.125 39.5938 36.5469C39.25 36.9609 38.8125 37.2891 38.2812 37.5312C37.75 37.7734 37.1211 37.957 36.3945 38.082C35.6758 38.207 34.8555 38.2852 33.9336 38.3164C33.0195 38.3555 32 38.375 30.875 38.375C29.75 38.375 28.707 38.3672 27.7461 38.3516C26.793 38.3359 25.9258 38.2734 25.1445 38.1641C24.3711 38.0547 23.6875 37.8828 23.0938 37.6484C22.5 37.4062 22 37.0625 21.5938 36.6172C21.1953 36.1719 20.8906 35.6055 20.6797 34.918C20.4766 34.2305 20.375 33.3828 20.375 32.375H22.625C22.625 32.9688 22.6406 33.4844 22.6719 33.9219C22.7031 34.3516 22.793 34.7188 22.9414 35.0234C23.0898 35.3281 23.3281 35.5781 23.6562 35.7734C23.9844 35.9609 24.4531 36.1094 25.0625 36.2188C25.6797 36.3281 26.457 36.4023 27.3945 36.4414C28.3398 36.4805 29.5 36.5 30.875 36.5C31.875 36.5 32.7539 36.4961 33.5117 36.4883C34.2695 36.4727 34.9258 36.4297 35.4805 36.3594C36.0352 36.2891 36.4961 36.1797 36.8633 36.0312C37.2383 35.8828 37.5352 35.668 37.7539 35.3867C37.9727 35.1055 38.1289 34.75 38.2227 34.3203C38.3164 33.8906 38.3633 33.3633 38.3633 32.7383C38.3633 32.082 38.3164 31.5586 38.2227 31.168C38.1289 30.7695 37.9883 30.4648 37.8008 30.2539C37.6211 30.043 37.3906 29.9062 37.1094 29.8438C36.8281 29.7812 36.5 29.75 36.125 29.75H27.875V27.875H36.125Z" fill="url(#paint1_linear_5343_87)"/>
<defs>
<linearGradient id="paint0_linear_5343_87" x1="7.12462e-07" y1="52.5" x2="49.875" y2="6.75" gradientUnits="userSpaceOnUse">
<stop stop-color="#02AAB0"/>
<stop offset="1" stop-color="#00CDAC"/>
</linearGradient>
<linearGradient id="paint1_linear_5343_87" x1="9" y1="35.375" x2="32.0951" y2="3.96284" gradientUnits="userSpaceOnUse">
<stop stop-color="#02AAB0"/>
<stop offset="1" stop-color="#00CDAC"/>
</linearGradient>
</defs>
</svg>
