<svg width="60" height="60" viewBox="0 0 60 60" fill="none" xmlns="http://www.w3.org/2000/svg">
<circle cx="30" cy="30" r="29.5" stroke="url(#paint0_linear_5343_86)"/>
<path d="M20.375 36.75C20.375 36.2812 20.3867 35.8164 20.4102 35.3555C20.4336 34.8867 20.4844 34.4414 20.5625 34.0195C20.6484 33.5898 20.7695 33.1875 20.9258 32.8125C21.0898 32.4375 21.3086 32.1094 21.582 31.8281C21.8633 31.5391 22.2109 31.3008 22.625 31.1133C23.0391 30.9258 23.5391 30.8047 24.125 30.75L36.125 29.625C36.5 29.5938 36.8281 29.5391 37.1094 29.4609C37.3906 29.3828 37.6211 29.2344 37.8008 29.0156C37.9883 28.7891 38.1289 28.4609 38.2227 28.0312C38.3164 27.6016 38.3633 27.0117 38.3633 26.2617C38.3633 25.6367 38.3164 25.1094 38.2227 24.6797C38.1289 24.25 37.9727 23.8945 37.7539 23.6133C37.5352 23.332 37.2383 23.1172 36.8633 22.9688C36.4961 22.8203 36.0352 22.7109 35.4805 22.6406C34.9258 22.5703 34.2695 22.5312 33.5117 22.5234C32.7539 22.5078 31.875 22.5 30.875 22.5C29.5 22.5 28.3398 22.5273 27.3945 22.582C26.457 22.6289 25.6797 22.7188 25.0625 22.8516C24.4531 22.9844 23.9844 23.1641 23.6562 23.3906C23.3281 23.6172 23.0859 23.9141 22.9297 24.2812C22.7812 24.6406 22.6914 25.0742 22.6602 25.582C22.6367 26.0898 22.625 26.6875 22.625 27.375H20.375C20.375 26.25 20.4766 25.3047 20.6797 24.5391C20.8906 23.7656 21.1953 23.1289 21.5938 22.6289C22 22.1289 22.5 21.7422 23.0938 21.4688C23.6875 21.1953 24.3711 20.9961 25.1445 20.8711C25.9258 20.7461 26.793 20.6758 27.7461 20.6602C28.707 20.6367 29.75 20.625 30.875 20.625C32 20.625 33.0195 20.6445 33.9336 20.6836C34.8555 20.7148 35.6758 20.793 36.3945 20.918C37.1211 21.043 37.75 21.2266 38.2812 21.4688C38.8125 21.7109 39.25 22.043 39.5938 22.4648C39.9453 22.8789 40.2031 23.3945 40.3672 24.0117C40.5391 24.6289 40.625 25.375 40.625 26.25C40.625 27 40.5703 27.6836 40.4609 28.3008C40.3516 28.9102 40.1562 29.4414 39.875 29.8945C39.5938 30.3477 39.2109 30.7109 38.7266 30.9844C38.2422 31.2578 37.625 31.4297 36.875 31.5L24.875 32.625C24.3047 32.6797 23.8672 32.7852 23.5625 32.9414C23.2578 33.0977 23.0352 33.3477 22.8945 33.6914C22.7539 34.0273 22.6719 34.4727 22.6484 35.0273C22.6328 35.582 22.625 36.2812 22.625 37.125H40.25V39H20.375V36.75Z" fill="url(#paint1_linear_5343_86)"/>
<defs>
<linearGradient id="paint0_linear_5343_86" x1="7.12462e-07" y1="52.5" x2="49.875" y2="6.75" gradientUnits="userSpaceOnUse">
<stop stop-color="#02AAB0"/>
<stop offset="1" stop-color="#00CDAC"/>
</linearGradient>
<linearGradient id="paint1_linear_5343_86" x1="9" y1="36.375" x2="32.0951" y2="4.96284" gradientUnits="userSpaceOnUse">
<stop stop-color="#02AAB0"/>
<stop offset="1" stop-color="#00CDAC"/>
</linearGradient>
</defs>
</svg>
