<svg width="60" height="54" viewBox="0 0 60 54" fill="none" xmlns="http://www.w3.org/2000/svg">
<path d="M6.75275 51.9488C5.55262 51.9488 4.35255 51.5138 3.40508 50.5817C1.57331 48.7796 1.57331 45.7968 3.40508 43.9948L44.7782 3.29297C46.61 1.49089 49.6419 1.49089 51.4736 3.29297C53.3054 5.09505 53.3054 8.07774 51.4736 9.87982L10.1005 50.5817C9.15301 51.5138 7.95288 51.9488 6.75275 51.9488Z" fill="url(#paint0_linear_5268_823)"/>
<path d="M9.34845 0C4.2321 0 0 4.10135 0 9.19688C0 14.2303 4.16894 18.3933 9.34845 18.3933C14.4647 18.3933 18.6968 14.2924 18.6968 9.19688C18.6336 4.10135 14.4647 0 9.34845 0Z" fill="url(#paint1_linear_5268_823)"/>
<path d="M50.6524 35.6055C45.5361 35.6055 41.3047 39.7068 41.3047 44.8023C41.3047 49.8357 45.4729 53.9991 50.6524 53.9991C55.7688 53.9991 60.0015 49.8978 60.0015 44.8023C60.0015 39.7068 55.8319 35.6055 50.6524 35.6055Z" fill="url(#paint2_linear_5268_823)"/>
<defs>
<linearGradient id="paint0_linear_5268_823" x1="27.4394" y1="1.9414" x2="95.1667" y2="21.4197" gradientUnits="userSpaceOnUse">
<stop stop-color="#F7BC51"/>
<stop offset="0.609375" stop-color="#60E7CE" stop-opacity="0.5"/>
<stop offset="1" stop-color="#060ED0" stop-opacity="0.28"/>
</linearGradient>
<linearGradient id="paint1_linear_5268_823" x1="9.34838" y1="-1.0579e-06" x2="34.266" y2="7.16858" gradientUnits="userSpaceOnUse">
<stop stop-color="#F7BC51"/>
<stop offset="0.609375" stop-color="#60E7CE" stop-opacity="0.5"/>
<stop offset="1" stop-color="#060ED0" stop-opacity="0.28"/>
</linearGradient>
<linearGradient id="paint2_linear_5268_823" x1="50.6531" y1="35.6055" x2="75.5708" y2="42.7739" gradientUnits="userSpaceOnUse">
<stop stop-color="#F7BC51"/>
<stop offset="0.609375" stop-color="#60E7CE" stop-opacity="0.5"/>
<stop offset="1" stop-color="#060ED0" stop-opacity="0.28"/>
</linearGradient>
</defs>
</svg>
