<svg width="21" height="19" viewBox="0 0 21 19" fill="none" xmlns="http://www.w3.org/2000/svg">
<path d="M2.43977 3.84175C2.45237 3.69847 2.4355 3.5538 2.39049 3.41932C2.34548 3.28484 2.27359 3.16428 2.18057 3.06728L0.2592 0.399006V0H6.22286L10.8329 11.6583L14.8855 0H20.5714V0.399006L18.9288 2.21277C18.8592 2.27427 18.8055 2.35624 18.7734 2.44994C18.7414 2.54365 18.7321 2.64555 18.7467 2.74478V16.085C18.7321 16.1842 18.7414 16.2861 18.7734 16.3798C18.8055 16.4735 18.8592 16.5555 18.9288 16.617L20.5334 18.4319V18.8321H12.4663V18.4331L14.1274 16.5735C14.291 16.3851 14.291 16.3298 14.291 16.0426V5.25887L9.67063 18.7874H9.04731L3.66789 5.25887V14.3265C3.62366 14.7079 3.73371 15.0916 3.96617 15.367L6.1272 18.3896V18.7874H0V18.3896L2.16 15.367C2.27429 15.2305 2.35911 15.0654 2.40768 14.8847C2.45626 14.7041 2.46725 14.5129 2.43977 14.3265V3.84175Z" fill="white"/>
</svg>
