<?xml version="1.0" standalone="no"?>
<!DOCTYPE svg PUBLIC "-//W3C//DTD SVG 20010904//EN"
 "http://www.w3.org/TR/2001/REC-SVG-20010904/DTD/svg10.dtd">
<svg version="1.0" xmlns="http://www.w3.org/2000/svg"
 width="775.000000pt" height="884.000000pt" viewBox="0 0 775.000000 884.000000"
 preserveAspectRatio="xMidYMid meet">

<g transform="translate(0.000000,884.000000) scale(0.100000,-0.100000)"
fill="#000000" stroke="none">
<path d="M1337 8833 c354 -2 932 -2 1285 0 354 1 65 2 -642 2 -707 0 -996 -1
-643 -2z"/>
<path d="M593 8823 c9 -2 23 -2 30 0 6 3 -1 5 -18 5 -16 0 -22 -2 -12 -5z"/>
<path d="M3343 8823 c9 -2 23 -2 30 0 6 3 -1 5 -18 5 -16 0 -22 -2 -12 -5z"/>
<path d="M518 8813 c7 -3 16 -2 19 1 4 3 -2 6 -13 5 -11 0 -14 -3 -6 -6z"/>
<path d="M3428 8813 c7 -3 16 -2 19 1 4 3 -2 6 -13 5 -11 0 -14 -3 -6 -6z"/>
<path d="M3478 8803 c7 -3 16 -2 19 1 4 3 -2 6 -13 5 -11 0 -14 -3 -6 -6z"/>
<path d="M625 8780 c-167 -14 -260 -55 -366 -161 -75 -74 -120 -156 -146 -264
-16 -65 -17 -305 -20 -3390 -1 -1921 1 -3381 7 -3465 10 -168 31 -248 86 -329
77 -114 186 -193 315 -228 60 -17 158 -18 1484 -18 1314 0 1425 1 1482 17 94
26 161 64 230 131 126 120 160 205 173 427 11 186 11 6519 0 6705 -6 93 -16
162 -29 206 -54 171 -208 313 -388 356 -61 15 -206 17 -1403 19 -734 1 -1375
-2 -1425 -6z m37 -486 c71 -77 74 -83 50 -107 -25 -25 -27 -24 -112 78 l-61
75 40 0 c35 0 46 -6 83 -46z m2748 -39 l0 -45 -45 0 -45 0 0 45 0 45 45 0 45
0 0 -45z m110 -1 l0 -45 -42 3 c-43 3 -43 3 -46 46 l-3 42 45 0 46 0 0 -46z
m-2592 -3 c2 -13 -2 -35 -9 -48 -10 -18 -10 -26 -1 -35 14 -14 16 -28 4 -28
-5 0 -14 11 -20 25 -17 38 -50 33 -55 -7 -2 -18 -5 2 -5 45 l-2 78 43 -3 c36
-3 43 -7 45 -27z m117 -44 c13 -37 20 -67 15 -67 -4 0 -10 7 -14 15 -3 9 -18
15 -36 15 -18 0 -33 -6 -36 -15 -4 -8 -10 -15 -15 -15 -6 0 8 51 36 128 10 27
27 5 50 -61z m141 48 c20 -31 13 -94 -13 -113 -10 -7 -31 -12 -48 -10 -30 3
-30 3 -33 76 l-3 72 40 0 c32 0 44 -5 57 -25z m94 16 c-29 -5 -35 -10 -35 -31
0 -19 6 -26 30 -31 l30 -7 -32 -1 c-28 -1 -33 -5 -33 -26 0 -22 4 -25 36 -25
21 0 33 -4 29 -10 -9 -14 -58 -13 -73 2 -13 13 -17 120 -5 131 3 4 25 6 47 6
l41 -2 -35 -6z m-640 -88 c19 -25 48 -61 64 -79 l28 -34 -38 1 c-35 0 -44 6
-93 65 -51 62 -52 66 -36 84 22 24 32 19 75 -37z m1595 47 c-3 -5 5 -15 19
-22 14 -6 26 -19 26 -28 0 -21 -34 -32 -50 -16 -9 8 -14 8 -17 0 -6 -18 -43
-4 -43 16 0 9 12 22 26 28 14 7 22 17 19 22 -3 6 1 10 10 10 9 0 13 -4 10 -10z
m173 -32 c-2 -21 -9 -33 -18 -34 -9 0 -10 1 -2 3 6 3 12 15 12 29 0 31 -30 33
-31 2 0 -13 -3 -17 -6 -10 -8 21 5 42 27 42 18 0 21 -5 18 -32z m103 23 c-11
-7 -10 -10 5 -14 13 -3 11 -5 -8 -6 -19 -1 -28 4 -28 14 0 9 9 15 23 15 16 0
19 -3 8 -9z m87 -22 c1 -32 -21 -50 -40 -31 -8 8 -5 9 11 5 18 -4 21 -1 19 18
-2 14 -12 27 -23 31 -17 5 -16 6 6 7 22 1 26 -3 27 -30z m62 0 c0 -17 -4 -28
-10 -24 -5 3 -7 13 -4 23 5 16 5 16 -9 0 -22 -27 -30 -21 -11 7 22 34 34 32
34 -6z m210 1 c0 -26 -2 -29 -14 -18 -9 9 -11 17 -4 25 6 8 2 13 -14 16 -20 4
-20 4 5 6 24 1 27 -3 27 -29z m60 10 c0 -13 -7 -20 -20 -20 -11 0 -20 4 -20
10 0 5 7 7 15 4 8 -4 15 -1 15 4 0 6 -8 13 -17 15 -14 4 -12 5 5 6 16 1 22 -5
22 -19z m78 -6 c4 -25 -22 -49 -43 -40 -15 5 -21 47 -8 60 14 14 48 1 51 -20z
m28 -1 c-10 -10 -19 5 -10 18 6 11 8 11 12 0 2 -7 1 -15 -2 -18z m-576 -4 c0
-4 3 -16 7 -26 6 -15 4 -16 -9 -6 -8 7 -17 11 -19 8 -3 -2 -5 4 -5 14 0 10 6
18 13 18 7 0 13 -4 13 -8z m950 -55 l0 -45 -42 3 c-43 3 -43 3 -46 46 l-3 42
45 0 46 0 0 -46z m110 0 l0 -45 -42 3 c-43 3 -43 3 -46 46 l-3 42 45 0 46 0 0
-46z m-995 26 c-3 -5 -14 -10 -23 -9 -14 0 -13 2 3 9 27 11 27 11 20 0z m189
-2 c-3 -4 -12 -8 -20 -8 -8 0 -14 4 -14 8 0 4 9 8 19 8 11 0 17 -4 15 -8z
m131 -6 c-3 -3 -11 0 -18 7 -9 10 -8 11 6 5 10 -3 15 -9 12 -12z m85 6 c0 -4
-6 -8 -14 -8 -8 0 -17 4 -20 8 -2 4 4 8 15 8 10 0 19 -4 19 -8z m-2282 -835
l37 -58 3 58 c4 81 22 71 22 -13 0 -89 -15 -92 -67 -12 l-38 57 -3 -57 c-4
-79 -22 -74 -22 5 0 98 14 102 68 20z m320 20 c12 -12 13 -18 4 -21 -16 -5
-16 -69 1 -76 6 -3 3 -5 -8 -3 -16 2 -21 12 -26 47 -6 42 -3 70 8 70 2 0 12
-8 21 -17z m-154 -19 c13 -34 7 -44 -29 -44 -19 0 -35 -5 -35 -10 0 -18 31
-24 52 -11 16 10 19 10 16 -1 -3 -7 -19 -14 -36 -16 -25 -3 -34 2 -43 20 -17
38 3 78 40 78 17 0 31 -6 35 -16z m94 -2 c3 -11 0 -12 -16 -3 -15 8 -23 8 -28
0 -7 -12 12 -29 34 -29 6 0 12 -12 12 -26 0 -22 -4 -25 -32 -22 -17 2 -33 10
-36 18 -4 12 -2 13 9 3 17 -17 39 -16 39 1 0 8 -11 17 -25 20 -24 6 -34 34
-18 50 12 11 56 2 61 -12z m2702 -282 c0 -11 -2267 -11 -2910 0 -184 3 395 7
1288 8 1084 1 1622 -1 1622 -8z m-2731 -209 c30 -19 30 -173 0 -192 -8 -5 -74
-9 -148 -9 -168 0 -171 2 -171 106 0 101 6 104 175 104 71 0 136 -4 144 -9z
m2421 -90 c0 -25 -3 -28 -22 -23 -19 5 -20 7 -5 10 9 2 17 12 17 23 0 10 2 19
5 19 3 0 5 -13 5 -29z m-1270 4 c0 -8 -10 -19 -22 -25 -21 -10 -21 -10 -5 3 9
8 17 19 17 26 0 6 2 11 5 11 3 0 5 -7 5 -15z m-1233 -297 c-3 -8 -6 -5 -6 6
-1 11 2 17 5 13 3 -3 4 -12 1 -19z m8 -27 c3 -5 1 -12 -5 -16 -5 -3 -10 1 -10
9 0 18 6 21 15 7z m-182 -8 c-7 -2 -21 -2 -30 0 -10 3 -4 5 12 5 17 0 24 -2
18 -5z m-13 -194 c23 -6 22 -7 -7 -8 l-33 -1 2 53 1 52 6 -45 c5 -36 10 -45
31 -51z m167 69 c-3 -8 -6 -5 -6 6 -1 11 2 17 5 13 3 -3 4 -12 1 -19z m280
-55 c-2 -16 -4 -3 -4 27 0 30 2 43 4 28 2 -16 2 -40 0 -55z m660 0 c-2 -16 -4
-3 -4 27 0 30 2 43 4 28 2 -16 2 -40 0 -55z m30 0 c-2 -16 -4 -3 -4 27 0 30 2
43 4 28 2 -16 2 -40 0 -55z m360 0 c-2 -16 -4 -3 -4 27 0 30 2 43 4 28 2 -16
2 -40 0 -55z m773 47 c18 0 30 -19 30 -46 0 -8 -4 -14 -10 -14 -5 0 -10 11
-10 25 0 38 -28 32 -33 -7 -2 -19 -4 -9 -4 22 0 30 1 47 4 38 2 -10 13 -18 23
-18z m180 -20 c0 -47 -2 -50 -25 -50 -18 0 -26 7 -31 24 -7 31 1 46 27 46 10
0 19 7 19 15 0 8 2 15 5 15 3 0 5 -22 5 -50z m84 28 c-1 -13 -3 -36 -4 -53 -3
-30 -3 -30 -9 5 -7 38 -3 70 8 70 4 0 7 -10 5 -22z m-2411 -29 c-4 -21 -1 -34
8 -41 12 -8 11 -9 -1 -5 -15 4 -30 52 -22 74 8 25 21 1 15 -28z m509 -6 c-3
-15 1 -29 9 -34 11 -7 11 -9 -2 -9 -17 0 -30 52 -21 80 8 22 19 -9 14 -37z
m90 0 c-3 -15 1 -29 9 -34 11 -7 11 -9 -2 -9 -17 0 -30 52 -21 80 8 22 19 -9
14 -37z m48 37 c0 -5 9 -10 20 -10 17 0 20 -6 18 -37 -1 -37 -1 -37 -5 -5 -6
42 -33 44 -33 1 0 -17 -4 -28 -10 -24 -5 3 -10 24 -10 46 0 21 5 39 10 39 6 0
10 -4 10 -10z m492 -37 c-3 -15 1 -29 9 -34 11 -7 11 -9 -2 -9 -17 0 -30 52
-21 80 8 22 19 -9 14 -37z m460 0 c-3 -15 1 -29 9 -34 11 -7 11 -9 -2 -9 -12
0 -18 11 -22 38 -2 20 -2 41 1 46 8 15 19 -15 14 -41z m480 0 c-3 -15 1 -29 9
-35 12 -8 11 -9 -1 -5 -16 4 -30 52 -22 75 8 23 20 -6 14 -35z m-2114 5 c3
-13 -3 -18 -22 -18 -14 0 -26 -5 -26 -11 0 -7 11 -9 26 -6 16 3 22 1 16 -5
-26 -26 -62 11 -48 48 8 21 50 14 54 -8z m133 -11 c29 -8 24 -37 -6 -37 -14 0
-25 4 -25 9 0 5 9 7 20 4 11 -3 20 -1 20 5 0 5 -9 12 -20 15 -12 3 -20 13 -19
24 1 15 2 15 6 2 2 -10 13 -19 24 -22z m19 23 c0 -5 -2 -10 -4 -10 -3 0 -8 5
-11 10 -3 6 -1 10 4 10 6 0 11 -4 11 -10z m65 -1 c-4 -6 2 -13 14 -16 27 -7
28 -43 2 -43 -11 0 -22 4 -25 9 -4 5 3 7 14 4 11 -3 20 -1 20 5 0 5 -9 12 -20
15 -20 5 -29 37 -9 37 5 0 7 -5 4 -11z m35 1 c0 -5 -2 -10 -4 -10 -3 0 -8 5
-11 10 -3 6 -1 10 4 10 6 0 11 -4 11 -10z m78 -12 c3 -13 -3 -18 -22 -18 -14
0 -26 -5 -26 -11 0 -7 10 -9 28 -4 20 5 24 4 16 -5 -22 -22 -49 -7 -52 28 -3
31 -2 33 25 30 17 -2 29 -10 31 -20z m105 8 c7 -18 -1 -26 -25 -26 -10 0 -18
-5 -18 -11 0 -7 10 -9 26 -5 17 5 23 3 19 -4 -19 -31 -67 4 -58 41 6 22 48 26
56 5z m77 5 c0 -4 -12 -6 -26 -3 -22 4 -25 2 -22 -19 2 -18 9 -24 26 -23 14 0
19 -3 13 -9 -25 -25 -61 12 -47 49 6 15 56 20 56 5z m290 -11 c0 -15 -7 -20
-26 -20 -15 0 -23 -4 -18 -11 3 -6 15 -8 27 -5 14 3 17 2 10 -5 -16 -16 -47
-7 -51 14 -6 30 6 47 33 47 18 0 25 -5 25 -20z m110 11 c0 -5 -9 -7 -20 -4
-16 4 -20 0 -20 -22 0 -22 4 -26 20 -22 11 3 20 1 20 -5 0 -5 -12 -8 -27 -6
-28 3 -40 25 -29 54 6 15 56 20 56 5z m75 -26 c0 -25 -4 -31 -26 -33 -29 -3
-44 18 -33 50 4 14 13 18 32 16 23 -2 27 -8 27 -33z m147 0 c4 -35 3 -36 -26
-33 -37 4 -43 31 -8 36 12 2 22 7 22 12 0 5 -10 11 -22 13 -21 4 -20 4 3 6 24
1 27 -3 31 -34z m126 13 c3 -13 -3 -18 -22 -18 -14 0 -26 -5 -26 -11 0 -7 10
-9 28 -4 20 5 24 4 16 -5 -22 -22 -49 -7 -52 28 -3 31 -2 33 25 30 17 -2 29
-10 31 -20z m45 14 c-6 -4 -13 -21 -16 -37 -4 -27 -4 -27 -6 8 -1 29 3 37 17
37 11 0 13 -3 5 -8z m75 -30 c3 -31 2 -33 -24 -30 -34 4 -44 27 -15 35 26 7
27 20 4 27 -11 3 -7 4 7 3 21 -2 26 -8 28 -35z m69 -14 c-2 -13 -4 -5 -4 17
-1 22 1 32 4 23 2 -10 2 -28 0 -40z m59 27 c-20 -30 -20 -32 2 -38 10 -3 6 -5
-10 -6 -31 -1 -34 5 -13 33 12 16 12 22 2 28 -8 5 -4 8 12 8 22 0 23 -1 7 -25z
m86 -15 c4 -29 3 -31 -25 -28 -39 4 -46 25 -12 38 16 6 23 14 19 22 -4 6 -3 8
3 5 6 -4 13 -21 15 -37z m88 4 c0 -21 -4 -33 -10 -29 -17 10 -11 65 7 65 2 0
3 -16 3 -36z m75 1 c0 -25 -4 -30 -25 -30 -21 0 -26 5 -28 33 -3 31 -2 33 25
30 24 -3 28 -8 28 -33z m83 -2 l-1 -38 -4 33 c-5 42 -35 40 -44 -3 -6 -29 -7
-29 -8 8 -1 35 1 37 29 37 28 0 30 -2 28 -37z m160 0 c-1 -37 -1 -37 -5 -5 -6
42 -33 44 -33 1 0 -17 -4 -28 -10 -24 -5 3 -10 17 -10 31 0 37 -28 30 -33 -8
-4 -32 -4 -32 -5 5 l-2 37 50 0 50 0 -2 -37z m80 15 c3 -13 -3 -18 -22 -18
-14 0 -26 -5 -26 -11 0 -7 10 -9 28 -4 20 5 24 4 16 -5 -28 -28 -65 7 -50 46
8 21 50 14 54 -8z m207 -13 c0 -23 -5 -31 -21 -33 -27 -4 -47 21 -39 48 5 16
14 20 33 18 23 -2 27 -8 27 -33z m243 3 c-2 -28 -7 -33 -28 -33 -16 0 -26 6
-28 18 -6 30 6 47 33 47 24 0 26 -3 23 -32z m44 20 c-5 -7 -12 -24 -15 -38 -3
-18 -5 -15 -6 13 -1 28 3 37 15 37 12 0 14 -3 6 -12z m-2625 -205 c-2 -16 -4
-3 -4 27 0 30 2 43 4 28 2 -16 2 -40 0 -55z m205 27 c-1 -30 2 -40 13 -40 21
0 30 27 15 45 -8 10 -9 15 -2 15 17 0 24 -19 18 -46 -5 -17 -13 -24 -31 -24
-23 0 -25 3 -25 52 0 28 3 48 7 45 3 -4 6 -25 5 -47z m115 -27 c-2 -16 -4 -3
-4 27 0 30 2 43 4 28 2 -16 2 -40 0 -55z m326 48 c31 4 37 -2 35 -38 -1 -37
-1 -37 -5 -5 -5 38 -33 45 -33 8 0 -14 -4 -28 -10 -31 -6 -4 -10 14 -9 47 1
29 3 45 6 35 2 -10 10 -17 16 -16z m232 -21 c7 0 15 3 18 8 2 4 2 1 0 -6 -1
-7 2 -22 7 -33 6 -11 7 -19 1 -19 -5 0 -11 7 -15 15 -7 20 -24 19 -29 -2 -3
-10 -5 7 -4 37 0 30 2 43 4 28 2 -16 10 -28 18 -28z m-472 -49 c-1 -1 -6 0
-12 4 -12 7 -15 68 -3 79 6 7 21 -73 15 -83z m-433 48 c0 -12 -7 -19 -20 -19
-11 0 -20 -5 -20 -11 0 -6 9 -9 20 -6 11 3 20 1 20 -5 0 -5 -12 -8 -27 -6 -34
4 -45 45 -18 64 22 16 45 7 45 -17z m630 11 c0 -5 -9 -6 -20 -3 -16 4 -20 0
-20 -22 0 -22 4 -26 20 -22 11 3 20 1 20 -5 0 -5 -10 -8 -22 -6 -17 2 -24 11
-26 32 -2 16 2 32 9 36 14 9 39 2 39 -10z m160 -11 c0 -14 -7 -19 -26 -19 -15
0 -23 -4 -18 -11 3 -6 15 -8 27 -5 14 3 17 2 10 -5 -6 -6 -19 -9 -29 -7 -25 4
-31 48 -9 64 22 16 45 7 45 -17z m70 11 c0 -5 -8 -6 -19 -3 -22 6 -34 -9 -25
-32 4 -10 14 -15 25 -12 11 3 19 1 19 -4 0 -16 -48 -10 -54 7 -9 23 -8 31 9
48 15 15 45 12 45 -4z m-793 -42 c-2 -13 -4 -5 -4 17 -1 22 1 32 4 23 2 -10 2
-28 0 -40z m83 7 c0 -49 -20 -70 -43 -45 -9 10 -9 11 1 6 6 -4 18 -4 24 0 9 6
5 10 -12 14 -44 10 -40 70 5 70 23 0 25 -3 25 -45z m37 -7 c-2 -13 -4 -5 -4
17 -1 22 1 32 4 23 2 -10 2 -28 0 -40z m120 0 c-2 -13 -4 -5 -4 17 -1 22 1 32
4 23 2 -10 2 -28 0 -40z m83 17 c0 -13 -4 -27 -10 -30 -6 -4 -10 8 -10 30 0
22 4 34 10 30 6 -3 10 -17 10 -30z m100 -20 c8 0 18 13 21 30 6 27 7 26 8 -11
1 -49 -18 -72 -46 -54 -17 11 -17 11 0 6 11 -3 24 -3 30 1 7 4 2 9 -13 13 -20
5 -25 12 -27 40 -1 34 -1 34 5 5 4 -17 14 -30 22 -30z m1342 -192 c-343 -2
-901 -2 -1240 0 -339 1 -59 2 623 2 682 0 960 -1 617 -2z m635 -335 c-1 -62
-3 -14 -3 107 0 121 2 172 3 113 2 -59 2 -158 0 -220z m-2329 150 c7 -7 12
-24 12 -38 0 -33 -17 -50 -50 -50 -33 0 -50 17 -50 50 0 33 17 50 50 50 14 0
31 -5 38 -12z m179 -15 c3 -8 -6 -11 -24 -10 -24 2 -28 -2 -28 -23 0 -22 4
-25 30 -23 27 2 28 1 12 -11 -40 -30 -81 18 -57 65 12 22 60 24 67 2z m410 2
c2 -6 -9 -11 -24 -10 -23 0 -28 -4 -28 -25 0 -21 5 -25 28 -25 15 1 27 -2 27
-6 0 -12 -37 -17 -54 -7 -19 11 -21 59 -4 76 15 15 50 12 55 -3z m133 -30 c0
-25 -4 -45 -10 -45 -11 0 -14 73 -3 83 11 12 13 8 13 -38z m310 0 c0 -25 -4
-45 -10 -45 -11 0 -14 73 -3 83 11 12 13 8 13 -38z m27 -22 c-2 -16 -4 -5 -4
22 0 28 2 40 4 28 2 -13 2 -35 0 -50z m-661 24 c-3 -12 0 -27 6 -34 8 -10 7
-13 -5 -13 -14 0 -27 44 -19 68 7 21 24 1 18 -21z m294 -7 c0 -22 -4 -40 -10
-40 -5 0 -10 18 -10 40 0 22 5 40 10 40 6 0 10 -18 10 -40z m134 -8 c1 -42
-18 -35 -22 7 -2 23 0 32 9 29 7 -2 13 -18 13 -36z m57 0 c-12 -2 -21 -8 -21
-14 0 -5 7 -8 15 -4 8 3 15 1 15 -4 0 -6 -11 -10 -25 -10 -20 0 -25 5 -25 25
0 33 30 50 48 27 11 -15 10 -17 -7 -20z m119 -4 c0 -26 -3 -29 -27 -26 -23 2
-27 7 -24 28 6 49 51 48 51 -2z m-788 2 c-2 -16 -8 -30 -13 -30 -5 0 -9 14 -9
30 0 18 5 30 13 30 9 0 12 -10 9 -30z m49 -20 c5 0 9 9 9 19 0 11 5 23 11 26
7 5 9 -8 7 -37 -2 -35 -7 -43 -23 -43 -17 0 -20 7 -21 45 -1 25 0 33 3 18 2
-16 9 -28 14 -28z m99 23 c0 -20 -7 -31 -25 -40 -24 -11 -25 -10 -25 28 0 35
3 39 25 39 21 0 25 -5 25 -27z m115 -3 c0 -20 -6 -26 -27 -28 -25 -3 -28 0
-28 28 0 28 3 31 28 28 21 -2 27 -8 27 -28z m183 -2 c3 -24 0 -28 -23 -28 -27
0 -41 20 -31 46 10 27 51 13 54 -18z m130 0 c3 -25 0 -28 -27 -28 -33 0 -34 2
-25 38 10 34 48 26 52 -10z m144 20 c-5 -7 -12 -22 -15 -33 -3 -13 -5 -9 -6
13 -1 23 3 32 15 32 12 0 14 -3 6 -12z m188 4 c0 -4 -6 -14 -12 -20 -10 -10
-10 -15 2 -22 12 -8 10 -10 -7 -10 -26 0 -29 10 -11 28 10 10 10 15 -2 22 -12
8 -10 10 8 10 12 0 22 -4 22 -8z m68 -9 c2 -8 -5 -13 -17 -13 -12 0 -21 -5
-21 -11 0 -6 7 -9 15 -5 8 3 15 1 15 -4 0 -6 -11 -10 -25 -10 -20 0 -25 5 -25
23 0 13 3 27 7 31 11 10 46 3 51 -11z m504 -230 c-343 -2 -901 -2 -1240 0
-339 1 -59 2 623 2 682 0 960 -1 617 -2z m-849 -200 c-7 -2 -19 -2 -25 0 -7 3
-2 5 12 5 14 0 19 -2 13 -5z m110 0 c-18 -2 -48 -2 -65 0 -18 2 -4 4 32 4 36
0 50 -2 33 -4z m1035 0 c-179 -2 -476 -2 -660 0 -183 1 -36 2 327 2 363 0 513
-1 333 -2z m339 -195 c-2 -35 -3 -7 -3 62 0 69 1 97 3 63 2 -35 2 -91 0 -125z
m-2185 -25 l11 -28 10 28 c17 43 37 34 36 -15 l-2 -43 -7 35 -7 35 -12 -30
-12 -30 -19 25 -18 24 -5 -29 c-3 -24 -4 -21 -6 13 -1 48 14 55 31 15z m260
-19 c-3 -17 0 -24 11 -24 22 0 31 18 17 35 -7 9 -8 15 -2 15 13 0 23 -26 16
-45 -4 -8 -17 -15 -30 -15 -22 0 -24 4 -24 43 0 26 3 37 9 29 4 -7 6 -24 3
-38z m228 -4 c4 0 11 12 14 26 4 15 9 24 11 22 6 -6 -17 -78 -25 -78 -7 0 -30
61 -29 76 0 5 5 -3 11 -18 5 -16 13 -28 18 -28z m260 41 c0 -5 9 -11 20 -14
14 -4 20 -13 19 -34 -1 -27 -1 -27 -8 -4 -9 34 -31 39 -31 7 0 -14 -4 -26 -10
-26 -5 0 -10 18 -10 40 0 22 5 40 10 40 6 0 10 -4 10 -9z m-593 -58 c-3 -10
-5 -2 -5 17 0 19 2 27 5 18 2 -10 2 -26 0 -35z m37 20 c-10 -40 -14 -41 -14
-5 0 18 5 32 10 32 6 0 8 -11 4 -27z m34 -14 c-3 -20 -5 -19 -9 9 -3 20 -2 29
4 23 5 -5 7 -19 5 -32z m142 20 c0 -5 -9 -9 -20 -9 -25 0 -26 -17 -2 -23 13
-4 11 -5 -5 -6 -18 -1 -23 4 -23 23 0 20 4 23 22 18 16 -4 19 -2 13 8 -5 9 -4
11 3 6 7 -4 12 -11 12 -17z m32 9 c-5 -7 -12 -22 -15 -33 -4 -16 -5 -15 -6 6
-1 27 6 39 22 39 6 0 5 -5 -1 -12z m140 -14 c-4 -21 -1 -25 14 -22 14 2 18 11
16 28 -2 21 -1 22 8 8 14 -22 2 -48 -21 -48 -22 0 -34 22 -25 45 9 24 14 17 8
-11z m83 -24 c7 0 16 10 18 23 4 18 4 17 6 -6 1 -24 -2 -28 -21 -25 -17 2 -23
10 -24 28 -1 22 0 22 3 3 2 -13 10 -23 18 -23z m57 23 c-4 -23 -2 -25 17 -20
11 3 21 1 21 -4 0 -5 -11 -9 -25 -9 -20 0 -25 5 -25 23 0 20 7 37 15 37 1 0 0
-12 -3 -27z m-552 5 c0 -5 -9 -8 -20 -8 -25 0 -26 -17 -2 -23 13 -4 11 -5 -5
-6 -18 -1 -23 4 -23 22 0 17 6 22 25 22 14 0 25 -3 25 -7z m1422 -225 c-343
-2 -901 -2 -1240 0 -339 1 -59 2 623 2 682 0 960 -1 617 -2z m-1342 -418 c10
-12 6 -13 -23 -8 -29 4 -36 2 -42 -16 -10 -34 3 -61 31 -61 13 0 24 5 24 10 0
6 5 10 11 10 17 0 5 -22 -17 -30 -10 -4 -29 -4 -41 1 -18 7 -23 16 -23 47 0
21 5 43 12 50 16 16 53 15 68 -3z m357 -67 c-2 -18 -4 -6 -4 27 0 33 2 48 4
33 2 -15 2 -42 0 -60z m1073 67 c10 -12 6 -13 -23 -8 -29 4 -35 2 -40 -18 -12
-45 30 -78 61 -47 9 9 12 9 12 0 0 -6 -9 -16 -21 -22 -46 -25 -87 38 -59 91
13 22 52 25 70 4z m240 5 c0 -5 -4 -10 -9 -10 -5 0 -9 -6 -8 -12 0 -7 -1 -29
-3 -48 l-2 -35 -8 40 c-8 40 2 75 20 75 6 0 10 -4 10 -10z m-1589 -63 c6 -38
6 -38 -25 -35 -36 4 -43 31 -8 36 12 2 22 10 22 19 0 10 -6 14 -20 10 -11 -3
-17 -1 -14 4 13 22 39 3 45 -34z m86 -2 l1 -40 -6 35 c-4 22 -13 35 -22 35 -9
0 -17 -13 -21 -35 l-6 -35 -2 37 c-1 36 10 48 39 45 10 -2 15 -15 17 -42z m81
25 c5 -13 3 -13 -12 -1 -15 13 -19 13 -27 0 -16 -25 -5 -44 25 -42 20 2 26 -1
19 -8 -19 -19 -58 -6 -61 19 -6 43 43 71 56 32z m66 14 c27 -10 20 -44 -9 -44
-14 0 -25 -5 -25 -11 0 -7 10 -9 25 -7 14 3 25 1 25 -4 0 -5 -12 -8 -27 -6
-22 2 -29 9 -31 32 -2 16 2 32 10 37 16 10 13 10 32 3z m1201 -34 c0 -29 -4
-36 -24 -38 -39 -6 -54 33 -25 63 27 26 49 15 49 -25z m83 28 c7 -7 12 -25 12
-42 0 -35 -17 -24 -22 14 -4 36 -22 31 -26 -7 -4 -44 -22 -42 -22 1 0 32 4 37
41 45 3 0 10 -4 17 -11z m269 -33 c1 -38 1 -39 -5 -7 -9 43 -26 46 -30 5 -2
-18 -7 -33 -12 -33 -5 0 -10 15 -12 33 -4 41 -21 38 -29 -5 l-6 -33 -2 37 c-1
40 6 45 59 43 34 -1 35 -2 37 -40z m-177 0 c0 -19 -2 -35 -4 -35 -2 0 -6 16
-8 35 -2 19 0 35 4 35 4 0 8 -16 8 -35z m42 0 c-2 -19 -8 -32 -13 -29 -10 6
-12 48 -2 57 14 15 19 6 15 -28z m-527 -675 c4 -6 -5 -10 -19 -10 -33 0 -36
-29 -3 -31 l22 -2 -22 -4 c-32 -6 -30 -33 2 -33 14 0 25 -5 25 -11 0 -6 -14
-9 -32 -7 -30 3 -33 6 -36 42 -2 21 -1 44 2 52 6 16 52 19 61 4z m-1361 -17
c19 24 29 21 15 -5 -6 -12 -15 -33 -20 -47 -6 -22 -7 -23 -8 -5 -1 11 -8 29
-16 40 -8 10 -14 24 -14 29 0 6 7 1 15 -10 14 -19 16 -19 28 -2z m593 -50 c-2
-16 -4 -5 -4 22 0 28 2 40 4 28 2 -13 2 -35 0 -50z m161 -19 c-13 -12 -52 -7
-62 9 -14 21 3 52 29 52 10 0 21 7 24 15 3 8 7 -5 9 -29 2 -23 2 -45 0 -47z
m717 65 c15 -3 20 -13 22 -39 1 -34 1 -34 -5 -5 -4 17 -14 30 -22 30 -8 0 -18
-13 -21 -30 -5 -24 -7 -21 -8 20 0 28 3 45 7 39 4 -7 16 -13 27 -15z m-63 -34
c3 -45 -4 -59 -16 -29 -9 24 -7 74 3 74 5 0 11 -20 13 -45z m-1328 29 c24 -9
21 -61 -4 -69 -11 -3 -24 -3 -30 0 -14 9 -12 62 3 68 6 3 13 6 14 6 1 1 8 -2
17 -5z m200 -3 c3 -5 -2 -8 -12 -7 -12 1 -17 -6 -17 -24 0 -19 4 -24 20 -22
16 3 17 1 8 -8 -19 -20 -43 -4 -43 29 0 33 30 55 44 32z m74 -3 c7 -7 12 -24
12 -38 0 -22 -4 -26 -27 -25 -18 0 -29 6 -31 18 -2 9 1 17 7 17 6 0 10 -4 9
-9 -2 -5 1 -11 7 -12 5 -2 11 9 12 24 2 24 -1 27 -20 22 -17 -5 -19 -4 -7 4
19 14 23 14 38 -1z m89 -28 c1 -34 1 -34 -5 -5 -4 17 -14 30 -22 30 -8 0 -18
-13 -21 -30 l-7 -30 -1 32 c-1 31 11 43 39 40 10 -1 16 -14 17 -37z m111 31
c21 -13 11 -65 -13 -70 -11 -2 -23 -8 -27 -15 -4 -6 -8 10 -8 36 0 41 7 54 30
57 3 0 11 -3 18 -8z m120 -14 c2 -11 -3 -17 -17 -17 -11 0 -23 -4 -26 -10 -6
-10 7 -14 35 -10 11 1 12 -1 4 -10 -21 -21 -54 -2 -54 30 0 16 6 31 13 33 21
10 42 2 45 -16z m153 13 c10 0 12 -34 3 -67 -4 -16 -14 -23 -30 -23 -13 0 -24
4 -24 9 0 5 9 7 20 4 12 -3 20 0 20 6 0 7 -5 9 -10 6 -14 -9 -40 13 -40 34 0
23 21 43 38 36 8 -3 18 -5 23 -5z m77 -2 c19 -19 14 -28 -14 -28 -16 0 -24 -5
-21 -12 2 -7 12 -12 22 -10 10 2 14 -1 10 -7 -20 -34 -64 13 -45 49 12 23 30
26 48 8z m118 -74 c-6 -15 -42 -19 -50 -5 -3 4 6 6 19 3 15 -2 25 0 25 7 0 7
-6 11 -12 10 -31 -4 -38 2 -37 34 2 31 2 31 6 4 6 -38 36 -32 43 8 4 28 4 28
8 -9 2 -21 1 -44 -2 -52z m79 46 c0 -31 -3 -35 -25 -35 -20 0 -26 6 -28 29 -4
30 12 48 38 43 10 -1 15 -14 15 -37z m459 34 c26 -10 19 -34 -10 -34 -16 0
-24 -5 -21 -12 2 -7 15 -12 28 -11 21 2 22 2 6 -8 -10 -6 -25 -8 -33 -5 -17 7
-19 62 -1 69 6 3 13 6 14 6 1 1 8 -2 17 -5z m120 0 c23 -9 20 -34 -4 -34 -11
0 -20 -7 -20 -15 0 -18 12 -19 28 -3 9 9 12 9 12 0 0 -19 -28 -26 -45 -12 -18
15 -20 56 -2 63 6 3 13 6 14 6 1 1 8 -2 17 -5z m213 -34 c1 -34 1 -34 -5 -6
-9 39 -25 39 -33 1 -6 -28 -7 -28 -8 -4 0 14 -6 30 -12 36 -8 8 -1 10 23 9 30
-1 33 -4 35 -36z m107 28 c17 -56 16 -64 -12 -63 -33 0 -43 30 -13 40 29 9 27
28 -1 20 -18 -5 -20 -4 -8 4 20 14 30 14 34 -1z m71 2 c3 -6 -1 -7 -9 -4 -23
9 -19 -9 5 -24 16 -11 18 -16 9 -28 -15 -17 -36 -18 -46 -2 -5 7 -2 9 8 5 27
-10 30 6 6 25 -20 15 -21 19 -8 28 19 12 27 12 35 0z m-1932 -52 c4 1 11 2 16
2 5 0 12 12 14 28 4 26 4 25 6 -5 1 -24 -4 -33 -19 -38 -29 -9 -40 2 -39 38
l1 32 7 -30 c3 -16 10 -29 14 -27z m1017 -3 c8 0 18 13 21 30 l7 30 1 -32 c1
-23 -4 -33 -19 -38 -29 -9 -40 2 -39 38 l1 32 7 -30 c3 -17 13 -30 21 -30z
m72 25 c-5 -36 -7 -35 -16 3 -4 19 -3 27 7 27 9 0 12 -9 9 -30z m380 0 c-2
-16 -8 -30 -13 -30 -5 0 -9 14 -9 30 0 18 5 30 13 30 9 0 12 -10 9 -30z m133
-25 c6 0 11 12 13 28 4 36 22 35 22 -2 0 -21 -6 -30 -22 -34 -30 -8 -38 -1
-37 36 l1 32 7 -30 c3 -16 11 -30 16 -30z m67 25 c-2 -16 -6 -30 -8 -30 -2 0
-4 14 -4 30 0 17 4 30 8 30 5 0 7 -13 4 -30z m-2016 -3 c22 -19 28 -34 32 -81
3 -36 10 -60 18 -63 35 -13 -7 -23 -101 -23 -104 0 -128 7 -100 30 9 8 15 30
15 60 0 88 74 130 136 77z m244 -112 c14 -17 0 -21 -16 -5 -18 18 -44 0 -44
-30 0 -33 20 -53 40 -40 24 15 37 11 16 -5 -11 -8 -25 -15 -32 -15 -20 0 -44
30 -44 55 0 46 53 72 80 40z m147 -62 c-2 -16 -4 -3 -4 27 0 30 2 43 4 28 2
-16 2 -40 0 -55z m360 0 c-2 -16 -4 -3 -4 27 0 30 2 43 4 28 2 -16 2 -40 0
-55z m-400 0 c-2 -16 -4 -5 -4 22 0 28 2 40 4 28 2 -13 2 -35 0 -50z m900 0
c-2 -16 -4 -5 -4 22 0 28 2 40 4 28 2 -13 2 -35 0 -50z m98 46 c14 -3 21 -13
23 -37 2 -17 -1 -32 -5 -32 -5 0 -9 12 -8 28 0 17 -5 27 -15 27 -10 0 -15 -10
-15 -27 1 -16 -3 -28 -7 -28 -4 0 -8 21 -8 48 0 26 4 42 8 36 4 -7 16 -13 27
-15z m-833 -29 c2 -25 0 -39 -7 -37 -13 4 -19 77 -7 77 6 0 12 -18 14 -40z
m319 33 c4 -46 2 -72 -6 -70 -14 5 -19 77 -6 77 6 0 11 -3 12 -7z m-511 -18
c14 -16 10 -47 -6 -52 -7 -2 -10 5 -7 20 6 28 -15 47 -28 26 -5 -8 -6 -22 -3
-33 4 -12 2 -16 -5 -12 -24 15 -5 66 25 66 6 0 17 -7 24 -15z m134 9 c18 -7
23 -64 6 -64 -5 0 -9 3 -9 8 1 4 1 17 0 30 -1 19 -5 22 -23 17 -18 -5 -20 -4
-8 4 18 13 15 12 34 5z m134 -6 c16 -16 15 -28 -3 -28 -9 0 -12 6 -8 16 4 12
2 15 -8 12 -8 -3 -14 -17 -13 -31 0 -15 -4 -27 -8 -27 -4 0 -8 2 -8 4 0 2 -3
11 -6 19 -5 14 19 47 35 47 4 0 12 -5 19 -12z m120 0 c15 -15 16 -58 2 -58 -5
0 -10 14 -10 31 0 27 -3 30 -22 24 -18 -5 -20 -4 -8 4 19 14 23 14 38 -1z
m196 6 c16 -6 23 -64 8 -64 -4 0 -8 12 -7 28 0 17 -5 27 -15 27 -10 0 -15 -10
-15 -27 1 -16 -3 -28 -7 -28 -4 0 -8 2 -8 4 0 2 -3 11 -6 19 -3 8 2 22 11 31
19 18 18 18 39 10z m110 0 c17 -6 23 -64 7 -64 -4 0 -8 12 -7 28 1 20 -4 27
-16 26 -10 -1 -15 2 -12 7 6 11 8 11 28 3z m154 -6 c16 -16 15 -58 -1 -58 -9
0 -12 10 -9 31 4 29 3 31 -19 24 -19 -5 -21 -4 -9 4 19 14 23 14 38 -1z m270
3 c18 -11 12 -53 -8 -58 -12 -4 -12 -3 -2 5 18 12 11 47 -8 47 -10 0 -15 -10
-15 -27 1 -31 -9 -37 -19 -12 -7 19 10 54 27 54 7 0 18 -4 25 -9z m55 -9 c-6
-4 -13 -18 -16 -32 -4 -22 -4 -21 -6 7 0 17 5 33 12 36 16 6 24 -2 10 -11z
m50 0 c-6 -4 -13 -18 -16 -32 -4 -22 -4 -21 -6 7 0 17 5 33 12 36 16 6 24 -2
10 -11z m77 3 c14 -16 10 -47 -6 -52 -7 -2 -10 5 -7 20 6 28 -15 47 -28 26 -5
-8 -6 -22 -3 -33 4 -12 2 -16 -5 -12 -24 15 -5 66 25 66 6 0 17 -7 24 -15z
m227 -26 c1 -33 1 -33 -5 -5 -9 38 -26 40 -30 4 -4 -37 -22 -36 -22 1 0 20 6
31 18 34 30 8 37 2 39 -34z m71 32 c8 -5 12 -23 10 -47 -2 -31 -7 -39 -23 -40
-15 -1 -16 0 -2 3 24 6 21 21 -5 25 -27 3 -38 46 -16 59 16 11 20 11 36 0z
m-1286 -31 c-2 -16 -6 -30 -8 -30 -2 0 -4 14 -4 30 0 17 4 30 8 30 5 0 7 -13
4 -30z m435 8 l11 -23 10 25 c12 28 15 17 6 -17 -9 -32 -28 -29 -41 7 -13 35
-1 41 14 8z m140 -25 c-3 -10 -5 -2 -5 17 0 19 2 27 5 18 2 -10 2 -26 0 -35z
m466 31 c9 23 23 20 32 -6 l7 -23 8 25 c7 21 8 22 9 5 1 -21 -15 -53 -22 -45
-2 3 -9 14 -14 24 -10 19 -11 18 -17 -2 -8 -25 -26 -30 -26 -8 0 8 -3 23 -6
33 -6 17 -6 17 8 -1 13 -17 15 -17 21 -2z m94 -31 c-3 -10 -5 -2 -5 17 0 19 2
27 5 18 2 -10 2 -26 0 -35z m-1340 2 c0 -8 -4 -15 -9 -15 -4 0 -8 7 -8 15 0 8
4 15 8 15 5 0 9 -7 9 -15z m250 0 c0 -8 -4 -15 -9 -15 -4 0 -8 7 -8 15 0 8 4
15 8 15 5 0 9 -7 9 -15z m313 0 c0 -8 -4 -15 -10 -15 -5 0 -10 7 -10 15 0 8 5
15 10 15 6 0 10 -7 10 -15z m147 0 c0 -8 -4 -15 -9 -15 -4 0 -8 7 -8 15 0 8 4
15 8 15 5 0 9 -7 9 -15z m-1169 -17 c-3 -7 -13 -13 -23 -13 -10 0 -20 6 -22
13 -3 7 5 12 22 12 17 0 25 -5 23 -12z m2645 -763 c-5 -22 -10 -25 -49 -25
-44 0 -44 0 -44 35 0 34 1 35 40 35 35 0 40 3 41 23 1 16 3 14 9 -10 4 -18 5
-44 3 -58z m-2343 41 c0 -2 -9 -6 -20 -9 -11 -3 -18 -1 -14 4 5 9 34 13 34 5z
m245 -6 c3 -6 -1 -7 -9 -4 -18 7 -21 14 -7 14 6 0 13 -4 16 -10z m-90 -20 c-3
-5 -14 -10 -23 -9 -14 0 -13 2 3 9 27 11 27 11 20 0z m2435 -150 c0 -11 -2306
-10 -2935 0 -171 3 420 6 1313 8 1098 1 1622 -1 1622 -8z m-3022 -127 c-32 -5
-38 -33 -8 -33 11 0 20 -4 20 -10 0 -5 -9 -10 -20 -10 -11 0 -20 -7 -20 -15 0
-9 9 -15 25 -15 14 0 25 -5 25 -11 0 -6 -14 -9 -32 -7 -30 3 -33 6 -36 42 -5
55 2 66 40 65 30 -2 31 -2 6 -6z m135 -25 c17 -2 22 -10 24 -38 1 -34 1 -34
-5 -5 -10 42 -35 39 -43 -5 -5 -27 -6 -22 -7 25 0 33 2 52 5 43 2 -9 14 -18
26 -20z m2028 15 c12 -15 12 -16 -3 -10 -12 4 -18 1 -18 -9 0 -8 7 -17 15 -20
21 -9 19 -51 -4 -63 -14 -8 -23 -6 -37 11 -17 19 -17 21 -1 15 21 -8 23 15 2
33 -20 17 -19 37 3 49 23 14 27 14 43 -6z m-2092 -21 c-13 -5 -11 -46 4 -61
10 -11 9 -13 -3 -9 -15 5 -30 62 -22 85 3 9 7 9 17 0 7 -7 9 -13 4 -15z m2139
-29 c-2 -57 -2 -57 -5 -10 -2 26 -9 47 -14 47 -6 0 -7 5 -4 10 15 25 25 5 23
-47z m131 40 c0 -11 -3 -13 -6 -5 -7 17 -43 15 -43 -3 0 -9 9 -15 24 -15 29 0
44 -33 26 -55 -16 -20 -56 -19 -64 1 -19 49 -2 94 35 94 21 0 29 -5 28 -17z
m63 -37 c-15 -30 -28 -48 -30 -40 -2 8 5 30 17 49 l20 34 -32 4 c-28 3 -26 4
10 5 l41 2 -26 -54z m98 27 c-1 -16 0 -36 2 -47 4 -26 -27 -44 -49 -30 -10 7
-17 20 -15 30 2 11 3 31 2 47 0 24 3 27 30 27 27 0 30 -3 30 -27z m88 -25 c-3
-51 -4 -53 -32 -53 -17 0 -31 6 -34 15 -5 13 -3 13 11 1 20 -16 47 -8 47 14 0
9 -5 13 -10 10 -22 -14 -50 6 -50 36 0 27 3 29 36 29 l35 0 -3 -52z m112 45
c0 -5 -11 -30 -25 -58 -14 -30 -24 -42 -24 -30 0 11 6 31 14 45 19 34 19 38
-7 43 -17 3 -14 5 10 6 17 0 32 -2 32 -6z m88 -36 c2 -21 -2 -45 -9 -53 -15
-18 -51 -14 -57 6 -5 13 -3 13 11 2 18 -15 37 -8 37 12 0 7 -10 12 -21 12 -26
-1 -45 25 -36 48 5 12 16 16 39 14 30 -3 33 -6 36 -41z m-2548 19 c0 -2 3 -11
6 -20 5 -13 -1 -16 -26 -16 -21 0 -30 -4 -27 -12 2 -7 14 -13 26 -12 11 0 21
-3 21 -8 0 -12 -34 -10 -48 4 -13 13 -16 50 -5 61 7 8 53 10 53 3z m52 -8 c-7
-7 -12 -26 -13 -42 l-1 -31 -8 35 c-10 39 -6 50 18 50 12 0 13 -3 4 -12z m78
8 c0 -2 3 -11 6 -20 5 -12 0 -16 -21 -16 -17 0 -25 -5 -22 -12 2 -7 12 -12 21
-12 9 1 16 -2 16 -7 0 -13 -34 -11 -48 3 -13 13 -16 50 -5 61 7 8 53 10 53 3z
m57 -63 c7 -3 15 8 19 24 10 47 12 49 13 12 1 -25 -4 -39 -15 -43 -36 -14 -44
-7 -43 37 2 42 2 42 8 8 3 -19 11 -36 18 -38z m160 22 l1 -40 -6 35 c-4 22
-13 35 -22 35 -9 0 -17 -13 -21 -35 l-6 -35 -2 38 c-1 47 -31 54 -31 7 0 -16
-4 -30 -10 -30 -11 0 -14 53 -3 63 3 4 27 6 52 5 l46 -3 2 -40z m1668 -34 c3
-5 1 -12 -5 -16 -5 -3 -10 1 -10 9 0 18 6 21 15 7z m-2160 -94 c19 -4 19 -5
-2 -6 -12 0 -24 -9 -26 -18 -3 -10 -5 -2 -6 17 0 19 3 30 7 24 4 -7 16 -14 27
-17z m-118 -3 c-3 -3 -12 -4 -19 -1 -8 3 -5 6 6 6 11 1 17 -2 13 -5z m18 -459
c0 -34 -3 -40 -22 -43 -13 -2 -23 1 -23 6 0 6 9 8 20 5 14 -4 20 0 20 11 0 9
-5 16 -11 16 -8 0 -8 4 0 14 14 17 -2 32 -21 20 -7 -4 -8 -3 -4 5 4 7 15 11
24 9 13 -2 17 -14 17 -43z m65 22 c0 -12 -10 -29 -22 -36 l-23 -15 25 -7 25
-7 -27 -1 c-33 -1 -37 19 -8 37 27 16 27 46 0 39 -11 -3 -18 -1 -14 4 3 5 14
9 25 9 13 0 19 -7 19 -23z m1125 -22 c0 -31 -4 -41 -19 -43 -10 -2 -23 1 -30
8 -8 9 -4 10 17 5 29 -8 39 11 12 21 -14 6 -13 8 1 19 19 13 3 32 -18 19 -7
-4 -8 -3 -4 5 4 7 15 11 24 9 13 -2 17 -14 17 -43z m40 32 c-10 -8 -15 -19
-11 -25 4 -7 2 -12 -3 -12 -6 0 -11 11 -11 25 0 19 5 25 22 25 21 0 21 -1 3
-13z m1155 -17 c0 -16 5 -30 11 -30 5 0 9 8 8 18 -3 36 1 43 24 40 18 -2 22
-10 24 -45 3 -39 1 -43 -20 -43 -13 0 -28 5 -35 12 -9 9 -12 9 -12 0 0 -14
-36 -16 -44 -3 -4 5 3 7 14 4 14 -4 20 0 20 11 0 9 -6 16 -12 17 -10 0 -10 2
0 6 21 8 14 36 -8 30 -11 -3 -18 -1 -14 4 3 5 14 9 25 9 14 0 19 -7 19 -30z
m-2220 -36 c0 -19 -5 -24 -24 -24 -13 0 -27 7 -30 16 -10 25 -7 29 7 9 17 -23
37 -12 29 17 -3 14 -2 19 6 14 7 -4 12 -18 12 -32z m68 14 l11 -23 0 24 c1 13
4 22 7 18 9 -9 -5 -57 -16 -57 -6 0 -10 7 -10 15 0 8 -4 15 -10 15 -5 0 -10
-7 -10 -15 0 -8 -4 -15 -9 -15 -10 0 -23 41 -16 49 3 2 5 -1 5 -7 0 -7 5 -12
10 -12 6 0 10 7 10 15 0 22 15 18 28 -7z m67 -6 c-30 -4 -33 -19 -5 -25 17 -4
17 -4 -2 -3 -30 1 -38 36 -9 36 12 0 21 6 21 13 0 8 4 7 10 -3 7 -12 4 -16
-15 -18z m958 -18 c-6 -15 -53 -20 -53 -5 0 5 10 7 21 4 20 -5 21 -3 16 23 -5
26 -4 27 8 10 8 -10 11 -24 8 -32z m54 24 c-2 -18 3 -23 21 -21 12 2 22 -2 22
-7 0 -16 -50 -11 -56 5 -6 15 1 45 11 45 2 0 4 -10 2 -22z m38 12 c3 -5 1 -10
-4 -10 -6 0 -11 5 -11 10 0 6 2 10 4 10 3 0 8 -4 11 -10z m40 -48 c-8 -8 -13
0 -20 33 l-7 30 16 -29 c9 -16 14 -31 11 -34z m31 36 c7 -22 7 -22 15 -3 5 13
8 15 8 5 0 -8 -4 -22 -9 -30 -8 -13 -11 -11 -16 7 -4 13 -10 20 -15 17 -5 -3
-9 2 -9 10 0 24 18 19 26 -6z m74 12 c8 13 10 13 10 -2 0 -9 -10 -18 -22 -21
-23 -4 -23 -4 2 -15 23 -10 24 -11 4 -11 -24 -1 -37 20 -27 45 5 13 7 13 14 2
7 -11 11 -10 19 2z m37 -37 c-3 -10 -5 -2 -5 17 0 19 2 27 5 18 2 -10 2 -26 0
-35z m975 22 c-3 -18 0 -25 11 -25 9 0 17 11 20 28 3 17 4 11 5 -18 1 -25 -2
-40 -6 -34 -4 6 -15 13 -24 17 -18 6 -26 57 -9 57 4 0 6 -11 3 -25z m79 -5 c5
0 9 7 9 16 0 8 4 13 9 10 5 -4 4 -17 -2 -31 -11 -24 -27 -34 -27 -17 0 4 -2
16 -4 27 -2 11 -1 14 1 8 3 -7 9 -13 14 -13z m119 15 c0 -8 -9 -15 -20 -15
-11 0 -20 -5 -20 -11 0 -6 9 -9 20 -6 11 3 20 1 20 -5 0 -20 -45 -3 -48 19 -3
18 1 20 19 16 15 -4 20 -3 15 5 -4 7 -2 12 3 12 6 0 11 -7 11 -15z m27 -32
c-3 -10 -5 -2 -5 17 0 19 2 27 5 18 2 -10 2 -26 0 -35z m-2390 0 c-3 -10 -5
-4 -5 12 0 17 2 24 5 18 2 -7 2 -21 0 -30z m2293 -4 c0 -5 -4 -9 -10 -9 -5 0
-10 7 -10 16 0 8 5 12 10 9 6 -3 10 -10 10 -16z m-115 -29 c3 -6 -1 -7 -9 -4
-18 7 -21 14 -7 14 6 0 13 -4 16 -10z"/>
<path d="M3342 8258 c2 -15 11 -24 26 -26 18 -3 22 1 22 22 0 21 -5 26 -26 26
-21 0 -25 -4 -22 -22z"/>
<path d="M3450 8255 c0 -20 5 -25 25 -25 20 0 25 5 25 25 0 20 -5 25 -25 25
-20 0 -25 -5 -25 -25z"/>
<path d="M857 8264 c-4 -4 -7 -18 -7 -31 0 -19 5 -23 31 -23 27 0 30 3 27 28
-3 26 -34 43 -51 26z"/>
<path d="M996 8228 c-9 -35 -8 -38 14 -38 11 0 20 3 20 8 0 19 -13 52 -20 52
-4 0 -10 -10 -14 -22z"/>
<path d="M1110 8210 c0 -56 2 -60 23 -60 33 0 47 18 47 60 0 42 -14 60 -47 60
-21 0 -23 -4 -23 -60z"/>
<path d="M2960 8194 c0 -33 33 -30 38 4 3 17 -2 22 -17 22 -16 0 -21 -6 -21
-26z"/>
<path d="M3342 8148 c2 -15 10 -23 23 -23 13 0 21 8 23 23 3 18 -1 22 -23 22
-22 0 -26 -4 -23 -22z"/>
<path d="M3452 8148 c2 -15 10 -23 23 -23 13 0 21 8 23 23 3 18 -1 22 -23 22
-22 0 -26 -4 -23 -22z"/>
<path d="M755 7320 c-4 -6 5 -10 19 -10 14 0 26 5 26 10 0 6 -9 10 -19 10 -11
0 -23 -4 -26 -10z"/>
<path d="M725 6770 c-10 -11 -13 -20 -7 -20 7 0 12 -15 12 -35 0 -19 5 -35 10
-35 6 0 10 25 10 55 0 30 -2 55 -3 55 -2 0 -12 -9 -22 -20z"/>
<path d="M3020 6255 c0 -16 6 -25 15 -25 9 0 15 9 15 25 0 16 -6 25 -15 25 -9
0 -15 -9 -15 -25z"/>
<path d="M650 6270 c0 -5 7 -10 15 -10 8 0 15 5 15 10 0 6 -7 10 -15 10 -8 0
-15 -4 -15 -10z"/>
<path d="M980 6270 c0 -5 7 -10 15 -10 8 0 15 5 15 10 0 6 -7 10 -15 10 -8 0
-15 -4 -15 -10z"/>
<path d="M1095 6270 c3 -5 10 -10 16 -10 5 0 9 5 9 10 0 6 -7 10 -16 10 -8 0
-12 -4 -9 -10z"/>
<path d="M1460 6270 c0 -5 7 -10 15 -10 8 0 15 5 15 10 0 6 -7 10 -15 10 -8 0
-15 -4 -15 -10z"/>
<path d="M1640 6255 c0 -20 4 -26 18 -23 9 2 17 12 17 23 0 11 -8 21 -17 23
-14 3 -18 -3 -18 -23z"/>
<path d="M1785 6240 c3 -5 13 -10 21 -10 8 0 14 5 14 10 0 6 -9 10 -21 10 -11
0 -17 -4 -14 -10z"/>
<path d="M1915 6270 c3 -5 10 -10 16 -10 5 0 9 5 9 10 0 6 -7 10 -16 10 -8 0
-12 -4 -9 -10z"/>
<path d="M2038 6238 c9 -9 15 -9 24 0 9 9 7 12 -12 12 -19 0 -21 -3 -12 -12z"/>
<path d="M2250 6240 c0 -5 7 -10 15 -10 8 0 15 5 15 10 0 6 -7 10 -15 10 -8 0
-15 -4 -15 -10z"/>
<path d="M2410 6254 c0 -33 33 -30 38 4 3 17 -2 22 -17 22 -16 0 -21 -6 -21
-26z"/>
<path d="M2735 6270 c3 -5 10 -10 16 -10 5 0 9 5 9 10 0 6 -7 10 -16 10 -8 0
-12 -4 -9 -10z"/>
<path d="M2940 6255 c0 -20 4 -26 18 -23 9 2 17 12 17 23 0 11 -8 21 -17 23
-14 3 -18 -3 -18 -23z"/>
<path d="M3184 6265 c-7 -18 3 -35 22 -35 8 0 14 10 14 25 0 27 -27 35 -36 10z"/>
<path d="M580 6100 c0 -5 7 -10 15 -10 8 0 15 5 15 10 0 6 -7 10 -15 10 -8 0
-15 -4 -15 -10z"/>
<path d="M1370 6100 c0 -5 4 -10 9 -10 6 0 13 5 16 10 3 6 -1 10 -9 10 -9 0
-16 -4 -16 -10z"/>
<path d="M723 6094 c-7 -18 11 -39 26 -30 17 11 13 46 -4 46 -9 0 -18 -7 -22
-16z"/>
<path d="M1725 5620 c-3 -5 -1 -10 4 -10 6 0 11 5 11 10 0 6 -2 10 -4 10 -3 0
-8 -4 -11 -10z"/>
<path d="M1085 5640 c-7 -12 2 -30 16 -30 5 0 9 9 9 20 0 21 -15 27 -25 10z"/>
<path d="M1190 5630 c0 -11 7 -20 15 -20 8 0 15 9 15 20 0 11 -7 20 -15 20 -8
0 -15 -9 -15 -20z"/>
<path d="M1380 5630 c0 -13 5 -20 13 -17 6 2 12 10 12 17 0 7 -6 15 -12 18 -8
2 -13 -5 -13 -18z"/>
<path d="M1510 5620 c0 -5 5 -10 10 -10 6 0 10 5 10 10 0 6 -4 10 -10 10 -5 0
-10 -4 -10 -10z"/>
<path d="M1145 4260 c-3 -5 3 -10 14 -10 12 0 21 5 21 10 0 6 -6 10 -14 10 -8
0 -18 -4 -21 -10z"/>
<path d="M1395 4301 c-7 -12 12 -24 25 -16 11 7 4 25 -10 25 -5 0 -11 -4 -15
-9z"/>
<path d="M2587 4304 c-4 -4 -7 -18 -7 -31 0 -17 6 -23 21 -23 16 0 20 5 17 27
-3 26 -18 39 -31 27z"/>
<path d="M1662 3546 c2 -15 8 -26 13 -26 15 0 12 43 -3 48 -10 3 -13 -4 -10
-22z"/>
<path d="M1004 3556 c-8 -22 3 -49 19 -43 6 2 12 14 12 27 0 27 -22 39 -31 16z"/>
<path d="M1474 3556 c-9 -24 3 -47 21 -40 18 7 16 45 -2 52 -7 2 -16 -3 -19
-12z"/>
<path d="M1585 3560 c-3 -5 3 -10 15 -10 12 0 18 5 15 10 -3 6 -10 10 -15 10
-5 0 -12 -4 -15 -10z"/>
<path d="M1746 3563 c-12 -12 -6 -43 9 -43 8 0 15 9 15 19 0 21 -13 34 -24 24z"/>
<path d="M1820 3560 c0 -5 7 -10 16 -10 8 0 12 5 9 10 -3 6 -10 10 -16 10 -5
0 -9 -4 -9 -10z"/>
<path d="M2017 3563 c-13 -12 -7 -41 8 -47 18 -6 30 16 21 39 -6 16 -18 19
-29 8z"/>
<path d="M2485 3560 c-3 -5 3 -10 15 -10 12 0 18 5 15 10 -3 6 -10 10 -15 10
-5 0 -12 -4 -15 -10z"/>
<path d="M2605 3560 c-3 -5 3 -10 15 -10 12 0 18 5 15 10 -3 6 -10 10 -15 10
-5 0 -12 -4 -15 -10z"/>
<path d="M2925 3531 c-6 -11 9 -23 19 -14 9 9 7 23 -3 23 -6 0 -12 -4 -16 -9z"/>
<path d="M650 3520 c-15 -15 -20 -33 -20 -75 l0 -55 66 0 66 0 -4 61 c-3 45
-10 65 -23 75 -27 20 -62 17 -85 -6z"/>
<path d="M2637 3394 c-16 -16 -7 -44 14 -44 15 0 20 5 17 22 -3 22 -19 33 -31
22z"/>
<path d="M2711 2284 c0 -11 3 -14 6 -6 3 7 2 16 -1 19 -3 4 -6 -2 -5 -13z"/>
<path d="M2730 2235 c0 -8 5 -15 10 -15 6 0 10 7 10 15 0 8 -4 15 -10 15 -5 0
-10 -7 -10 -15z"/>
<path d="M2882 2238 c2 -12 10 -23 18 -23 22 0 19 39 -3 43 -15 3 -18 -1 -15
-20z"/>
<path d="M3040 2285 c0 -8 9 -15 20 -15 11 0 20 7 20 15 0 8 -9 15 -20 15 -11
0 -20 -7 -20 -15z"/>
<path d="M3042 2233 c2 -10 10 -18 18 -18 8 0 16 8 18 18 2 12 -3 17 -18 17
-15 0 -20 -5 -18 -17z"/>
<path d="M3125 2291 c-9 -16 3 -31 26 -31 14 0 19 6 17 17 -4 20 -33 29 -43
14z"/>
<path d="M3320 2280 c0 -13 7 -20 20 -20 13 0 20 7 20 20 0 13 -7 20 -20 20
-13 0 -20 -7 -20 -20z"/>
<path d="M790 2270 c0 -5 7 -10 15 -10 8 0 15 5 15 10 0 6 -7 10 -15 10 -8 0
-15 -4 -15 -10z"/>
<path d="M920 2270 c0 -5 7 -10 15 -10 8 0 15 5 15 10 0 6 -7 10 -15 10 -8 0
-15 -4 -15 -10z"/>
<path d="M3000 1675 c0 -9 5 -15 11 -13 6 2 11 8 11 13 0 5 -5 11 -11 13 -6 2
-11 -4 -11 -13z"/>
<path d="M2997 1644 c-9 -10 2 -24 19 -24 8 0 14 7 14 15 0 15 -21 21 -33 9z"/>
<path d="M3560 8776 c0 -2 7 -7 16 -10 8 -3 12 -2 9 4 -6 10 -25 14 -25 6z"/>
<path d="M220 8653 l-55 -58 58 55 c31 30 57 56 57 57 0 8 -10 -1 -60 -54z"/>
<path d="M3730 8655 c30 -30 57 -55 59 -55 3 0 -19 25 -49 55 -30 30 -57 55
-59 55 -3 0 19 -25 49 -55z"/>
<path d="M62 8350 c0 -14 2 -19 5 -12 2 6 2 18 0 25 -3 6 -5 1 -5 -13z"/>
<path d="M3892 8350 c0 -14 2 -19 5 -12 2 6 2 18 0 25 -3 6 -5 1 -5 -13z"/>
<path d="M4338 8343 c28 -2 76 -2 105 0 28 2 5 3 -53 3 -58 0 -81 -1 -52 -3z"/>
<path d="M4238 8333 c7 -3 16 -2 19 1 4 3 -2 6 -13 5 -11 0 -14 -3 -6 -6z"/>
<path d="M4543 8333 c9 -2 23 -2 30 0 6 3 -1 5 -18 5 -16 0 -22 -2 -12 -5z"/>
<path d="M4628 8323 c6 -2 18 -2 25 0 6 3 1 5 -13 5 -14 0 -19 -2 -12 -5z"/>
<path d="M4713 8313 c9 -2 23 -2 30 0 6 3 -1 5 -18 5 -16 0 -22 -2 -12 -5z"/>
<path d="M4778 8303 c6 -2 18 -2 25 0 6 3 1 5 -13 5 -14 0 -19 -2 -12 -5z"/>
<path d="M4243 8285 c-108 -30 -216 -101 -283 -186 l-40 -51 0 38 c0 33 8 47
53 94 l52 55 -52 -50 c-29 -27 -54 -45 -55 -40 -2 6 -5 -1511 -8 -3370 -6
-3771 1 -3439 -75 -3584 -63 -120 -194 -233 -315 -274 -104 -35 -190 -37
-1528 -39 l-1327 -3 1104 -2 c869 -3 1107 -6 1113 -16 6 -9 8 -9 8 1 0 6 8 12
19 12 13 0 28 -20 51 -66 37 -75 130 -176 200 -217 64 -37 195 -72 356 -97
184 -27 2315 -326 2424 -340 107 -13 232 -13 290 1 136 31 290 150 349 271 63
129 8 -234 551 3638 225 1609 417 2972 426 3030 8 58 18 169 21 246 5 125 3
150 -15 211 -41 133 -154 267 -275 323 -114 54 -67 46 -1732 281 -1066 149
-1207 164 -1312 134z m109 -427 c15 -13 98 -132 98 -142 0 -3 -13 -12 -29 -20
l-28 -15 -57 89 c-31 50 -56 92 -56 95 0 10 57 5 72 -7z m279 -98 c23 -13 25
-53 3 -75 -13 -13 -14 -21 -6 -41 7 -13 8 -24 3 -24 -5 0 -14 14 -20 30 -13
39 -51 43 -51 5 0 -14 -5 -25 -11 -25 -6 0 -8 11 -5 28 3 15 8 46 11 70 6 36
10 42 32 42 13 0 33 -5 44 -10z m-302 -23 c5 -13 16 -29 25 -36 9 -7 16 -17
16 -22 0 -5 12 -28 26 -50 14 -23 24 -42 22 -44 -2 -1 -18 0 -35 2 -27 4 -40
16 -73 69 -45 72 -47 79 -22 93 25 15 32 13 41 -12z m416 -9 c14 -64 25 -114
25 -120 0 -16 -18 -7 -23 11 -7 26 -55 34 -68 10 -5 -11 -14 -19 -19 -19 -6 0
6 32 25 70 37 73 51 85 60 48z m156 -20 c16 -25 9 -76 -13 -102 -20 -22 -28
-25 -61 -20 -28 5 -36 11 -33 23 2 9 7 39 11 66 4 28 9 53 11 56 6 11 76 -8
85 -23z m125 -9 c4 -8 -3 -9 -26 -4 -23 5 -35 3 -41 -6 -14 -22 -10 -39 9 -39
9 0 24 -5 32 -11 12 -8 8 -10 -17 -7 -26 4 -32 1 -36 -18 -4 -24 9 -34 44 -34
10 0 19 -5 19 -10 0 -6 -12 -8 -27 -4 -57 12 -56 11 -50 69 3 30 8 59 12 65 8
14 72 13 81 -1z m912 -189 c-4 -28 6 -43 14 -20 2 5 9 6 17 1 8 -5 11 -16 8
-25 -8 -19 -43 -21 -51 -3 -4 9 -8 9 -11 1 -7 -14 -42 -7 -48 10 -7 18 4 33
28 38 11 2 19 10 18 16 -2 7 4 12 13 12 12 0 15 -7 12 -30z m217 -40 c0 -28
-4 -35 -20 -35 -13 0 -21 8 -23 23 -5 34 5 54 25 50 13 -2 18 -13 18 -38z
m102 14 c-3 -3 -12 -4 -19 -1 -8 3 -5 6 6 6 11 1 17 -2 13 -5z m55 -36 c-8 -8
-9 -4 -5 13 4 13 8 18 11 10 2 -7 -1 -18 -6 -23z m-72 18 c0 -3 -4 -8 -10 -11
-5 -3 -10 -1 -10 4 0 6 5 11 10 11 6 0 10 -2 10 -4z m130 -6 c0 -5 -4 -10 -10
-10 -5 0 -10 5 -10 10 0 6 5 10 10 10 6 0 10 -4 10 -10z m-170 -13 c0 -8 -6
-14 -14 -14 -8 0 -12 6 -9 14 3 7 9 13 14 13 5 0 9 -6 9 -13z m64 -3 c3 -8 2
-12 -4 -9 -6 3 -10 10 -10 16 0 14 7 11 14 -7z m146 -19 c0 -17 -5 -25 -17
-24 -11 0 -13 3 -5 6 6 2 12 13 12 24 0 10 2 19 5 19 3 0 5 -11 5 -25z m180
-6 l6 -24 6 23 c6 22 32 30 42 13 4 -5 -3 -7 -14 -4 -15 4 -20 0 -20 -14 0
-24 -42 -49 -62 -37 -7 5 -23 7 -35 5 -13 -1 -23 2 -23 8 0 6 7 8 15 5 18 -7
47 14 39 28 -7 11 16 29 31 25 5 -2 12 -14 15 -28z m503 21 c15 0 18 -7 15
-42 l-3 -43 -45 0 c-44 0 -45 0 -44 33 3 51 11 65 37 58 12 -3 30 -6 40 -6z
m-735 -13 c1 -4 2 -13 2 -19 0 -10 -3 -9 -9 1 -6 9 -19 11 -42 6 -33 -6 -33
-6 -9 7 26 15 53 17 58 5z m172 -13 c0 -8 -5 -12 -10 -9 -6 4 -8 11 -5 16 9
14 15 11 15 -7z m153 -4 c-3 -12 -8 -19 -11 -16 -5 6 5 36 12 36 2 0 2 -9 -1
-20z m521 14 c17 -6 20 -33 9 -72 -5 -21 -10 -23 -42 -17 -48 9 -52 14 -44 58
5 32 9 37 33 37 16 0 35 -3 44 -6z m-558 -49 c-3 -8 -11 -15 -18 -14 -10 0
-10 2 0 6 6 2 12 14 13 26 0 12 3 16 6 9 3 -7 2 -19 -1 -27z m446 -54 c4 -4 5
-23 1 -44 -5 -32 -9 -37 -33 -37 -49 0 -60 9 -60 49 0 21 3 41 7 44 7 8 74 -2
85 -12z m95 -7 c18 -5 21 -11 16 -42 -7 -49 -12 -53 -56 -45 -35 5 -37 8 -37
43 0 20 3 40 7 43 8 8 40 9 70 1z m260 -66 c-3 -8 -6 -5 -6 6 -1 11 2 17 5 13
3 -3 4 -12 1 -19z m-10 -75 c-3 -10 -5 -4 -5 12 0 17 2 24 5 18 2 -7 2 -21 0
-30z m-10 -70 c-3 -10 -5 -4 -5 12 0 17 2 24 5 18 2 -7 2 -21 0 -30z m-10 -75
c-3 -7 -5 -2 -5 12 0 14 2 19 5 13 2 -7 2 -19 0 -25z m-10 -70 c-3 -7 -5 -2
-5 12 0 14 2 19 5 13 2 -7 2 -19 0 -25z m-3395 -25 l3 -48 23 49 c12 27 25 46
29 42 4 -4 10 -28 13 -54 l6 -47 13 30 c6 17 14 36 17 44 2 8 7 11 10 8 3 -3
-5 -28 -17 -57 -25 -58 -36 -55 -41 10 l-4 45 -22 -49 c-13 -28 -26 -45 -31
-40 -11 12 -20 114 -10 114 4 0 9 -21 11 -47z m233 -45 c-5 -29 -10 -47 -13
-40 -5 17 8 106 15 99 3 -3 2 -30 -2 -59z m-47 30 c22 -22 13 -38 -19 -38 -20
0 -29 -4 -26 -12 2 -7 14 -13 26 -12 11 0 21 -3 21 -8 0 -5 -12 -8 -27 -6 -22
2 -29 9 -31 31 -5 46 28 73 56 45z m3199 -35 c-3 -10 -5 -4 -5 12 0 17 2 24 5
18 2 -7 2 -21 0 -30z m-3066 10 c13 -16 12 -17 -3 -4 -26 20 -50 6 -46 -26 2
-21 8 -28 25 -27 12 0 20 -3 17 -8 -15 -23 -67 10 -59 37 3 8 7 22 10 30 6 20
39 19 56 -2z m84 -7 c16 -12 18 -19 10 -42 -17 -48 -75 -40 -75 10 0 42 31 57
65 32z m45 -46 l-8 -35 -1 31 c-1 17 2 34 6 37 11 12 12 3 3 -33z m103 31 c10
-1 8 -41 -3 -66 -7 -15 -9 -11 -7 20 3 51 -21 54 -39 5 l-12 -35 -1 37 c-1 20
-7 39 -13 41 -11 4 41 3 75 -2z m93 -34 c1 -12 1 -13 -3 -2 -5 17 -38 20 -48
5 -3 -5 2 -11 12 -11 17 -1 17 -1 0 -6 -24 -6 -16 -26 14 -34 23 -7 23 -7 -4
-8 -32 -1 -42 17 -33 55 5 20 12 25 34 22 17 -2 27 -9 28 -21z m2731 -24 c-3
-10 -5 -4 -5 12 0 17 2 24 5 18 2 -7 2 -21 0 -30z m-2697 -33 c0 -5 -5 -10
-11 -10 -5 0 -7 5 -4 10 3 6 8 10 11 10 2 0 4 -4 4 -10z m-687 -66 c9 21 17
43 17 48 0 5 6 8 13 6 6 -3 13 -23 15 -46 4 -53 15 -53 31 -1 7 23 14 39 17
36 8 -8 -30 -100 -44 -105 -8 -2 -12 12 -13 50 l-1 53 -21 -47 c-12 -26 -26
-46 -32 -44 -5 1 -11 29 -11 62 l-1 59 6 -55 6 -55 18 39z m3374 29 c-3 -10
-5 -4 -5 12 0 17 2 24 5 18 2 -7 2 -21 0 -30z m-3214 -25 c25 -3 35 -46 18
-75 -9 -15 -11 -10 -9 22 3 34 0 40 -17 40 -15 0 -21 -8 -23 -32 -2 -18 -7
-33 -12 -33 -9 0 -6 34 7 90 5 18 7 20 10 8 2 -9 14 -18 26 -20z m167 -32
c-14 -14 -12 -63 3 -69 7 -4 6 -6 -4 -6 -13 -1 -18 10 -20 43 -4 44 9 74 23
52 4 -6 3 -15 -2 -20z m-62 15 c8 -4 12 -23 10 -45 -2 -35 -4 -37 -33 -34 -41
4 -43 41 -2 46 32 4 31 27 -1 26 -12 0 -19 3 -16 8 7 10 25 10 42 -1z m3099
-28 c-3 -10 -5 -4 -5 12 0 17 2 24 5 18 2 -7 2 -21 0 -30z m-2922 -23 l19 35
9 -32 c12 -40 23 -42 31 -7 4 15 10 23 14 20 7 -8 -28 -76 -40 -76 -4 0 -8 14
-8 30 0 17 -4 30 -10 30 -5 0 -10 -6 -10 -12 0 -7 -5 -20 -10 -28 -9 -13 -11
-13 -20 0 -5 8 -9 29 -9 45 2 29 2 29 8 -5 l7 -35 19 35z m296 -50 c-6 -30 -9
-36 -10 -19 -1 33 12 99 16 79 2 -8 -1 -35 -6 -60z m-136 40 c7 -24 -2 -60
-16 -60 -6 0 -5 8 1 21 15 26 6 49 -19 49 -26 0 -36 -41 -14 -57 16 -12 16
-13 0 -13 -24 0 -32 26 -19 56 15 30 58 33 67 4z m240 -7 c-2 -10 -7 -34 -10
-55 -5 -32 -9 -36 -31 -33 -38 4 -48 18 -37 52 8 21 16 28 36 28 16 -1 27 5
27 12 0 7 4 13 9 13 5 0 8 -8 6 -17z m-203 -20 c-3 -18 1 -30 14 -40 19 -14
18 -15 -1 -11 -15 2 -21 12 -23 41 -2 20 1 37 6 37 5 0 7 -12 4 -27z m47 -47
c-9 -8 -10 -5 -5 14 3 14 7 34 7 45 1 11 4 5 6 -14 3 -19 -1 -39 -8 -45z
m2668 37 c-3 -10 -5 -4 -5 12 0 17 2 24 5 18 2 -7 2 -21 0 -30z m-2432 -21
c-4 -19 -1 -33 8 -41 17 -14 33 1 40 39 3 17 5 12 6 -16 0 -22 -5 -49 -13 -59
-12 -17 -17 -18 -41 -7 -15 7 -25 16 -21 19 3 4 12 1 18 -5 17 -17 35 -15 42
4 4 10 2 14 -6 11 -24 -8 -48 13 -48 42 0 25 7 41 17 41 3 0 2 -13 -2 -28z
m139 5 c38 -27 -2 -95 -41 -71 -24 15 -28 48 -8 68 20 19 26 20 49 3z m195
-48 c-5 -28 -11 -54 -15 -58 -4 -3 -4 9 0 28 3 18 6 44 6 57 0 13 4 24 9 24 4
0 4 -23 0 -51z m-144 7 c-6 -28 -4 -35 12 -39 17 -4 17 -5 0 -6 -22 -1 -31 21
-23 54 10 37 18 30 11 -9z m237 4 c-5 -34 3 -38 30 -13 10 9 18 11 18 6 0 -6
-7 -16 -15 -23 -11 -9 -13 -16 -5 -24 5 -5 10 -17 10 -25 -1 -9 -7 -4 -16 12
-15 28 -34 28 -34 0 0 -9 -2 -14 -5 -11 -8 8 6 108 15 108 3 0 5 -13 2 -30z
m-186 -48 c-11 -10 -14 3 -7 38 l6 35 3 -33 c2 -19 1 -36 -2 -40z m2181 31
c-3 -10 -5 -4 -5 12 0 17 2 24 5 18 2 -7 2 -21 0 -30z m-2047 -18 l-8 -40 -1
36 c0 20 2 39 6 42 11 11 11 4 3 -38z m178 13 c22 -22 13 -38 -19 -38 -20 0
-29 -4 -26 -12 2 -7 14 -13 26 -12 11 0 21 -3 21 -8 0 -9 -22 -11 -44 -2 -31
12 -14 84 19 84 6 0 16 -5 23 -12z m105 -26 c-16 -17 -17 -44 0 -61 10 -11 9
-13 -3 -9 -17 5 -25 48 -16 84 5 20 9 22 20 12 11 -10 11 -15 -1 -26z m95 -4
c14 -18 3 -65 -17 -73 -13 -5 -14 -4 -3 6 6 7 12 26 12 42 0 24 -4 28 -22 25
-27 -4 -38 -45 -16 -60 10 -8 10 -9 -2 -5 -16 4 -25 39 -16 63 7 17 50 19 64
2z m88 -42 c-5 -23 -3 -36 6 -39 8 -3 6 -6 -4 -6 -19 -1 -24 31 -12 63 11 28
16 17 10 -18z m1571 2 c-3 -7 -5 -2 -5 12 0 14 2 19 5 13 2 -7 2 -19 0 -25z
m-1515 -13 c-2 -19 -9 -35 -14 -35 -6 0 -7 7 -4 16 3 9 6 24 6 35 0 10 4 19 8
19 4 0 6 -16 4 -35z m72 26 c4 -5 -3 -7 -14 -4 -26 7 -26 -13 0 -27 11 -6 20
-17 20 -26 0 -21 -29 -30 -43 -13 -7 8 -8 11 -3 7 16 -13 36 -9 36 7 0 8 -6
15 -14 15 -19 0 -29 17 -22 35 6 17 32 20 40 6z m240 3 c17 -6 22 -39 8 -48
-5 -3 -7 -20 -6 -38 2 -18 1 -24 -2 -13 -6 20 -31 45 -46 45 -4 0 -8 -9 -8
-19 0 -11 -5 -23 -12 -27 -8 -5 -9 2 -5 26 4 18 7 43 7 56 0 19 5 24 24 24 13
0 31 -3 40 -6z m-160 -10 c9 -3 16 -15 16 -25 0 -15 -7 -19 -31 -19 -20 0 -29
-4 -26 -12 2 -7 16 -13 30 -13 16 1 23 -3 18 -8 -12 -12 -42 -5 -53 13 -6 9
-6 25 1 43 11 28 18 31 45 21z m275 -61 c6 -31 9 -59 6 -61 -3 -3 -5 0 -5 7 0
6 -12 16 -26 22 -21 8 -31 6 -47 -8 -22 -20 -22 -18 13 50 13 26 29 47 36 47
6 0 16 -26 23 -57z m119 31 c46 -32 16 -104 -44 -104 -31 0 -34 3 -34 29 0 60
11 91 34 91 12 0 32 -7 44 -16z m-2418 -439 c0 -389 -2 -445 -15 -445 -13 0
-15 56 -15 445 0 389 2 445 15 445 13 0 15 -56 15 -445z m2520 426 c-45 -8
-55 -40 -13 -42 l28 -2 -27 -4 c-19 -3 -28 -10 -28 -23 0 -11 11 -22 28 -28
l27 -10 -25 -1 c-44 -1 -52 11 -44 67 l7 52 41 -1 41 -2 -35 -6z m857 -33 c-3
-7 -5 -2 -5 12 0 14 2 19 5 13 2 -7 2 -19 0 -25z m-737 7 c-10 -12 -10 -15 1
-15 9 0 10 -3 3 -8 -5 -4 -15 -23 -21 -42 l-11 -35 3 47 c4 52 10 68 27 68 7
0 6 -6 -2 -15z m231 -15 c26 -14 24 -32 -7 -59 -32 -27 -44 -21 -15 8 28 28
27 44 -4 39 -24 -5 -32 2 -18 15 9 10 21 9 44 -3z m-143 -22 c16 -16 15 -40
-2 -63 -12 -17 -18 -18 -40 -7 -41 19 -31 82 14 82 9 0 21 -5 28 -12z m58 -17
c-8 -9 -16 -27 -19 -41 -3 -19 -5 -17 -6 11 -1 40 2 46 24 46 13 0 13 -2 1
-16z m581 -28 c-3 -10 -5 -4 -5 12 0 17 2 24 5 18 2 -7 2 -21 0 -30z m-10 -70
c-3 -10 -5 -4 -5 12 0 17 2 24 5 18 2 -7 2 -21 0 -30z m-2872 -33 c0 -43 -1
-45 -30 -45 -24 0 -31 5 -33 24 -2 12 -1 34 3 48 4 19 11 24 33 21 25 -3 27
-6 27 -48z m35 -10 c-12 -23 -6 -40 16 -40 21 0 29 27 13 47 -12 14 -12 16 1
11 9 -3 15 -17 15 -34 0 -24 -5 -30 -26 -32 -31 -4 -44 19 -29 49 6 10 13 19
16 19 2 0 0 -9 -6 -20z m93 3 c-7 -2 -13 -16 -13 -29 0 -13 -4 -24 -8 -24 -5
0 -7 14 -4 30 3 20 10 30 21 29 10 0 11 -2 4 -6z m2734 -30 c-3 -10 -5 -4 -5
12 0 17 2 24 5 18 2 -7 2 -21 0 -30z m-2682 19 c-6 -4 -16 -18 -23 -32 -7 -14
-10 -17 -7 -7 3 10 5 25 5 33 0 8 8 14 18 14 10 0 13 -3 7 -8z m76 -16 c2 -21
-3 -41 -13 -51 -6 -7 -7 -1 -3 18 5 17 2 33 -5 42 -11 13 -10 14 4 9 9 -3 17
-11 17 -18z m-46 -15 c0 -16 -3 -27 -7 -24 -13 7 -7 53 6 53 1 0 1 -13 1 -29z
m99 2 c18 24 26 21 26 -10 l1 -28 14 25 c17 30 19 22 4 -17 l-11 -28 -14 30
c-13 29 -14 29 -20 8 -7 -24 -24 -31 -24 -10 0 6 -3 23 -5 37 l-6 25 11 -25
c11 -23 12 -24 24 -7z m166 -41 c0 -19 -3 -32 -7 -28 -5 4 -8 17 -8 29 -1 12
-4 28 -8 34 -6 9 -3 11 7 7 10 -4 16 -19 16 -42z m40 -2 c-8 -35 -12 -31 -12
15 0 37 1 40 11 30 6 -6 6 -25 1 -45z m2337 -17 c-3 -10 -5 -4 -5 12 0 17 2
24 5 18 2 -7 2 -21 0 -30z m-2420 12 c0 -8 -4 -15 -9 -15 -10 0 -11 14 -1 23
9 10 10 9 10 -8z m2410 -82 c-3 -10 -5 -4 -5 12 0 17 2 24 5 18 2 -7 2 -21 0
-30z m-2929 -5 c17 -17 15 -64 -3 -81 -30 -31 -73 3 -59 47 13 44 38 58 62 34z
m1609 4 c7 -4 11 -25 10 -47 -2 -37 -4 -40 -34 -43 -32 -3 -33 -2 -33 32 0 60
20 81 57 58z m-1547 -22 c0 -5 -7 -7 -15 -4 -8 4 -15 8 -15 10 0 2 7 4 15 4 8
0 15 -4 15 -10z m1627 -36 c2 -13 1 -15 -4 -4 -3 8 -11 19 -17 23 -7 6 -6 7 4
4 8 -2 16 -12 17 -23z m1230 -11 c-3 -10 -5 -4 -5 12 0 17 2 24 5 18 2 -7 2
-21 0 -30z m-1269 10 c-1 -10 1 -24 5 -30 5 -7 4 -13 -2 -13 -16 0 -23 18 -16
40 8 25 17 26 13 3z m230 -23 c-3 -35 -1 -41 22 -49 21 -8 22 -10 5 -10 -37
-1 -46 13 -39 57 8 53 17 55 12 2z m-78 -6 c0 -33 -2 -35 -27 -32 -30 3 -39
28 -13 35 12 4 12 3 1 -5 -10 -7 -10 -11 -1 -17 6 -4 14 -4 18 0 7 7 8 12 11
40 2 30 11 14 11 -21z m-1623 -21 c-3 -10 -5 -2 -5 17 0 19 2 27 5 18 2 -10 2
-26 0 -35z m45 22 c-2 -14 -9 -28 -15 -32 -7 -4 -8 0 -4 11 4 10 7 24 7 32 0
8 4 14 9 14 4 0 6 -11 3 -25z m42 10 c3 -8 1 -25 -4 -37 -10 -23 -10 -23 -8 2
1 14 -1 31 -5 38 -5 6 -4 12 1 12 6 0 12 -7 16 -15z m43 -25 c-1 -22 -5 -40
-10 -40 -7 0 -7 58 0 73 9 16 12 5 10 -33z m-256 3 c-12 -20 -14 -14 -5 12 4
9 9 14 11 11 3 -2 0 -13 -6 -23z m36 5 c2 -17 0 -19 -7 -8 -5 8 -6 18 -4 22 8
12 10 10 11 -14z m269 -5 c0 -10 -5 -21 -11 -25 -5 -4 2 -11 15 -17 24 -9 24
-10 3 -10 -27 -1 -37 13 -29 45 7 27 24 33 22 7z m32 -14 c-3 -8 -7 -3 -11 10
-4 17 -3 21 5 13 5 -5 8 -16 6 -23z m1562 1 c0 -16 -4 -30 -8 -30 -5 0 -7 14
-4 30 2 17 6 30 8 30 2 0 4 -13 4 -30z m42 18 c-7 -7 -12 -20 -12 -31 0 -27
33 -17 41 13 7 24 7 24 7 -5 1 -33 -16 -83 -17 -54 -1 9 -10 19 -21 22 -30 8
-27 67 4 67 6 0 5 -5 -2 -12z m242 -42 c-6 -43 -9 -47 -33 -44 -21 2 -26 8
-26 32 0 17 6 31 15 34 12 4 13 2 3 -9 -19 -20 -16 -51 4 -47 12 2 20 18 26
46 11 57 19 48 11 -12z m-1807 19 c-7 -13 -14 -20 -15 -14 -5 14 6 39 17 39 5
0 4 -11 -2 -25z m1640 -5 c-6 -25 -3 -30 13 -30 13 0 20 7 20 19 0 11 4 22 8
25 5 3 6 -8 4 -25 -3 -22 -9 -29 -28 -29 -29 0 -36 12 -28 45 9 35 18 31 11
-5z m-1597 -5 c-10 -27 1 -41 26 -31 9 3 12 1 9 -4 -9 -14 -31 -12 -43 3 -12
14 -5 57 9 57 5 0 4 -11 -1 -25z m40 5 c0 -11 -4 -20 -9 -20 -5 0 -7 9 -4 20
3 11 7 20 9 20 2 0 4 -9 4 -20z m41 6 c-10 -12 -8 -17 8 -25 20 -11 19 -41 -1
-41 -6 0 -6 6 1 14 10 11 8 16 -8 21 -23 7 -28 30 -8 38 19 8 20 8 8 -7z m65
-13 c-10 -10 -19 5 -10 18 6 11 8 11 12 0 2 -7 1 -15 -2 -18z m1534 -8 c0 -19
-4 -35 -8 -35 -4 0 -6 16 -4 35 2 19 6 35 8 35 2 0 4 -16 4 -35z m757 -2 c-3
-10 -5 -4 -5 12 0 17 2 24 5 18 2 -7 2 -21 0 -30z m-593 -22 c1 -21 -2 -37 -6
-34 -5 2 -8 23 -8 45 0 52 12 42 14 -11z m-47 -8 c-3 -10 -5 -2 -5 17 0 19 2
27 5 18 2 -10 2 -26 0 -35z m90 15 c-4 -12 -1 -28 5 -35 7 -9 7 -13 0 -13 -6
0 -14 5 -17 11 -8 11 2 59 11 59 4 0 4 -10 1 -22z m-1750 -20 c-3 -7 -5 -2 -5
12 0 14 2 19 5 13 2 -7 2 -19 0 -25z m1782 -44 c-13 -15 -35 -19 -43 -6 -3 5
5 8 17 8 12 -1 22 5 23 12 1 6 3 24 4 40 3 25 3 25 7 -6 3 -18 -1 -40 -8 -48z
m508 4 c-3 -7 -5 -2 -5 12 0 14 2 19 5 13 2 -7 2 -19 0 -25z m-1485 -23 c-3
-20 0 -25 17 -25 22 0 31 34 11 43 -6 3 -5 4 2 3 7 -2 13 -14 13 -27 0 -19 -6
-25 -27 -27 -15 -2 -29 -11 -31 -20 -3 -9 -5 0 -6 20 0 20 2 43 5 52 9 24 22
10 16 -19z m98 -19 c0 -2 -7 -6 -15 -10 -8 -3 -15 -1 -15 4 0 6 7 10 15 10 8
0 15 -2 15 -4z m54 -2 c23 -9 18 -74 -5 -74 -5 0 -4 8 2 19 14 22 5 55 -14 48
-6 -2 -12 -16 -12 -30 1 -15 -3 -27 -7 -27 -12 0 -9 45 4 58 14 14 12 14 32 6z
m1323 -31 c-3 -10 -5 -4 -5 12 0 17 2 24 5 18 2 -7 2 -21 0 -30z m-1121 -39
c-5 -17 -13 -24 -31 -24 -13 0 -26 4 -30 10 -8 12 5 60 16 60 5 0 4 -11 -1
-25 -8 -20 -6 -27 6 -32 17 -6 37 15 28 29 -3 5 -2 18 2 31 l8 22 4 -24 c2
-12 1 -34 -2 -47z m-130 27 c7 13 13 19 14 13 0 -14 -27 -50 -33 -44 -3 3 -8
19 -11 35 l-6 30 11 -29 12 -29 13 24z m-159 -3 c-3 -8 -6 -5 -6 6 -1 11 2 17
5 13 3 -3 4 -12 1 -19z m207 -12 c-3 -15 -8 -25 -11 -23 -2 3 -1 17 3 31 3 15
8 25 11 23 2 -3 1 -17 -3 -31z m154 12 c15 -15 16 -28 2 -28 -5 0 -9 5 -7 12
1 6 -6 14 -15 16 -14 2 -18 -3 -18 -22 0 -18 6 -26 23 -29 20 -4 19 -4 -4 -6
-31 -1 -40 14 -28 47 9 24 28 29 47 10z m33 -39 c-6 -24 -9 -28 -10 -12 -1 24
9 56 16 50 2 -3 0 -20 -6 -38z m127 -13 c2 -22 -1 -36 -6 -32 -5 3 -7 17 -4
32 3 16 -1 30 -9 36 -12 8 -11 9 1 5 9 -2 16 -18 18 -41z m167 -9 c-7 -45 -10
-46 -57 -38 -13 2 -9 36 7 57 18 23 20 11 3 -16 -9 -15 -10 -22 -1 -31 17 -17
30 -3 37 42 4 23 9 39 12 36 3 -3 2 -25 -1 -50z m120 33 c17 -7 14 -9 -13 -9
-39 -1 -39 -22 -1 -32 24 -7 24 -7 -3 -8 -36 -1 -37 -28 -3 -37 36 -9 23 -17
-14 -9 -28 6 -29 9 -24 43 9 67 14 71 58 52z m592 -27 c-3 -10 -5 -4 -5 12 0
17 2 24 5 18 2 -7 2 -21 0 -30z m-835 15 c-7 -7 -12 -21 -12 -32 0 -10 -3 -17
-6 -13 -10 10 5 57 18 57 9 0 9 -3 0 -12z m35 -40 c-2 -13 -4 -5 -4 17 -1 22
1 32 4 23 2 -10 2 -28 0 -40z m-117 16 c0 -8 -5 -12 -10 -9 -6 4 -8 11 -5 16
9 14 15 11 15 -7z m397 -56 c-2 -13 -4 -5 -4 17 -1 22 1 32 4 23 2 -10 2 -28
0 -40z m58 34 c-6 -4 -16 -18 -23 -32 -7 -14 -10 -17 -7 -7 3 10 5 25 5 33 0
8 8 14 18 14 10 0 13 -3 7 -8z m74 -6 c8 -10 8 -21 1 -37 -10 -23 -10 -23 -7
4 3 15 0 30 -5 33 -14 9 -38 -16 -38 -39 0 -11 -3 -18 -6 -14 -3 3 -3 18 0 34
7 31 37 41 55 19z m378 -33 c-3 -10 -5 -4 -5 12 0 17 2 24 5 18 2 -7 2 -21 0
-30z m-550 5 c-3 -8 -6 -5 -6 6 -1 11 2 17 5 13 3 -3 4 -12 1 -19z m540 -75
c-3 -10 -5 -4 -5 12 0 17 2 24 5 18 2 -7 2 -21 0 -30z m-10 -70 c-3 -10 -5 -4
-5 12 0 17 2 24 5 18 2 -7 2 -21 0 -30z m-10 -70 c-3 -10 -5 -4 -5 12 0 17 2
24 5 18 2 -7 2 -21 0 -30z m-10 -70 c-3 -10 -5 -4 -5 12 0 17 2 24 5 18 2 -7
2 -21 0 -30z m-10 -75 c-3 -7 -5 -2 -5 12 0 14 2 19 5 13 2 -7 2 -19 0 -25z
m-10 -75 c-3 -10 -5 -4 -5 12 0 17 2 24 5 18 2 -7 2 -21 0 -30z m-10 -70 c-3
-10 -5 -4 -5 12 0 17 2 24 5 18 2 -7 2 -21 0 -30z m-2938 17 c19 -5 38 -15 43
-22 14 -23 8 -58 -13 -79 -17 -17 -29 -20 -60 -16 -35 5 -39 3 -39 -16 0 -26
-16 -54 -25 -45 -4 4 -1 47 5 97 14 101 16 102 89 81z m2928 -87 c-3 -10 -5
-4 -5 12 0 17 2 24 5 18 2 -7 2 -21 0 -30z m-2787 7 c0 -4 -11 -11 -24 -14
-20 -5 -25 -14 -31 -56 -4 -27 -12 -50 -17 -50 -7 0 -8 17 -4 46 3 26 6 54 6
63 0 13 9 17 35 18 19 1 35 -3 35 -7z m200 -4 c0 -8 8 -17 18 -21 15 -6 15 -8
-4 -15 -28 -11 -39 -79 -16 -97 20 -17 6 -31 -16 -16 -13 8 -16 22 -14 57 2
27 -1 53 -8 61 -10 12 -9 15 4 15 9 0 16 7 16 15 0 8 5 15 10 15 6 0 10 -6 10
-14z m-82 -18 c16 -14 11 -80 -8 -103 -15 -18 -60 -19 -82 -2 -27 20 -27 86
-1 112 18 18 64 15 91 -7z m232 -33 c15 -18 16 -66 1 -93 -18 -33 -87 -32
-102 2 -16 35 -3 95 23 105 27 10 64 3 78 -14z m357 -12 c-3 -16 -9 -56 -13
-90 -4 -39 -11 -63 -19 -63 -9 0 -10 14 -4 58 16 107 20 122 31 122 6 0 8 -11
5 -27z m2070 -10 c-3 -10 -5 -4 -5 12 0 17 2 24 5 18 2 -7 2 -21 0 -30z
m-2280 7 c2 0 3 -9 3 -20 0 -20 0 -20 -30 1 -38 28 -60 13 -60 -41 0 -44 25
-57 60 -33 20 14 22 14 18 -3 -2 -14 -13 -20 -40 -22 -46 -4 -74 30 -63 78 9
42 38 60 78 49 18 -5 33 -9 34 -9z m424 0 c10 -6 19 -17 19 -25 0 -19 -8 -19
-27 1 -22 21 -67 14 -71 -11 -2 -15 8 -25 40 -40 34 -16 44 -26 46 -48 5 -38
-14 -57 -55 -57 -45 0 -73 16 -73 40 0 26 12 25 28 0 17 -28 68 -27 77 1 8 24
11 21 -43 48 -49 25 -59 42 -44 77 9 19 19 24 47 24 20 0 45 -5 56 -10z m-293
-23 c17 -13 15 -68 -4 -95 -18 -26 -75 -30 -94 -7 -21 25 -15 87 10 107 22 18
61 16 88 -5z m382 -26 c0 -11 8 -22 18 -24 15 -4 14 -6 -5 -12 -16 -5 -22 -17
-25 -47 -2 -27 1 -42 9 -45 20 -8 16 -23 -6 -23 -25 0 -33 24 -25 77 4 29 3
43 -5 43 -6 0 -11 5 -11 10 0 6 7 10 15 10 8 0 15 7 15 15 0 8 5 15 10 15 6 0
10 -9 10 -19z m1757 -28 c-3 -10 -5 -4 -5 12 0 17 2 24 5 18 2 -7 2 -21 0 -30z
m-1527 -3 c0 -11 7 -20 15 -20 8 0 15 -4 15 -10 0 -5 -8 -10 -19 -10 -24 0
-38 -80 -15 -93 16 -9 19 -27 5 -27 -5 0 -17 7 -26 16 -12 12 -14 27 -9 65 5
38 3 49 -7 49 -10 1 -9 4 4 14 9 7 17 18 17 25 0 6 5 11 10 11 6 0 10 -9 10
-20z m90 5 c0 -8 -4 -15 -9 -15 -13 0 -22 16 -14 24 11 11 23 6 23 -9z m-181
-19 c6 -7 10 -38 9 -68 l-2 -55 -46 5 c-48 5 -72 24 -63 50 10 26 25 32 61 26
28 -6 32 -4 32 16 0 21 -4 22 -40 17 -37 -5 -49 1 -33 16 12 12 70 7 82 -7z
m381 -26 c0 -11 5 -20 10 -20 6 0 10 -4 10 -10 0 -5 -6 -10 -14 -10 -22 0 -33
-80 -12 -95 21 -16 8 -27 -17 -14 -17 10 -19 18 -14 64 3 35 2 55 -5 57 -7 3
-4 13 8 26 23 27 34 28 34 2z m90 5 c0 -8 -7 -15 -15 -15 -8 0 -15 7 -15 15 0
8 7 15 15 15 8 0 15 -7 15 -15z m-297 -16 c-9 -79 -16 -109 -24 -109 -11 0
-11 20 -3 84 4 28 11 45 18 43 6 -2 10 -10 9 -18z m1434 -16 c-3 -10 -5 -4 -5
12 0 17 2 24 5 18 2 -7 2 -21 0 -30z m-1311 13 c10 -8 16 -18 11 -22 -4 -4
-13 -2 -19 4 -7 7 -22 12 -35 12 -36 0 -28 -28 13 -45 27 -11 35 -19 32 -36
-2 -12 -10 -26 -19 -32 -20 -13 -68 -1 -76 19 -9 23 6 30 20 10 14 -20 48 -19
54 1 3 7 -12 19 -31 27 -27 11 -36 21 -36 39 0 13 3 27 7 30 11 12 58 8 79 -7z
m-769 -146 c587 -82 1120 -156 1183 -165 344 -47 686 -97 690 -102 8 -9 -73 1
-785 102 -368 52 -1007 142 -1420 200 -412 58 -757 107 -765 109 -68 17 172
-14 1097 -144z m927 73 c-7 -64 -10 -73 -25 -73 -6 0 -8 12 -5 28 2 15 7 44
11 65 10 62 27 44 19 -20z m127 37 c10 -6 19 -17 19 -25 0 -19 -16 -19 -24 0
-3 8 -14 15 -25 15 -45 0 -56 -92 -13 -98 13 -2 30 2 39 9 13 11 15 10 12 -6
-5 -26 -60 -33 -83 -10 -20 21 -21 74 0 103 16 24 44 28 75 12z m137 -35 c3
-16 1 -18 -9 -7 -17 16 -59 16 -59 -1 0 -7 15 -20 32 -28 37 -16 45 -36 25
-63 -11 -14 -20 -17 -46 -11 -18 4 -35 13 -38 21 -9 23 6 30 20 10 14 -20 48
-19 55 2 2 7 -12 19 -32 27 -27 11 -36 21 -36 38 0 32 9 38 50 35 26 -2 36 -8
38 -23z m879 -12 c-3 -10 -5 -4 -5 12 0 17 2 24 5 18 2 -7 2 -21 0 -30z m-10
-75 c-3 -7 -5 -2 -5 12 0 14 2 19 5 13 2 -7 2 -19 0 -25z m-10 -70 c-3 -7 -5
-2 -5 12 0 14 2 19 5 13 2 -7 2 -19 0 -25z m-10 -75 c-3 -10 -5 -4 -5 12 0 17
2 24 5 18 2 -7 2 -21 0 -30z m-3119 -4 c-6 -16 -12 -28 -15 -26 -7 7 8 57 18
57 4 0 3 -14 -3 -31z m44 -4 c-2 -14 -6 -25 -8 -25 -2 0 -4 11 -4 25 0 14 4
25 9 25 4 0 6 -11 3 -25z m40 0 c-3 -19 0 -25 13 -25 13 0 16 6 13 25 -3 13
-1 22 3 19 5 -3 9 -16 9 -30 0 -19 -5 -24 -25 -24 -20 0 -25 5 -25 23 0 20 7
37 15 37 1 0 0 -11 -3 -25z m83 -3 c4 10 11 15 16 12 5 -3 7 -9 5 -13 -3 -4
-1 -13 5 -21 7 -13 9 -12 9 2 0 9 4 20 10 23 6 4 7 -2 1 -16 -10 -29 -31 -37
-31 -12 -1 17 -1 17 -14 1 -19 -26 -26 -22 -25 15 0 26 2 29 9 12 7 -18 8 -19
15 -3z m145 -43 c-10 -24 -10 -24 -5 3 7 36 -12 46 -25 14 -12 -32 -24 -35
-14 -3 9 29 26 39 42 23 9 -9 10 -19 2 -37z m-68 16 c-2 -14 -6 -25 -8 -25 -2
0 -4 11 -4 25 0 14 4 25 9 25 4 0 6 -11 3 -25z m241 18 c-27 -5 -29 -18 -5
-33 16 -11 16 -11 -1 -6 -12 4 -21 -1 -27 -17 -8 -21 -9 -21 -9 5 -1 43 9 58
38 57 23 -2 24 -2 4 -6z m-141 -28 c-3 -18 0 -25 12 -25 15 0 20 11 17 38 -1
6 3 12 9 12 16 0 12 -44 -6 -66 -8 -10 -13 -14 -10 -8 3 7 -3 14 -14 17 -19 5
-27 36 -13 50 10 11 11 9 5 -18z m2765 -22 c-3 -10 -5 -4 -5 12 0 17 2 24 5
18 2 -7 2 -21 0 -30z m-2547 1 c0 -22 -16 -17 -17 6 -1 11 2 18 8 15 5 -4 9
-13 9 -21z m-36 -8 c-3 -8 2 -16 13 -19 15 -4 15 -5 -3 -6 -22 -1 -39 23 -28
40 8 14 24 0 18 -15z m61 14 c-3 -5 1 -10 10 -10 10 0 13 5 9 12 -4 7 -3 8 4
4 20 -12 14 -35 -8 -29 -11 3 -20 1 -20 -5 0 -6 10 -13 23 -15 19 -4 18 -4 -5
-6 -23 -1 -28 3 -28 22 0 13 3 27 7 30 10 10 15 8 8 -3z m2512 -77 c-3 -10 -5
-4 -5 12 0 17 2 24 5 18 2 -7 2 -21 0 -30z m-10 -70 c-3 -10 -5 -4 -5 12 0 17
2 24 5 18 2 -7 2 -21 0 -30z m-1171 -18 c12 -30 -5 -65 -31 -65 -30 0 -36 10
-29 49 5 24 12 31 31 31 13 0 26 -7 29 -15z m97 -10 c4 -8 -5 -23 -20 -35
l-25 -20 23 -9 24 -10 -27 0 c-37 -1 -43 14 -13 37 30 24 33 46 5 39 -11 -3
-20 -1 -20 4 0 15 47 10 53 -6z m-1974 -69 c-9 -8 -10 -7 -5 7 3 10 7 31 8 45
1 22 2 21 5 -7 3 -19 -1 -38 -8 -45z m2024 67 c-28 -5 -30 -19 -3 -26 24 -6
27 -42 5 -51 -19 -7 -45 3 -45 16 0 6 7 5 15 -2 11 -9 19 -10 27 -2 14 14 2
32 -22 32 -13 0 -17 5 -13 20 4 14 13 20 32 19 23 -2 24 -2 4 -6z m-2046 -41
c1 -19 -3 -30 -9 -26 -5 4 -8 17 -5 30 3 15 -1 25 -12 28 -10 3 -9 4 4 3 15
-2 20 -10 22 -35z m99 4 c-5 -28 -3 -35 11 -39 14 -4 13 -5 -4 -6 -20 -1 -23
4 -23 32 0 31 6 47 18 47 2 0 1 -15 -2 -34z m1997 27 c-7 -2 -13 -12 -13 -20
0 -9 -3 -14 -6 -10 -10 10 4 37 18 36 10 0 10 -2 1 -6z m964 -30 c-3 -10 -5
-4 -5 12 0 17 2 24 5 18 2 -7 2 -21 0 -30z m-934 -8 c-5 -33 8 -49 20 -25 3 6
4 5 3 -2 -5 -25 -31 -13 -34 15 -2 15 -8 25 -13 22 -5 -4 -9 -1 -9 5 0 7 7 10
15 6 8 -3 15 -1 15 4 0 6 2 10 4 10 3 0 2 -16 -1 -35z m-1823 -20 c4 2 10 -7
13 -22 4 -24 4 -26 -8 -10 -16 22 -25 22 -25 0 0 -9 -3 -14 -6 -10 -3 3 -2 25
2 49 7 37 9 39 12 15 2 -15 7 -25 12 -22z m-336 20 c3 -8 1 -15 -4 -15 -6 0
-10 7 -10 15 0 8 2 15 4 15 2 0 6 -7 10 -15z m188 -10 c-3 -18 0 -25 12 -25
11 0 16 9 16 28 1 22 2 24 10 10 14 -22 2 -48 -21 -48 -22 0 -34 22 -25 45 9
23 14 18 8 -10z m71 -9 c-4 -17 0 -25 14 -29 15 -4 14 -5 -4 -6 -19 -1 -23 4
-23 29 0 17 4 30 9 30 4 0 6 -11 4 -24z m37 14 c0 -5 -2 -10 -4 -10 -3 0 -8 5
-11 10 -3 6 -1 10 4 10 6 0 11 -4 11 -10z m192 -42 c-3 -25 -9 -38 -19 -38
-13 0 -13 3 -3 15 14 17 6 50 -10 40 -5 -3 -10 -15 -10 -26 0 -11 -4 -18 -10
-14 -17 11 6 50 29 48 12 -2 21 2 21 9 0 6 2 9 4 7 2 -2 1 -21 -2 -41z m-97
22 c-3 -5 1 -10 10 -10 10 0 13 5 9 12 -4 7 -3 8 4 4 20 -12 13 -25 -15 -28
l-28 -4 25 -11 c24 -11 24 -12 3 -12 -13 -1 -24 7 -28 19 -7 22 0 40 16 40 6
0 7 -4 4 -10z m165 -20 c0 -32 17 -31 30 0 7 17 15 29 17 27 5 -6 -29 -77 -38
-77 -3 0 -11 18 -17 40 -5 22 -6 37 -1 34 5 -3 9 -14 9 -24z m2527 -17 c-3
-10 -5 -4 -5 12 0 17 2 24 5 18 2 -7 2 -21 0 -30z m-2395 -8 c-2 -19 -6 -35
-8 -35 -2 0 -4 16 -4 35 0 19 4 35 8 35 4 0 6 -16 4 -35z m-32 -5 c0 -25 -4
-30 -25 -30 -31 0 -34 29 -5 37 11 3 20 9 20 14 0 5 2 9 5 9 3 0 5 -13 5 -30z
m227 -25 c-6 -25 -12 -43 -15 -41 -7 7 9 86 17 86 5 0 4 -20 -2 -45z m90 30
c7 -2 16 -19 21 -37 l9 -33 17 33 c10 19 20 32 22 29 7 -6 -22 -64 -36 -72
-10 -6 -14 1 -24 48 -4 15 -13 27 -21 27 -8 0 -17 -12 -21 -27 -10 -47 -12
-49 -13 -12 -1 19 -7 41 -13 48 -11 10 -7 11 17 6 17 -4 35 -8 42 -10z m-255
-20 c3 -14 1 -25 -3 -25 -5 0 -9 11 -9 25 0 14 2 25 4 25 2 0 6 -11 8 -25z
m39 -7 c-3 -21 -6 -26 -9 -15 -3 17 3 47 11 47 2 0 1 -15 -2 -32z m68 7 c2
-14 -2 -17 -19 -12 -16 4 -20 2 -16 -9 3 -8 1 -14 -4 -14 -6 0 -10 12 -10 26
0 23 2 25 15 14 9 -7 19 -10 22 -6 4 4 1 12 -7 17 -13 9 -13 10 0 6 8 -2 17
-12 19 -22z m244 -25 c-4 -23 -1 -34 13 -44 17 -13 17 -14 -7 -9 -26 5 -29 21
-14 71 8 25 14 11 8 -18z m72 -30 c-3 -16 -13 -35 -22 -42 -15 -12 -15 -11 -5
9 7 12 12 39 12 60 1 31 2 35 11 20 6 -10 8 -31 4 -47z m1932 8 c-3 -7 -5 -2
-5 12 0 14 2 19 5 13 2 -7 2 -19 0 -25z m-10 -70 c-3 -7 -5 -2 -5 12 0 14 2
19 5 13 2 -7 2 -19 0 -25z m-1177 -2 c0 -8 -12 -24 -27 -35 -27 -20 -27 -20
-5 -21 12 0 22 -4 22 -9 0 -4 -11 -6 -25 -3 -14 2 -25 8 -25 13 0 5 11 16 25
25 31 20 32 31 3 37 -20 4 -19 4 5 6 17 1 27 -4 27 -13z m30 -41 c-9 -45 -12
-42 -12 10 0 48 1 50 11 40 5 -6 6 -28 1 -50z m67 10 c-4 -36 -8 -40 -40 -31
-18 4 -17 6 4 35 30 40 40 39 36 -4z m-1970 -15 c-1 -22 -5 -40 -10 -40 -7 0
-7 58 0 73 9 16 12 5 10 -33z m2068 30 c19 -8 19 -9 -2 -9 -28 -1 -29 -9 -5
-27 15 -12 15 -12 -5 -7 -17 4 -23 1 -23 -11 0 -9 8 -16 20 -16 11 0 20 -4 20
-9 0 -4 -11 -6 -25 -3 -26 5 -31 23 -19 70 7 24 9 25 39 12z m94 -16 c2 -2 -2
-4 -11 -4 -8 0 -19 -16 -26 -37 l-11 -38 4 34 c3 19 0 40 -7 48 -10 12 -7 13
18 7 16 -4 31 -8 33 -10z m-2103 -6 c4 -6 3 -8 -4 -4 -6 3 -13 2 -17 -4 -3 -5
1 -10 9 -10 9 0 16 -9 16 -20 0 -11 -5 -20 -11 -20 -5 0 -7 5 -4 11 4 6 -1 17
-11 24 -17 13 -17 16 -4 25 19 12 17 12 26 -2z m2145 -31 c14 -4 23 1 29 16 8
19 9 17 9 -13 0 -19 -4 -42 -9 -50 -8 -12 -10 -11 -10 6 0 18 -27 42 -35 32
-1 -2 -7 -12 -13 -23 l-11 -20 -1 20 c0 32 14 73 18 54 2 -10 12 -19 23 -22z
m836 -4 c-3 -10 -5 -4 -5 12 0 17 2 24 5 18 2 -7 2 -21 0 -30z m-739 -9 c-5
-20 -7 -42 -4 -50 3 -9 1 -12 -4 -9 -13 8 -13 36 0 69 14 38 20 31 8 -10z m71
22 c10 -12 8 -13 -11 -9 l-23 6 24 -27 c23 -24 24 -28 9 -43 -17 -16 -48 -12
-48 7 0 6 5 8 10 5 14 -9 12 19 -2 34 -11 10 -9 15 6 27 24 17 21 17 35 0z
m31 -73 c-10 -16 -11 -15 -6 7 3 14 7 36 7 50 2 19 3 18 6 -7 2 -18 -1 -41 -7
-50z m71 -16 c-6 -6 -8 5 -6 34 5 59 8 61 12 15 3 -21 0 -43 -6 -49z m73 31
c-1 -18 -3 -37 -4 -43 0 -6 -3 -6 -8 1 -4 6 -15 13 -25 17 -17 6 -16 9 4 36
27 36 38 32 33 -11z m90 -10 l6 -33 23 35 c21 35 22 35 25 10 2 -14 -2 -37 -7
-50 -9 -21 -10 -19 -5 15 l5 40 -16 -27 c-9 -16 -20 -28 -24 -28 -5 0 -12 12
-17 28 l-8 27 -6 -35 -7 -35 -2 32 c-2 65 21 80 33 21z m96 -13 c0 -39 -8 -65
-21 -65 -6 0 -5 10 2 21 6 12 9 36 7 54 -2 19 0 31 4 29 4 -3 8 -20 8 -39z
m297 -2 c-3 -10 -5 -4 -5 12 0 17 2 24 5 18 2 -7 2 -21 0 -30z m-10 -70 c-3
-10 -5 -4 -5 12 0 17 2 24 5 18 2 -7 2 -21 0 -30z m-10 -70 c-3 -10 -5 -4 -5
12 0 17 2 24 5 18 2 -7 2 -21 0 -30z m-1175 15 c2 -6 2 -24 0 -40 -3 -21 -10
-28 -28 -28 -29 0 -33 7 -27 48 4 25 10 32 28 32 13 0 25 -5 27 -12z m65 -39
c0 -37 -2 -39 -29 -39 -29 0 -30 1 -23 37 12 66 52 67 52 2z m63 -3 c0 -19 -4
-38 -10 -41 -5 -3 -10 -1 -10 4 0 6 -7 11 -15 11 -19 0 -19 5 1 35 23 34 34
31 34 -9z m-1880 15 c0 -5 -9 -7 -20 -4 -11 3 -20 1 -20 -5 0 -6 9 -14 20 -17
11 -3 20 -15 20 -26 0 -14 -7 -19 -30 -19 -16 0 -30 4 -30 9 0 4 11 6 25 3 14
-2 25 0 25 5 0 5 -11 15 -25 21 -25 12 -31 23 -18 35 10 10 53 8 53 -2z m26
-45 c-4 -15 -1 -26 7 -29 7 -3 5 -6 -5 -6 -10 -1 -18 2 -18 7 0 15 13 52 17
52 3 0 2 -11 -1 -24z m2891 -13 c-3 -10 -5 -4 -5 12 0 17 2 24 5 18 2 -7 2
-21 0 -30z m-2856 -9 c-5 -16 -10 -21 -10 -12 -1 18 10 51 15 45 2 -1 -1 -16
-5 -33z m37 19 c-1 -10 0 -22 4 -28 3 -5 0 -16 -8 -23 -12 -11 -14 -9 -14 12
0 26 9 56 17 56 2 0 3 -8 1 -17z m139 -5 c-3 -8 -6 -5 -6 6 -1 11 2 17 5 13 3
-3 4 -12 1 -19z m-105 -30 c-6 -6 -7 0 -4 19 5 21 7 23 10 9 2 -10 0 -22 -6
-28z m33 -24 c-15 -18 -18 -9 -10 33 l8 38 6 -30 c4 -16 2 -35 -4 -41z m38 24
c-10 -21 -10 -21 -9 9 1 19 5 28 10 23 6 -6 5 -18 -1 -32z m102 -17 c-4 -17
-12 -34 -18 -37 -7 -4 -9 -4 -5 1 5 5 -1 14 -12 22 -11 8 -20 20 -20 26 0 7 5
4 11 -5 14 -25 28 -22 35 7 9 36 17 23 9 -14z m-78 -3 c-3 -7 -5 -2 -5 12 0
14 2 19 5 13 2 -7 2 -19 0 -25z m2680 -25 c-3 -10 -5 -4 -5 12 0 17 2 24 5 18
2 -7 2 -21 0 -30z m-10 -75 c-3 -7 -5 -2 -5 12 0 14 2 19 5 13 2 -7 2 -19 0
-25z m-1189 -67 c0 -44 -16 -57 -44 -36 -17 12 -16 13 9 8 27 -5 38 10 15 21
-10 5 -10 7 0 12 19 9 14 22 -10 27 -20 4 -20 4 4 6 25 1 27 -2 26 -38z m74
17 c2 -6 2 -24 0 -40 -4 -23 -9 -28 -33 -28 -16 0 -29 4 -29 9 0 4 11 6 25 3
15 -2 25 0 25 7 0 6 -9 11 -19 11 -23 0 -35 15 -27 35 6 18 53 20 58 3z m1105
-20 c-3 -7 -5 -2 -5 12 0 14 2 19 5 13 2 -7 2 -19 0 -25z m-1045 -18 c-2 -22
-8 -40 -13 -40 -5 0 -9 5 -9 10 0 6 -7 10 -15 10 -21 0 -19 10 7 37 30 32 34
29 30 -17z m56 2 c4 -29 16 -28 32 3 19 35 30 18 20 -30 l-8 -40 -1 35 -2 35
-15 -29 c-13 -22 -18 -26 -25 -15 -5 8 -9 23 -10 34 0 12 -4 7 -10 -14 -13
-43 -20 -36 -12 12 6 40 26 45 31 9z m-1987 -33 c-6 -16 -10 -18 -10 -7 -1 22
12 55 16 42 2 -6 -1 -22 -6 -35z m194 31 c3 -5 3 -16 -2 -22 -4 -7 -7 -23 -6
-36 1 -19 0 -19 -4 -2 -5 24 -43 28 -43 3 0 -9 -3 -14 -6 -11 -3 3 -2 22 1 42
6 29 12 36 31 36 12 0 26 -4 29 -10z m-152 -20 c-3 -11 -10 -23 -16 -27 -7 -4
-8 0 -4 11 4 10 7 22 7 27 0 5 4 9 9 9 5 0 7 -9 4 -20z m37 -16 c0 -13 -3 -24
-7 -24 -5 0 -8 13 -8 29 0 16 3 27 8 24 4 -2 7 -15 7 -29z m187 -8 c9 -41 9
-43 -8 -33 -11 7 -15 15 -9 22 5 6 5 17 1 24 -7 11 -10 9 -15 -7 -4 -11 -14
-26 -23 -34 -12 -9 -10 -2 6 30 12 23 25 42 30 42 4 0 12 -20 18 -44z m93 14
c15 -29 3 -59 -26 -66 -34 -9 -45 5 -37 49 5 30 10 37 29 37 13 0 28 -9 34
-20z m80 -1 c12 -8 9 -9 -12 -5 -21 5 -28 3 -28 -9 0 -8 8 -15 18 -16 16 0 16
-1 -1 -8 -25 -9 -23 -25 5 -33 22 -6 22 -6 -4 -7 -34 -1 -39 7 -31 52 6 39 24
47 53 26z m2527 -26 c-3 -10 -5 -4 -5 12 0 17 2 24 5 18 2 -7 2 -21 0 -30z
m-2412 -7 c0 -11 -7 -21 -15 -23 -12 -4 -13 -3 -1 5 16 11 6 32 -15 32 -8 0
-14 -10 -14 -22 0 -13 -5 -30 -10 -38 -8 -12 -10 -9 -10 12 0 44 10 59 39 56
18 -2 26 -9 26 -22z m49 -12 c17 -6 22 -39 8 -48 -5 -3 -8 5 -8 17 1 13 -5 22
-14 22 -9 0 -15 -9 -14 -22 0 -13 -3 -23 -8 -23 -12 0 -10 34 4 48 14 14 12
14 32 6z m38 -29 c-3 -18 0 -25 11 -25 19 0 29 24 16 39 -5 6 -2 5 6 -2 21
-18 8 -47 -21 -47 -18 0 -24 5 -24 23 0 20 7 37 15 37 1 0 0 -11 -3 -25z
m2315 -22 c-3 -10 -5 -4 -5 12 0 17 2 24 5 18 2 -7 2 -21 0 -30z m-2250 -15
c-3 -7 -5 -2 -5 12 0 14 2 19 5 13 2 -7 2 -19 0 -25z m2240 -55 c-3 -10 -5 -4
-5 12 0 17 2 24 5 18 2 -7 2 -21 0 -30z m-1185 -53 c-2 -19 -7 -39 -11 -43
-10 -10 -41 2 -41 15 0 6 6 6 14 -1 11 -9 16 -9 21 0 4 6 1 16 -6 21 -11 7
-11 11 -1 15 17 7 15 21 -5 27 -11 3 -7 4 7 3 22 -2 25 -6 22 -37z m38 -4 c0
-19 -4 -37 -9 -40 -5 -3 -8 12 -7 34 1 49 16 54 16 6z m67 17 c4 -10 -2 -23
-15 -34 -27 -21 -27 -26 -4 -32 10 -3 6 -5 -10 -6 -34 -1 -35 9 -3 39 25 23
24 46 -1 36 -8 -3 -14 -1 -14 4 0 17 40 11 47 -7z m48 -23 c8 -37 18 -38 33
-5 6 14 16 25 22 25 11 0 11 -22 -1 -65 -8 -28 -8 -28 -5 9 2 33 1 36 -11 20
-7 -10 -13 -21 -13 -26 0 -19 -20 -6 -26 17 -7 29 -24 24 -24 -7 0 -12 -3 -19
-6 -16 -8 8 7 78 16 78 5 0 11 -13 15 -30z m1022 -7 c-3 -10 -5 -4 -5 12 0 17
2 24 5 18 2 -7 2 -21 0 -30z m-2915 -23 c-3 -26 -9 -40 -18 -40 -12 0 -12 4
-2 21 11 17 10 22 -7 36 -16 12 -16 14 -3 10 10 -3 20 -2 23 3 10 16 11 12 7
-30z m73 20 c-5 -16 -2 -20 14 -20 23 0 28 15 9 23 -10 4 -10 6 -1 6 18 1 21
-11 13 -54 -4 -22 -8 -30 -9 -19 -1 28 -27 38 -41 16 -10 -14 -10 -13 -6 8 3
14 6 33 6 43 0 9 5 17 11 17 6 0 8 -9 4 -20z m1949 8 c-4 -7 -11 -28 -15 -48
l-7 -35 -1 32 c-1 37 7 63 21 63 5 0 6 -5 2 -12z m76 -7 c0 -4 -11 -6 -25 -3
-14 2 -25 0 -25 -6 0 -6 10 -12 23 -14 17 -2 21 -9 19 -27 -3 -32 -6 -34 -31
-26 -16 5 -21 15 -21 39 0 18 3 36 7 39 9 10 53 8 53 -2z m67 -33 c-3 -44 -13
-57 -36 -51 -22 6 -35 29 -21 38 6 4 10 15 10 26 0 14 7 19 24 19 22 0 25 -4
23 -32z m76 15 c-29 -5 -30 -19 -2 -26 15 -4 20 -12 17 -29 -3 -25 -34 -36
-51 -19 -9 9 -5 11 13 9 17 -2 25 2 25 12 0 8 -8 14 -17 14 -13 -1 -18 5 -18
22 0 20 5 24 28 23 23 -2 24 -2 5 -6z m57 -7 c0 -3 -4 -8 -10 -11 -5 -3 -10
-1 -10 4 0 6 5 11 10 11 6 0 10 -2 10 -4z m-2120 -31 c0 -20 -5 -25 -25 -25
-44 0 -27 37 23 49 1 1 2 -10 2 -24z m32 0 c-2 -14 -9 -28 -15 -32 -7 -4 -8 0
-4 11 4 10 7 24 7 32 0 8 4 14 9 14 4 0 6 -11 3 -25z m84 -10 c-1 -46 -16 -46
-16 0 0 19 4 35 8 35 5 0 8 -16 8 -35z m2090 -20 c-4 -25 -11 -45 -16 -45 -6
0 -5 11 0 26 6 14 10 37 10 51 0 15 3 24 6 20 4 -3 3 -27 0 -52z m521 18 c-3
-10 -5 -4 -5 12 0 17 2 24 5 18 2 -7 2 -21 0 -30z m-2656 -4 c-9 -22 -10 -22
-10 -3 -1 11 2 24 6 27 12 12 14 0 4 -24z m2076 4 c1 -19 -1 -22 -8 -12 -7 12
-9 12 -9 0 0 -8 -3 -12 -6 -9 -5 5 12 48 19 48 1 0 3 -12 4 -27z m-2000 -20
c-3 -10 -5 -4 -5 12 0 17 2 24 5 18 2 -7 2 -21 0 -30z m2570 -50 c-3 -10 -5
-4 -5 12 0 17 2 24 5 18 2 -7 2 -21 0 -30z m-10 -70 c-3 -10 -5 -4 -5 12 0 17
2 24 5 18 2 -7 2 -21 0 -30z m-1208 -25 c0 -13 -4 -32 -9 -43 -7 -15 -9 -9 -7
22 1 24 5 43 10 43 4 0 7 -10 6 -22z m57 14 c7 -4 11 -23 10 -42 -1 -30 -5
-35 -26 -35 -21 0 -25 4 -23 29 4 53 14 65 39 48z m64 -38 c0 -31 13 -31 30 1
26 48 40 16 20 -45 -8 -25 -8 -25 -9 5 -2 27 -3 28 -15 13 -19 -25 -24 -23
-35 15 -8 28 -9 29 -10 7 -1 -14 -6 -32 -12 -40 -7 -11 -8 -4 -3 25 4 22 9 43
11 48 8 14 23 -4 23 -29z m1077 -26 c-3 -7 -5 -2 -5 12 0 14 2 19 5 13 2 -7 2
-19 0 -25z m-2813 -22 c-3 -21 -9 -35 -11 -32 -3 3 -2 21 1 42 4 20 10 34 12
31 3 -3 2 -21 -2 -41z m-62 22 c-19 -19 -15 -50 6 -46 11 3 16 12 14 28 -2 18
0 22 9 13 6 -6 8 -21 4 -33 -8 -26 -48 -24 -53 3 -3 17 13 47 26 47 3 0 1 -5
-6 -12z m92 -32 c-3 -21 -8 -35 -11 -32 -2 2 -1 20 3 40 3 21 8 35 11 32 2 -2
1 -20 -3 -40z m50 18 c18 -7 22 -64 5 -64 -6 0 -9 7 -5 15 3 8 0 15 -7 15 -8
0 -8 3 2 9 11 7 10 11 -5 20 -21 11 -15 15 10 5z m50 -34 c1 -16 -2 -30 -6
-30 -5 0 -8 17 -8 37 0 43 13 37 14 -7z m41 10 c-3 -5 1 -10 10 -10 10 0 13 5
9 12 -4 7 -3 8 4 4 20 -12 13 -24 -17 -28 -23 -3 -27 -1 -23 14 2 10 9 18 14
18 5 0 6 -4 3 -10z m166 -36 c-5 -21 -9 -30 -10 -19 -1 24 10 67 15 62 3 -2 0
-22 -5 -43z m-284 14 c-3 -8 -6 -5 -6 6 -1 11 2 17 5 13 3 -3 4 -12 1 -19z
m187 14 c-7 -4 -14 -16 -17 -27 -4 -15 -5 -14 -6 8 -1 20 4 27 17 27 11 0 13
-3 6 -8z m66 -33 c0 -18 -4 -28 -10 -24 -6 4 -8 11 -5 16 4 5 -1 9 -10 9 -9 0
-13 -4 -10 -10 3 -5 1 -10 -4 -10 -6 0 -11 7 -11 15 0 9 9 15 21 15 15 0 19 5
15 16 -3 8 -2 12 4 9 6 -3 10 -20 10 -36z m145 29 c2 -7 0 -29 -4 -48 -6 -24
-9 -28 -10 -12 -1 26 -25 29 -41 5 -10 -15 -11 -14 -6 7 3 14 6 33 6 43 0 20
48 24 55 5z m2352 -25 c-3 -10 -5 -4 -5 12 0 17 2 24 5 18 2 -7 2 -21 0 -30z
m-2250 -28 c-3 -46 -17 -46 -17 0 0 19 4 35 9 35 5 0 9 -16 8 -35z m-364 18
c-7 -2 -19 -2 -25 0 -7 3 -2 5 12 5 14 0 19 -2 13 -5z m327 -24 c0 -16 -4 -28
-9 -25 -5 4 -8 14 -6 24 2 9 4 20 4 25 1 4 3 7 6 7 3 0 5 -14 5 -31z m71 -15
c-5 -16 -10 -21 -10 -12 -1 18 10 51 15 45 2 -1 -1 -16 -5 -33z m63 27 c3 -5
-2 -8 -12 -7 -12 1 -17 -6 -16 -21 0 -13 -3 -23 -8 -23 -12 0 -10 34 4 48 14
14 25 15 32 3z m-170 -16 c3 -8 1 -15 -4 -15 -6 0 -10 7 -10 15 0 8 2 15 4 15
2 0 6 -7 10 -15z m2313 -32 c-3 -10 -5 -4 -5 12 0 17 2 24 5 18 2 -7 2 -21 0
-30z m-2136 4 c-10 -9 -11 -8 -5 6 3 10 9 15 12 12 3 -3 0 -11 -7 -18z m2126
-74 c-3 -10 -5 -4 -5 12 0 17 2 24 5 18 2 -7 2 -21 0 -30z m-1180 0 c4 -11 -1
-22 -15 -31 -27 -17 -28 -29 -4 -35 12 -3 13 -5 2 -6 -8 0 -22 4 -30 9 -13 9
-11 14 13 31 32 24 36 44 7 36 -11 -3 -20 -1 -20 4 0 16 40 9 47 -8z m35 -33
c-2 -22 -7 -40 -11 -40 -3 0 -6 18 -6 40 0 22 5 40 10 40 6 0 9 -17 7 -40z
m52 34 c23 -9 20 -37 -6 -53 -22 -14 -22 -14 -3 -22 17 -7 16 -8 -7 -8 -35 -1
-36 12 -1 37 27 20 25 46 -4 35 -11 -4 -14 -3 -9 5 8 14 9 14 30 6z m99 -21
c-25 -5 -32 -23 -9 -23 16 0 29 -27 20 -41 -10 -17 -22 -9 -17 11 4 15 0 20
-16 20 -23 0 -24 1 -15 24 4 10 17 15 33 15 23 -2 24 -2 4 -6z m54 -35 c-3 -7
-5 -2 -5 12 0 14 2 19 5 13 2 -7 2 -19 0 -25z m26 7 c-3 -9 -8 -14 -10 -11 -3
3 -2 9 2 15 9 16 15 13 8 -4z m904 -22 c-3 -10 -5 -4 -5 12 0 17 2 24 5 18 2
-7 2 -21 0 -30z m-1012 -13 c3 -5 1 -10 -4 -10 -6 0 -11 5 -11 10 0 6 2 10 4
10 3 0 8 -4 11 -10z m102 -12 c-3 -8 -6 -5 -6 6 -1 11 2 17 5 13 3 -3 4 -12 1
-19z m900 -45 c-3 -10 -5 -4 -5 12 0 17 2 24 5 18 2 -7 2 -21 0 -30z m-10 -70
c-3 -10 -5 -4 -5 12 0 17 2 24 5 18 2 -7 2 -21 0 -30z m-10 -70 c-3 -10 -5 -4
-5 12 0 17 2 24 5 18 2 -7 2 -21 0 -30z m-10 -75 c-3 -7 -5 -2 -5 12 0 14 2
19 5 13 2 -7 2 -19 0 -25z m-10 -75 c-3 -10 -5 -4 -5 12 0 17 2 24 5 18 2 -7
2 -21 0 -30z m-10 -70 c-3 -10 -5 -4 -5 12 0 17 2 24 5 18 2 -7 2 -21 0 -30z
m-10 -70 c-3 -10 -5 -4 -5 12 0 17 2 24 5 18 2 -7 2 -21 0 -30z m-2607 -7 c0
-2 -8 -10 -17 -17 -16 -13 -17 -12 -4 4 13 16 21 21 21 13z m2597 -63 c-3 -10
-5 -4 -5 12 0 17 2 24 5 18 2 -7 2 -21 0 -30z m-10 -70 c-3 -10 -5 -4 -5 12 0
17 2 24 5 18 2 -7 2 -21 0 -30z m-2612 -28 c66 -9 581 -81 1145 -160 564 -79
1068 -149 1120 -156 91 -11 155 -27 119 -28 -8 -1 -380 50 -825 113 -445 63
-1009 142 -1254 176 -245 34 -454 65 -465 71 -16 7 -14 8 10 4 17 -2 84 -11
150 -20z m2602 -42 c-3 -10 -5 -4 -5 12 0 17 2 24 5 18 2 -7 2 -21 0 -30z
m-482 -40 c-11 -3 -23 -10 -27 -17 -5 -7 -8 -7 -8 0 0 16 11 24 34 23 20 -1
20 -1 1 -6z m472 -30 c-3 -10 -5 -4 -5 12 0 17 2 24 5 18 2 -7 2 -21 0 -30z
m-412 -15 c-3 -56 -13 -68 -55 -68 -45 0 -54 10 -45 49 6 27 8 28 45 21 40 -7
59 7 43 32 -3 6 -2 8 4 5 5 -3 9 -21 8 -39z m45 18 c0 -3 -4 -8 -10 -11 -5 -3
-10 -1 -10 4 0 6 5 11 10 11 6 0 10 -2 10 -4z m-2388 -61 c-2 -19 -6 -35 -8
-35 -2 0 -4 16 -4 35 0 19 4 35 8 35 4 0 6 -16 4 -35z m83 13 c3 -7 1 -26 -5
-43 l-9 -30 2 35 c3 44 -26 50 -31 8 -2 -16 -8 -28 -14 -28 -5 0 -7 7 -4 16 3
9 6 24 6 35 0 14 7 19 25 19 14 0 28 -6 30 -12z m41 -34 c1 -29 1 -32 -3 -9
-3 17 -10 36 -16 44 -10 11 -9 13 3 9 10 -3 15 -19 16 -44z m2621 4 c-3 -7 -5
-2 -5 12 0 14 2 19 5 13 2 -7 2 -19 0 -25z m-10 -70 c-3 -7 -5 -2 -5 12 0 14
2 19 5 13 2 -7 2 -19 0 -25z m-10 -75 c-3 -10 -5 -4 -5 12 0 17 2 24 5 18 2
-7 2 -21 0 -30z m-1027 -38 c0 -3 -4 -3 -10 0 -5 3 -10 -1 -10 -9 0 -8 5 -18
10 -21 6 -3 10 -15 10 -26 0 -23 -39 -42 -57 -27 -18 14 -16 29 2 22 19 -8 19
10 -1 40 -14 23 -14 25 7 39 18 13 24 14 35 2 8 -7 14 -16 14 -20z m39 -22 c0
-21 -4 -47 -9 -58 -5 -14 -8 -1 -7 37 1 32 5 58 10 58 4 0 7 -17 6 -37z m115
21 c9 -3 16 -14 15 -23 0 -10 -2 -11 -6 -3 -7 17 -43 15 -43 -3 0 -8 9 -15 20
-15 25 0 37 -27 23 -49 -10 -15 -49 -18 -62 -5 -9 8 -1 77 11 91 12 15 19 16
42 7z m863 -31 c-3 -10 -5 -4 -5 12 0 17 2 24 5 18 2 -7 2 -21 0 -30z m-757 8
c0 -5 -7 -14 -16 -22 -8 -7 -22 -26 -31 -43 -10 -18 -18 -26 -21 -18 -2 7 8
28 22 47 l26 34 -27 4 c-23 3 -21 4 10 6 20 0 37 -3 37 -8z m67 -48 c1 -48
-15 -68 -47 -58 -18 6 -20 13 -16 48 2 23 5 46 5 50 1 5 13 7 29 5 24 -3 27
-7 29 -45z m89 22 c3 -8 2 -32 -3 -52 -7 -31 -14 -39 -35 -41 -16 -2 -28 3
-31 13 -6 13 -3 14 13 5 21 -11 40 -6 40 11 0 5 -9 9 -20 9 -23 0 -39 26 -33
51 6 23 61 26 69 4z m113 -11 c2 -2 -11 -24 -28 -50 -17 -26 -31 -41 -31 -32
0 8 9 27 20 41 11 14 20 28 20 31 0 3 -9 6 -20 6 -11 0 -20 5 -20 10 0 9 47 4
59 -6z m72 -4 c14 0 11 -74 -4 -94 -10 -13 -20 -16 -35 -12 -30 10 -28 24 3
18 18 -3 25 0 25 12 0 9 -3 15 -7 15 -29 -5 -43 3 -43 24 0 28 19 49 38 42 8
-3 18 -5 23 -5z m406 -37 c-3 -10 -5 -4 -5 12 0 17 2 24 5 18 2 -7 2 -21 0
-30z m-932 8 c3 -5 1 -12 -5 -16 -5 -3 -10 1 -10 9 0 18 6 21 15 7z m922 -78
c-3 -10 -5 -4 -5 12 0 17 2 24 5 18 2 -7 2 -21 0 -30z m-10 -70 c-3 -10 -5 -4
-5 12 0 17 2 24 5 18 2 -7 2 -21 0 -30z m-10 -70 c-3 -10 -5 -4 -5 12 0 17 2
24 5 18 2 -7 2 -21 0 -30z m-10 -75 c-3 -7 -5 -2 -5 12 0 14 2 19 5 13 2 -7 2
-19 0 -25z m-10 -70 c-3 -7 -5 -2 -5 12 0 14 2 19 5 13 2 -7 2 -19 0 -25z
m-2015 -29 c-1 -13 -4 -30 -7 -36 -5 -16 -41 -17 -50 -3 -4 7 2 9 19 4 28 -7
34 4 14 24 -9 9 -9 12 1 12 8 0 11 6 7 16 -4 10 -1 14 6 11 7 -2 12 -15 10
-28z m30 6 c-2 -14 -9 -25 -14 -25 -6 0 -7 7 -4 16 3 9 6 20 6 25 0 5 4 9 9 9
4 0 6 -11 3 -25z m32 -24 c11 -18 -6 -41 -30 -41 -13 0 -24 4 -24 9 0 5 10 7
22 3 18 -4 20 -2 16 16 -6 22 6 30 16 13z m55 -12 c-9 -17 -8 -23 2 -30 10 -6
10 -9 2 -9 -6 0 -14 4 -17 8 -7 12 5 52 16 52 5 0 4 -10 -3 -21z m1888 -16
c-3 -10 -5 -4 -5 12 0 17 2 24 5 18 2 -7 2 -21 0 -30z m-1847 17 c0 -5 -2 -10
-4 -10 -3 0 -8 5 -11 10 -3 6 -1 10 4 10 6 0 11 -4 11 -10z m40 -17 c0 21 19
22 27 1 5 -13 7 -13 14 -2 5 7 9 8 9 2 0 -5 -7 -19 -15 -30 -14 -18 -14 -18
-15 11 -1 29 -2 29 -12 8 -15 -30 -25 -29 -31 4 -5 26 -4 26 9 8 12 -16 14
-17 14 -2z m108 -6 c2 -12 -3 -17 -18 -17 -12 0 -18 -4 -15 -10 3 -5 1 -10 -4
-10 -15 0 -14 33 1 48 15 15 32 10 36 -11z m-161 -29 c-3 -7 -5 -2 -5 12 0 14
2 19 5 13 2 -7 2 -19 0 -25z m190 -5 c-3 -10 -5 -4 -5 12 0 17 2 24 5 18 2 -7
2 -21 0 -30z m-212 -11 c-3 -3 -11 0 -18 7 -9 10 -8 11 6 5 10 -3 15 -9 12
-12z m1872 -19 c-3 -10 -5 -4 -5 12 0 17 2 24 5 18 2 -7 2 -21 0 -30z m-815
-45 c-1 -16 2 -28 8 -28 5 0 10 11 10 25 0 20 5 25 25 25 23 0 25 -3 22 -42
-2 -39 -4 -43 -27 -40 -14 1 -37 2 -52 2 -15 0 -29 4 -32 9 -3 5 3 7 14 4 14
-4 20 0 20 11 0 9 -5 16 -12 16 -6 0 -4 6 7 13 12 10 14 16 7 21 -7 4 -16 4
-22 1 -5 -3 -10 -1 -10 5 0 6 10 10 23 8 17 -2 21 -9 19 -30z m805 -25 c-3
-10 -5 -4 -5 12 0 17 2 24 5 18 2 -7 2 -21 0 -30z m-685 -18 c-3 -18 0 -25 11
-25 9 0 17 11 20 28 3 22 4 20 6 -10 0 -20 -3 -40 -9 -43 -5 -3 -10 -1 -10 4
0 6 -7 11 -15 11 -10 0 -15 10 -15 30 0 17 4 30 9 30 4 0 6 -11 3 -25z m78
-15 c5 0 7 -7 3 -15 -8 -21 -17 -10 -19 23 -1 15 0 19 3 10 2 -10 8 -18 13
-18z m30 4 c0 -8 5 -12 10 -9 6 3 10 2 10 -4 0 -20 -19 -21 -29 -2 -14 25 -14
44 -1 36 6 -3 10 -13 10 -21z m54 -18 c-3 -8 2 -16 13 -19 14 -4 14 -5 -4 -6
-18 -1 -23 4 -23 25 0 14 4 23 10 19 5 -3 7 -12 4 -19z m33 2 c-3 -8 -6 -5 -6
6 -1 11 2 17 5 13 3 -3 4 -12 1 -19z m480 -25 c-3 -10 -5 -4 -5 12 0 17 2 24
5 18 2 -7 2 -21 0 -30z m-460 -5 c-3 -8 -6 -5 -6 6 -1 11 2 17 5 13 3 -3 4
-12 1 -19z m450 -65 c-3 -10 -5 -4 -5 12 0 17 2 24 5 18 2 -7 2 -21 0 -30z
m-10 -70 c-3 -10 -5 -4 -5 12 0 17 2 24 5 18 2 -7 2 -21 0 -30z"/>
<path d="M4570 7726 c0 -16 7 -27 20 -31 27 -9 40 1 40 31 0 20 -5 24 -30 24
-25 0 -30 -4 -30 -24z"/>
<path d="M4712 7700 c-17 -28 -15 -40 8 -40 21 0 27 24 12 47 -6 9 -11 7 -20
-7z"/>
<path d="M4827 7713 c-3 -5 -7 -30 -8 -58 -4 -47 -2 -50 20 -53 15 -3 30 3 38
14 16 22 17 76 1 92 -13 13 -44 16 -51 5z"/>
<path d="M6120 7469 c0 -38 24 -35 28 4 2 19 -1 27 -12 27 -11 0 -16 -10 -16
-31z"/>
<path d="M6556 7431 c-3 -5 1 -11 9 -15 9 -3 15 0 15 9 0 16 -16 20 -24 6z"/>
<path d="M6550 7396 c0 -9 7 -16 16 -16 9 0 14 5 12 12 -6 18 -28 21 -28 4z"/>
<path d="M7040 7394 c0 -21 4 -25 23 -22 14 2 23 11 25 26 3 18 -1 22 -22 22
-21 0 -26 -5 -26 -26z"/>
<path d="M7150 7386 c0 -32 36 -42 44 -13 5 21 -8 37 -31 37 -7 0 -13 -11 -13
-24z"/>
<path d="M7023 7295 c-7 -19 -5 -20 25 -29 19 -6 22 -4 22 18 0 19 -5 26 -20
26 -11 0 -23 -7 -27 -15z"/>
<path d="M7137 7294 c-4 -4 -7 -16 -7 -26 0 -13 7 -18 26 -18 21 0 25 4 22 22
-3 23 -27 35 -41 22z"/>
<path d="M4157 6913 c-14 -13 -6 -23 18 -23 18 0 23 4 19 15 -6 16 -26 20 -37
8z"/>
<path d="M4370 6869 c-15 -26 -6 -49 19 -49 22 0 35 38 19 57 -15 18 -26 16
-38 -8z"/>
<path d="M4222 6648 c7 -19 38 -22 38 -4 0 10 -9 16 -21 16 -12 0 -19 -5 -17
-12z"/>
<path d="M4784 6606 c-8 -21 -1 -49 13 -53 15 -5 36 34 29 53 -7 18 -35 18
-42 0z"/>
<path d="M5027 6583 c-4 -3 -7 -19 -7 -35 0 -21 5 -28 19 -28 24 0 37 36 21
55 -14 16 -23 19 -33 8z"/>
<path d="M5437 6524 c-14 -14 -6 -24 19 -24 16 0 24 5 22 13 -5 14 -31 21 -41
11z"/>
<path d="M6086 6454 c-9 -23 -8 -24 24 -24 32 0 42 23 14 34 -24 9 -31 7 -38
-10z"/>
<path d="M5947 6454 c-13 -13 -7 -24 14 -24 11 0 19 5 17 12 -5 14 -22 21 -31
12z"/>
<path d="M6207 6418 c-6 -23 12 -43 25 -30 9 9 -1 52 -12 52 -4 0 -10 -10 -13
-22z"/>
<path d="M6315 6429 c-2 -8 -6 -30 -7 -49 -2 -26 1 -35 15 -38 10 -2 24 2 32
8 16 14 21 80 6 80 -5 0 -16 3 -25 6 -9 3 -18 0 -21 -7z"/>
<path d="M6627 6338 c-4 -14 -1 -29 8 -38 18 -17 33 -5 37 30 4 35 -37 42 -45
8z"/>
<path d="M4390 6235 c0 -8 9 -15 20 -15 11 0 20 7 20 15 0 8 -9 15 -20 15 -11
0 -20 -7 -20 -15z"/>
<path d="M4382 6193 c4 -22 43 -25 43 -3 0 8 -11 16 -23 18 -19 3 -23 0 -20
-15z"/>
<path d="M4306 6015 c-11 -29 -6 -63 9 -69 17 -6 38 35 33 63 -4 22 -34 26
-42 6z"/>
<path d="M5923 6010 c3 -11 1 -20 -4 -20 -5 0 -9 -9 -9 -20 0 -13 7 -20 19
-20 23 0 36 16 21 25 -8 5 -8 11 0 20 14 17 5 35 -17 35 -10 0 -14 -6 -10 -20z"/>
<path d="M4156 5103 c-3 -3 -6 -21 -6 -39 0 -24 5 -34 20 -39 35 -11 60 3 60
35 0 16 -3 31 -7 33 -18 10 -60 16 -67 10z"/>
<path d="M4391 5006 c-7 -8 -11 -30 -9 -48 3 -29 6 -33 32 -33 25 0 31 5 38
33 14 52 -30 86 -61 48z"/>
<path d="M4634 4982 c-32 -20 -27 -86 7 -95 44 -12 70 71 30 93 -23 12 -23 12
-37 2z"/>
<path d="M4900 4930 c-19 -35 -9 -74 19 -78 46 -7 71 66 32 88 -28 15 -39 13
-51 -10z"/>
<path d="M5423 4805 c-7 -19 13 -36 37 -32 8 1 15 11 15 22 0 26 -42 34 -52
10z"/>
<path d="M5817 4284 c-3 -16 0 -28 10 -31 17 -7 20 -4 28 30 6 23 4 27 -13 27
-13 0 -21 -8 -25 -26z"/>
<path d="M4550 4160 c0 -5 7 -10 15 -10 8 0 15 5 15 10 0 6 -7 10 -15 10 -8 0
-15 -4 -15 -10z"/>
<path d="M5886 4001 c-4 -7 -5 -15 -2 -18 9 -9 19 4 14 18 -4 11 -6 11 -12 0z"/>
<path d="M6466 3921 c-4 -7 -5 -15 -2 -18 9 -9 19 4 14 18 -4 11 -6 11 -12 0z"/>
<path d="M5742 3740 c0 -18 4 -30 12 -30 7 0 13 12 13 30 0 17 -6 30 -12 30
-7 0 -12 -13 -13 -30z"/>
<path d="M5810 3750 c0 -5 7 -10 15 -10 8 0 15 5 15 10 0 6 -7 10 -15 10 -8 0
-15 -4 -15 -10z"/>
<path d="M5807 3724 c-13 -13 -7 -24 14 -24 11 0 19 5 17 12 -5 14 -22 21 -31
12z"/>
<path d="M5880 3725 c-10 -12 -10 -15 4 -15 9 0 16 7 16 15 0 8 -2 15 -4 15
-2 0 -9 -7 -16 -15z"/>
<path d="M5770 3475 c0 -8 7 -15 15 -15 8 0 15 7 15 15 0 8 -7 15 -15 15 -8 0
-15 -7 -15 -15z"/>
<path d="M5846 3461 c-4 -7 -5 -15 -2 -18 9 -9 19 4 14 18 -4 11 -6 11 -12 0z"/>
<path d="M4092 3438 c5 -15 28 -18 29 -3 0 6 -7 12 -17 13 -10 3 -15 -1 -12
-10z"/>
<path d="M4248 3400 c-3 -19 0 -31 10 -35 22 -8 32 3 32 36 0 41 -36 41 -42
-1z"/>
<path d="M6010 3136 c0 -21 21 -31 30 -15 5 7 6 17 4 21 -9 14 -34 9 -34 -6z"/>
<path d="M6090 3160 c0 -5 7 -10 15 -10 8 0 15 5 15 10 0 6 -7 10 -15 10 -8 0
-15 -4 -15 -10z"/>
<path d="M6080 3126 c0 -9 7 -16 16 -16 9 0 14 5 12 12 -6 18 -28 21 -28 4z"/>
<path d="M4100 3120 c0 -5 7 -10 16 -10 8 0 12 5 9 10 -3 6 -10 10 -16 10 -5
0 -9 -4 -9 -10z"/>
<path d="M5676 2953 c-11 -11 -6 -23 9 -23 8 0 15 4 15 9 0 13 -16 22 -24 14z"/>
<path d="M5660 2906 c0 -10 9 -16 21 -16 24 0 21 23 -4 28 -10 2 -17 -3 -17
-12z"/>
<path d="M4433 2838 c2 -7 10 -13 17 -13 7 0 15 6 18 13 2 7 -5 12 -18 12 -13
0 -20 -5 -17 -12z"/>
<path d="M5580 1574 c0 -8 5 -12 10 -9 6 4 8 11 5 16 -9 14 -15 11 -15 -7z"/>
<path d="M5600 1519 c0 -11 4 -18 10 -14 5 3 7 12 3 20 -7 21 -13 19 -13 -6z"/>
<path d="M5740 1500 c0 -23 35 -28 43 -6 7 18 -1 26 -25 26 -11 0 -18 -7 -18
-20z"/>
<path d="M5910 1526 c0 -10 9 -16 21 -16 24 0 21 23 -4 28 -10 2 -17 -3 -17
-12z"/>
<path d="M5900 1476 c0 -15 24 -28 34 -19 13 14 5 33 -14 33 -11 0 -20 -6 -20
-14z"/>
<path d="M5992 1508 c2 -13 10 -23 18 -23 8 0 16 10 18 23 3 17 -2 22 -18 22
-16 0 -21 -5 -18 -22z"/>
<path d="M6185 1491 c-9 -16 3 -31 26 -31 14 0 19 6 17 17 -4 20 -33 29 -43
14z"/>
<path d="M4850 1040 c0 -5 5 -10 10 -10 6 0 10 5 10 10 0 6 -4 10 -10 10 -5 0
-10 -4 -10 -10z"/>
<path d="M5782 929 c2 -6 8 -10 13 -10 5 0 11 4 13 10 2 6 -4 11 -13 11 -9 0
-15 -5 -13 -11z"/>
<path d="M5773 888 c2 -7 10 -13 17 -13 7 0 15 6 18 13 2 7 -5 12 -18 12 -13
0 -20 -5 -17 -12z"/>
<path d="M4848 8293 c6 -2 18 -2 25 0 6 3 1 5 -13 5 -14 0 -19 -2 -12 -5z"/>
<path d="M52 8260 c0 -19 2 -27 5 -17 2 9 2 25 0 35 -3 9 -5 1 -5 -18z"/>
<path d="M3902 8260 c0 -19 2 -27 5 -17 2 9 2 25 0 35 -3 9 -5 1 -5 -18z"/>
<path d="M4928 8283 c7 -3 16 -2 19 1 4 3 -2 6 -13 5 -11 0 -14 -3 -6 -6z"/>
<path d="M4998 8273 c6 -2 18 -2 25 0 6 3 1 5 -13 5 -14 0 -19 -2 -12 -5z"/>
<path d="M5068 8263 c6 -2 18 -2 25 0 6 3 1 5 -13 5 -14 0 -19 -2 -12 -5z"/>
<path d="M5138 8253 c6 -2 18 -2 25 0 6 3 1 5 -13 5 -14 0 -19 -2 -12 -5z"/>
<path d="M5208 8243 c6 -2 18 -2 25 0 6 3 1 5 -13 5 -14 0 -19 -2 -12 -5z"/>
<path d="M5283 8233 c9 -2 23 -2 30 0 6 3 -1 5 -18 5 -16 0 -22 -2 -12 -5z"/>
<path d="M5348 8223 c6 -2 18 -2 25 0 6 3 1 5 -13 5 -14 0 -19 -2 -12 -5z"/>
<path d="M5418 8213 c6 -2 18 -2 25 0 6 3 1 5 -13 5 -14 0 -19 -2 -12 -5z"/>
<path d="M5498 8203 c7 -3 16 -2 19 1 4 3 -2 6 -13 5 -11 0 -14 -3 -6 -6z"/>
<path d="M5568 8193 c7 -3 16 -2 19 1 4 3 -2 6 -13 5 -11 0 -14 -3 -6 -6z"/>
<path d="M5638 8183 c6 -2 18 -2 25 0 6 3 1 5 -13 5 -14 0 -19 -2 -12 -5z"/>
<path d="M5708 8173 c6 -2 18 -2 25 0 6 3 1 5 -13 5 -14 0 -19 -2 -12 -5z"/>
<path d="M5778 8163 c6 -2 18 -2 25 0 6 3 1 5 -13 5 -14 0 -19 -2 -12 -5z"/>
<path d="M5848 8153 c6 -2 18 -2 25 0 6 3 1 5 -13 5 -14 0 -19 -2 -12 -5z"/>
<path d="M5923 8143 c9 -2 23 -2 30 0 6 3 -1 5 -18 5 -16 0 -22 -2 -12 -5z"/>
<path d="M5988 8133 c6 -2 18 -2 25 0 6 3 1 5 -13 5 -14 0 -19 -2 -12 -5z"/>
<path d="M6068 8123 c7 -3 16 -2 19 1 4 3 -2 6 -13 5 -11 0 -14 -3 -6 -6z"/>
<path d="M6138 8113 c7 -3 16 -2 19 1 4 3 -2 6 -13 5 -11 0 -14 -3 -6 -6z"/>
<path d="M6208 8103 c6 -2 18 -2 25 0 6 3 1 5 -13 5 -14 0 -19 -2 -12 -5z"/>
<path d="M40 7665 c0 -380 -2 -435 -15 -435 -8 0 -15 -4 -15 -10 0 -5 7 -7 15
-4 13 5 15 -28 15 -264 0 -231 -2 -271 -15 -276 -8 -3 -15 -10 -15 -15 0 -6 7
-8 15 -5 13 5 15 -29 15 -269 0 -254 -1 -276 -17 -280 -17 -4 -17 -5 0 -6 15
-1 17 -13 17 -101 0 -82 -3 -100 -15 -100 -8 0 -15 -4 -15 -10 0 -5 7 -10 15
-10 13 0 15 -247 18 -2142 2 -1685 3 -1448 5 1110 1 1788 0 3252 -3 3252 -3 0
-5 -196 -5 -435z"/>
<path d="M6278 8093 c6 -2 18 -2 25 0 6 3 1 5 -13 5 -14 0 -19 -2 -12 -5z"/>
<path d="M6348 8083 c6 -2 18 -2 25 0 6 3 1 5 -13 5 -14 0 -19 -2 -12 -5z"/>
<path d="M6418 8073 c6 -2 18 -2 25 0 6 3 1 5 -13 5 -14 0 -19 -2 -12 -5z"/>
<path d="M6493 8063 c9 -2 23 -2 30 0 6 3 -1 5 -18 5 -16 0 -22 -2 -12 -5z"/>
<path d="M6558 8053 c6 -2 18 -2 25 0 6 3 1 5 -13 5 -14 0 -19 -2 -12 -5z"/>
<path d="M6638 8043 c7 -3 16 -2 19 1 4 3 -2 6 -13 5 -11 0 -14 -3 -6 -6z"/>
<path d="M6708 8033 c7 -3 16 -2 19 1 4 3 -2 6 -13 5 -11 0 -14 -3 -6 -6z"/>
<path d="M6778 8023 c6 -2 18 -2 25 0 6 3 1 5 -13 5 -14 0 -19 -2 -12 -5z"/>
<path d="M6848 8013 c6 -2 18 -2 25 0 6 3 1 5 -13 5 -14 0 -19 -2 -12 -5z"/>
<path d="M6918 8003 c7 -3 16 -2 19 1 4 3 -2 6 -13 5 -11 0 -14 -3 -6 -6z"/>
<path d="M6978 7993 c6 -2 18 -2 25 0 6 3 1 5 -13 5 -14 0 -19 -2 -12 -5z"/>
<path d="M7038 7983 c7 -3 16 -2 19 1 4 3 -2 6 -13 5 -11 0 -14 -3 -6 -6z"/>
<path d="M7138 7963 c7 -3 16 -2 19 1 4 3 -2 6 -13 5 -11 0 -14 -3 -6 -6z"/>
<path d="M7280 7920 c8 -5 20 -10 25 -10 6 0 3 5 -5 10 -8 5 -19 10 -25 10 -5
0 -3 -5 5 -10z"/>
<path d="M7370 7876 c0 -2 8 -10 18 -17 15 -13 16 -12 3 4 -13 16 -21 21 -21
13z"/>
<path d="M7450 7805 c13 -14 26 -25 28 -25 3 0 -5 11 -18 25 -13 14 -26 25
-28 25 -3 0 5 -11 18 -25z"/>
<path d="M7490 7756 c0 -2 8 -10 18 -17 15 -13 16 -12 3 4 -13 16 -21 21 -21
13z"/>
<path d="M7556 7657 c3 -10 9 -15 12 -12 3 3 0 11 -7 18 -10 9 -11 8 -5 -6z"/>
<path d="M7612 7490 c0 -14 2 -19 5 -12 2 6 2 18 0 25 -3 6 -5 1 -5 -13z"/>
<path d="M7612 7275 c0 -16 2 -22 5 -12 2 9 2 23 0 30 -3 6 -5 -1 -5 -18z"/>
<path d="M7602 7180 c0 -14 2 -19 5 -12 2 6 2 18 0 25 -3 6 -5 1 -5 -13z"/>
<path d="M7592 7095 c0 -16 2 -22 5 -12 2 9 2 23 0 30 -3 6 -5 -1 -5 -18z"/>
<path d="M7582 7020 c0 -14 2 -19 5 -12 2 6 2 18 0 25 -3 6 -5 1 -5 -13z"/>
<path d="M7572 6950 c0 -14 2 -19 5 -12 2 6 2 18 0 25 -3 6 -5 1 -5 -13z"/>
<path d="M7562 6880 c0 -14 2 -19 5 -12 2 6 2 18 0 25 -3 6 -5 1 -5 -13z"/>
<path d="M7552 6810 c0 -14 2 -19 5 -12 2 6 2 18 0 25 -3 6 -5 1 -5 -13z"/>
<path d="M7542 6735 c0 -16 2 -22 5 -12 2 9 2 23 0 30 -3 6 -5 -1 -5 -18z"/>
<path d="M7532 6665 c0 -16 2 -22 5 -12 2 9 2 23 0 30 -3 6 -5 -1 -5 -18z"/>
<path d="M7522 6595 c0 -16 2 -22 5 -12 2 9 2 23 0 30 -3 6 -5 -1 -5 -18z"/>
<path d="M7511 6524 c0 -11 3 -14 6 -6 3 7 2 16 -1 19 -3 4 -6 -2 -5 -13z"/>
<path d="M7502 6450 c0 -14 2 -19 5 -12 2 6 2 18 0 25 -3 6 -5 1 -5 -13z"/>
<path d="M7492 6380 c0 -14 2 -19 5 -12 2 6 2 18 0 25 -3 6 -5 1 -5 -13z"/>
<path d="M7482 6310 c0 -14 2 -19 5 -12 2 6 2 18 0 25 -3 6 -5 1 -5 -13z"/>
<path d="M7472 6240 c0 -14 2 -19 5 -12 2 6 2 18 0 25 -3 6 -5 1 -5 -13z"/>
<path d="M7462 6165 c0 -16 2 -22 5 -12 2 9 2 23 0 30 -3 6 -5 -1 -5 -18z"/>
<path d="M7452 6095 c0 -16 2 -22 5 -12 2 9 2 23 0 30 -3 6 -5 -1 -5 -18z"/>
<path d="M7442 6025 c0 -16 2 -22 5 -12 2 9 2 23 0 30 -3 6 -5 -1 -5 -18z"/>
<path d="M7432 5960 c0 -14 2 -19 5 -12 2 6 2 18 0 25 -3 6 -5 1 -5 -13z"/>
<path d="M7422 5880 c0 -14 2 -19 5 -12 2 6 2 18 0 25 -3 6 -5 1 -5 -13z"/>
<path d="M7412 5810 c0 -14 2 -19 5 -12 2 6 2 18 0 25 -3 6 -5 1 -5 -13z"/>
<path d="M7402 5740 c0 -14 2 -19 5 -12 2 6 2 18 0 25 -3 6 -5 1 -5 -13z"/>
<path d="M7392 5670 c0 -14 2 -19 5 -12 2 6 2 18 0 25 -3 6 -5 1 -5 -13z"/>
<path d="M7382 5595 c0 -16 2 -22 5 -12 2 9 2 23 0 30 -3 6 -5 -1 -5 -18z"/>
<path d="M7371 5522 c0 -15 3 -21 6 -14 2 6 11 12 19 12 21 0 17 17 -6 23 -16
4 -20 0 -19 -21z"/>
<path d="M7362 5455 c0 -16 2 -22 5 -12 2 9 2 23 0 30 -3 6 -5 -1 -5 -18z"/>
<path d="M7352 5385 c0 -16 2 -22 5 -12 2 9 2 23 0 30 -3 6 -5 -1 -5 -18z"/>
<path d="M7342 5310 c0 -14 2 -19 5 -12 2 6 2 18 0 25 -3 6 -5 1 -5 -13z"/>
<path d="M7332 5240 c0 -14 2 -19 5 -12 2 6 2 18 0 25 -3 6 -5 1 -5 -13z"/>
<path d="M7322 5170 c0 -14 2 -19 5 -12 2 6 2 18 0 25 -3 6 -5 1 -5 -13z"/>
<path d="M7312 5100 c0 -14 2 -19 5 -12 2 6 2 18 0 25 -3 6 -5 1 -5 -13z"/>
<path d="M7302 5025 c0 -16 2 -22 5 -12 2 9 2 23 0 30 -3 6 -5 -1 -5 -18z"/>
<path d="M7292 4955 c0 -16 2 -22 5 -12 2 9 2 23 0 30 -3 6 -5 -1 -5 -18z"/>
<path d="M7282 4885 c0 -16 2 -22 5 -12 2 9 2 23 0 30 -3 6 -5 -1 -5 -18z"/>
<path d="M7272 4815 c0 -16 2 -22 5 -12 2 9 2 23 0 30 -3 6 -5 -1 -5 -18z"/>
<path d="M7262 4740 c0 -14 2 -19 5 -12 2 6 2 18 0 25 -3 6 -5 1 -5 -13z"/>
<path d="M7251 4663 c-1 -25 3 -33 17 -33 11 0 13 3 6 8 -7 4 -14 18 -17 32
-4 21 -4 20 -6 -7z"/>
<path d="M7242 4600 c0 -14 2 -19 5 -12 2 6 2 18 0 25 -3 6 -5 1 -5 -13z"/>
<path d="M7232 4530 c0 -14 2 -19 5 -12 2 6 2 18 0 25 -3 6 -5 1 -5 -13z"/>
<path d="M7222 4455 c0 -16 2 -22 5 -12 2 9 2 23 0 30 -3 6 -5 -1 -5 -18z"/>
<path d="M7212 4385 c0 -16 2 -22 5 -12 2 9 2 23 0 30 -3 6 -5 -1 -5 -18z"/>
<path d="M7202 4315 c0 -16 2 -22 5 -12 2 9 2 23 0 30 -3 6 -5 -1 -5 -18z"/>
<path d="M7192 4250 c0 -14 2 -19 5 -12 2 6 2 18 0 25 -3 6 -5 1 -5 -13z"/>
<path d="M7182 4180 c0 -14 2 -19 5 -12 2 6 2 18 0 25 -3 6 -5 1 -5 -13z"/>
<path d="M7172 4100 c0 -14 2 -19 5 -12 2 6 2 18 0 25 -3 6 -5 1 -5 -13z"/>
<path d="M7162 4030 c0 -14 2 -19 5 -12 2 6 2 18 0 25 -3 6 -5 1 -5 -13z"/>
<path d="M7152 3960 c0 -14 2 -19 5 -12 2 6 2 18 0 25 -3 6 -5 1 -5 -13z"/>
<path d="M7142 3890 c0 -14 2 -19 5 -12 2 6 2 18 0 25 -3 6 -5 1 -5 -13z"/>
<path d="M7132 3815 c0 -16 2 -22 5 -12 2 9 2 23 0 30 -3 6 -5 -1 -5 -18z"/>
<path d="M7122 3745 c0 -16 2 -22 5 -12 2 9 2 23 0 30 -3 6 -5 -1 -5 -18z"/>
<path d="M7112 3675 c0 -16 2 -22 5 -12 2 9 2 23 0 30 -3 6 -5 -1 -5 -18z"/>
<path d="M7101 3604 c0 -11 3 -14 6 -6 3 7 2 16 -1 19 -3 4 -6 -2 -5 -13z"/>
<path d="M7092 3530 c0 -14 2 -19 5 -12 2 6 2 18 0 25 -3 6 -5 1 -5 -13z"/>
<path d="M7082 3460 c0 -14 2 -19 5 -12 2 6 2 18 0 25 -3 6 -5 1 -5 -13z"/>
<path d="M7072 3390 c0 -14 2 -19 5 -12 2 6 2 18 0 25 -3 6 -5 1 -5 -13z"/>
<path d="M7062 3320 c0 -14 2 -19 5 -12 2 6 2 18 0 25 -3 6 -5 1 -5 -13z"/>
<path d="M7052 3245 c0 -16 2 -22 5 -12 2 9 2 23 0 30 -3 6 -5 -1 -5 -18z"/>
<path d="M7042 3175 c0 -16 2 -22 5 -12 2 9 2 23 0 30 -3 6 -5 -1 -5 -18z"/>
<path d="M7032 3105 c0 -16 2 -22 5 -12 2 9 2 23 0 30 -3 6 -5 -1 -5 -18z"/>
<path d="M7022 3040 c0 -14 2 -19 5 -12 2 6 2 18 0 25 -3 6 -5 1 -5 -13z"/>
<path d="M7012 2965 c0 -16 2 -22 5 -12 2 9 2 23 0 30 -3 6 -5 -1 -5 -18z"/>
<path d="M7002 2890 c0 -14 2 -19 5 -12 2 6 2 18 0 25 -3 6 -5 1 -5 -13z"/>
<path d="M6992 2820 c0 -14 2 -19 5 -12 2 6 2 18 0 25 -3 6 -5 1 -5 -13z"/>
<path d="M6982 2750 c0 -14 2 -19 5 -12 2 6 2 18 0 25 -3 6 -5 1 -5 -13z"/>
<path d="M6972 2675 c0 -16 2 -22 5 -12 2 9 2 23 0 30 -3 6 -5 -1 -5 -18z"/>
<path d="M6962 2605 c0 -16 2 -22 5 -12 2 9 2 23 0 30 -3 6 -5 -1 -5 -18z"/>
<path d="M6952 2535 c0 -16 2 -22 5 -12 2 9 2 23 0 30 -3 6 -5 -1 -5 -18z"/>
<path d="M6942 2470 c0 -14 2 -19 5 -12 2 6 2 18 0 25 -3 6 -5 1 -5 -13z"/>
<path d="M6932 2390 c0 -14 2 -19 5 -12 2 6 2 18 0 25 -3 6 -5 1 -5 -13z"/>
<path d="M6922 2320 c0 -14 2 -19 5 -12 2 6 2 18 0 25 -3 6 -5 1 -5 -13z"/>
<path d="M6912 2250 c0 -14 2 -19 5 -12 2 6 2 18 0 25 -3 6 -5 1 -5 -13z"/>
<path d="M6902 2180 c0 -14 2 -19 5 -12 2 6 2 18 0 25 -3 6 -5 1 -5 -13z"/>
<path d="M6892 2105 c0 -16 2 -22 5 -12 2 9 2 23 0 30 -3 6 -5 -1 -5 -18z"/>
<path d="M6882 2035 c0 -16 2 -22 5 -12 2 9 2 23 0 30 -3 6 -5 -1 -5 -18z"/>
<path d="M6872 1965 c0 -16 2 -22 5 -12 2 9 2 23 0 30 -3 6 -5 -1 -5 -18z"/>
<path d="M6862 1900 c0 -14 2 -19 5 -12 2 6 2 18 0 25 -3 6 -5 1 -5 -13z"/>
<path d="M6852 1820 c0 -14 2 -19 5 -12 2 6 2 18 0 25 -3 6 -5 1 -5 -13z"/>
<path d="M6842 1750 c0 -14 2 -19 5 -12 2 6 2 18 0 25 -3 6 -5 1 -5 -13z"/>
<path d="M6832 1680 c0 -14 2 -19 5 -12 2 6 2 18 0 25 -3 6 -5 1 -5 -13z"/>
<path d="M6822 1610 c0 -14 2 -19 5 -12 2 6 2 18 0 25 -3 6 -5 1 -5 -13z"/>
<path d="M6812 1540 c0 -14 2 -19 5 -12 2 6 2 18 0 25 -3 6 -5 1 -5 -13z"/>
<path d="M6802 1465 c0 -16 2 -22 5 -12 2 9 2 23 0 30 -3 6 -5 -1 -5 -18z"/>
<path d="M52 1450 c0 -19 2 -27 5 -17 2 9 2 25 0 35 -3 9 -5 1 -5 -18z"/>
<path d="M6792 1395 c0 -16 2 -22 5 -12 2 9 2 23 0 30 -3 6 -5 -1 -5 -18z"/>
<path d="M62 1360 c0 -14 2 -19 5 -12 2 6 2 18 0 25 -3 6 -5 1 -5 -13z"/>
<path d="M6782 1325 c0 -16 2 -22 5 -12 2 9 2 23 0 30 -3 6 -5 -1 -5 -18z"/>
<path d="M6771 1254 c0 -11 3 -14 6 -6 3 7 2 16 -1 19 -3 4 -6 -2 -5 -13z"/>
<path d="M110 1201 c0 -6 4 -13 10 -16 6 -3 7 1 4 9 -7 18 -14 21 -14 7z"/>
<path d="M6762 1180 c0 -14 2 -19 5 -12 2 6 2 18 0 25 -3 6 -5 1 -5 -13z"/>
<path d="M140 1146 c0 -2 8 -10 18 -17 15 -13 16 -12 3 4 -13 16 -21 21 -21
13z"/>
<path d="M6752 1110 c0 -14 2 -19 5 -12 2 6 2 18 0 25 -3 6 -5 1 -5 -13z"/>
<path d="M170 1106 c0 -2 8 -10 18 -17 15 -13 16 -12 3 4 -13 16 -21 21 -21
13z"/>
<path d="M6742 1040 c0 -14 2 -19 5 -12 2 6 2 18 0 25 -3 6 -5 1 -5 -13z"/>
<path d="M250 1026 c0 -2 8 -10 18 -17 15 -13 16 -12 3 4 -13 16 -21 21 -21
13z"/>
<path d="M6732 970 c0 -14 2 -19 5 -12 2 6 2 18 0 25 -3 6 -5 1 -5 -13z"/>
<path d="M330 966 c0 -3 9 -10 20 -16 11 -6 20 -8 20 -6 0 3 -9 10 -20 16 -11
6 -20 8 -20 6z"/>
<path d="M6722 895 c0 -16 2 -22 5 -12 2 9 2 23 0 30 -3 6 -5 -1 -5 -18z"/>
<path d="M508 893 c7 -3 16 -2 19 1 4 3 -2 6 -13 5 -11 0 -14 -3 -6 -6z"/>
<path d="M563 883 c9 -2 25 -2 35 0 9 3 1 5 -18 5 -19 0 -27 -2 -17 -5z"/>
<path d="M6711 834 c0 -11 3 -14 6 -6 3 7 2 16 -1 19 -3 4 -6 -2 -5 -13z"/>
<path d="M2910 791 c0 -6 4 -13 10 -16 6 -3 7 1 4 9 -7 18 -14 21 -14 7z"/>
<path d="M6701 764 c0 -11 3 -14 6 -6 3 7 2 16 -1 19 -3 4 -6 -2 -5 -13z"/>
<path d="M6692 700 c0 -14 2 -19 5 -12 2 6 2 18 0 25 -3 6 -5 1 -5 -13z"/>
<path d="M2960 706 c0 -2 8 -10 18 -17 15 -13 16 -12 3 4 -13 16 -21 21 -21
13z"/>
<path d="M3020 635 c13 -14 26 -25 28 -25 3 0 -5 11 -18 25 -13 14 -26 25 -28
25 -3 0 5 -11 18 -25z"/>
<path d="M6681 644 c0 -11 3 -14 6 -6 3 7 2 16 -1 19 -3 4 -6 -2 -5 -13z"/>
<path d="M6671 594 c0 -11 3 -14 6 -6 3 7 2 16 -1 19 -3 4 -6 -2 -5 -13z"/>
<path d="M3070 596 c0 -2 8 -10 18 -17 15 -13 16 -12 3 4 -13 16 -21 21 -21
13z"/>
<path d="M6651 514 c0 -11 3 -14 6 -6 3 7 2 16 -1 19 -3 4 -6 -2 -5 -13z"/>
<path d="M3298 483 c7 -3 16 -2 19 1 4 3 -2 6 -13 5 -11 0 -14 -3 -6 -6z"/>
<path d="M3338 473 c7 -3 16 -2 19 1 4 3 -2 6 -13 5 -11 0 -14 -3 -6 -6z"/>
<path d="M3388 463 c7 -3 16 -2 19 1 4 3 -2 6 -13 5 -11 0 -14 -3 -6 -6z"/>
<path d="M3448 453 c7 -3 16 -2 19 1 4 3 -2 6 -13 5 -11 0 -14 -3 -6 -6z"/>
<path d="M3508 443 c7 -3 16 -2 19 1 4 3 -2 6 -13 5 -11 0 -14 -3 -6 -6z"/>
<path d="M3568 433 c6 -2 18 -2 25 0 6 3 1 5 -13 5 -14 0 -19 -2 -12 -5z"/>
<path d="M3633 423 c9 -2 23 -2 30 0 6 3 -1 5 -18 5 -16 0 -22 -2 -12 -5z"/>
<path d="M3703 413 c9 -2 23 -2 30 0 6 3 -1 5 -18 5 -16 0 -22 -2 -12 -5z"/>
<path d="M3773 403 c9 -2 23 -2 30 0 6 3 -1 5 -18 5 -16 0 -22 -2 -12 -5z"/>
<path d="M3848 393 c6 -2 18 -2 25 0 6 3 1 5 -13 5 -14 0 -19 -2 -12 -5z"/>
<path d="M3918 383 c6 -2 18 -2 25 0 6 3 1 5 -13 5 -14 0 -19 -2 -12 -5z"/>
<path d="M6585 364 c-9 -15 -12 -23 -6 -20 11 7 35 46 28 46 -3 0 -12 -12 -22
-26z"/>
<path d="M3993 373 c9 -2 23 -2 30 0 6 3 -1 5 -18 5 -16 0 -22 -2 -12 -5z"/>
<path d="M4063 363 c9 -2 23 -2 30 0 6 3 -1 5 -18 5 -16 0 -22 -2 -12 -5z"/>
<path d="M4138 353 c6 -2 18 -2 25 0 6 3 1 5 -13 5 -14 0 -19 -2 -12 -5z"/>
<path d="M4203 343 c9 -2 23 -2 30 0 6 3 -1 5 -18 5 -16 0 -22 -2 -12 -5z"/>
<path d="M4273 333 c9 -2 23 -2 30 0 6 3 -1 5 -18 5 -16 0 -22 -2 -12 -5z"/>
<path d="M4343 323 c9 -2 23 -2 30 0 6 3 -1 5 -18 5 -16 0 -22 -2 -12 -5z"/>
<path d="M6544 308 l-19 -23 23 19 c12 11 22 21 22 23 0 8 -8 2 -26 -19z"/>
<path d="M4418 313 c6 -2 18 -2 25 0 6 3 1 5 -13 5 -14 0 -19 -2 -12 -5z"/>
<path d="M4488 303 c6 -2 18 -2 25 0 6 3 1 5 -13 5 -14 0 -19 -2 -12 -5z"/>
<path d="M4558 293 c6 -2 18 -2 25 0 6 3 1 5 -13 5 -14 0 -19 -2 -12 -5z"/>
<path d="M4633 283 c9 -2 23 -2 30 0 6 3 -1 5 -18 5 -16 0 -22 -2 -12 -5z"/>
<path d="M4708 273 c6 -2 18 -2 25 0 6 3 1 5 -13 5 -14 0 -19 -2 -12 -5z"/>
<path d="M4773 263 c9 -2 23 -2 30 0 6 3 -1 5 -18 5 -16 0 -22 -2 -12 -5z"/>
<path d="M4843 253 c9 -2 23 -2 30 0 6 3 -1 5 -18 5 -16 0 -22 -2 -12 -5z"/>
<path d="M4913 243 c9 -2 23 -2 30 0 6 3 -1 5 -18 5 -16 0 -22 -2 -12 -5z"/>
<path d="M6464 228 l-19 -23 23 19 c12 11 22 21 22 23 0 8 -8 2 -26 -19z"/>
<path d="M4988 233 c6 -2 18 -2 25 0 6 3 1 5 -13 5 -14 0 -19 -2 -12 -5z"/>
<path d="M5058 223 c6 -2 18 -2 25 0 6 3 1 5 -13 5 -14 0 -19 -2 -12 -5z"/>
<path d="M5128 213 c6 -2 18 -2 25 0 6 3 1 5 -13 5 -14 0 -19 -2 -12 -5z"/>
<path d="M5198 203 c6 -2 18 -2 25 0 6 3 1 5 -13 5 -14 0 -19 -2 -12 -5z"/>
<path d="M5278 193 c6 -2 18 -2 25 0 6 3 1 5 -13 5 -14 0 -19 -2 -12 -5z"/>
<path d="M5343 183 c9 -2 23 -2 30 0 6 3 -1 5 -18 5 -16 0 -22 -2 -12 -5z"/>
<path d="M5413 173 c9 -2 23 -2 30 0 6 3 -1 5 -18 5 -16 0 -22 -2 -12 -5z"/>
<path d="M5483 163 c9 -2 23 -2 30 0 6 3 -1 5 -18 5 -16 0 -22 -2 -12 -5z"/>
<path d="M5558 153 c6 -2 18 -2 25 0 6 3 1 5 -13 5 -14 0 -19 -2 -12 -5z"/>
<path d="M5628 143 c6 -2 18 -2 25 0 6 3 1 5 -13 5 -14 0 -19 -2 -12 -5z"/>
<path d="M5698 133 c6 -2 18 -2 25 0 6 3 1 5 -13 5 -14 0 -19 -2 -12 -5z"/>
<path d="M5773 123 c9 -2 23 -2 30 0 6 3 -1 5 -18 5 -16 0 -22 -2 -12 -5z"/>
<path d="M5853 113 c9 -2 23 -2 30 0 6 3 -1 5 -18 5 -16 0 -22 -2 -12 -5z"/>
<path d="M5938 103 c12 -2 30 -2 40 0 9 3 -1 5 -23 4 -22 0 -30 -2 -17 -4z"/>
<path d="M6208 103 c7 -3 16 -2 19 1 4 3 -2 6 -13 5 -11 0 -14 -3 -6 -6z"/>
<path d="M6068 93 c12 -2 32 -2 45 0 12 2 2 4 -23 4 -25 0 -35 -2 -22 -4z"/>
</g>
</svg>
