<svg width="762" height="486" viewBox="0 0 762 486" fill="none" xmlns="http://www.w3.org/2000/svg">
<mask id="path-1-inside-1_5300_1756" fill="white">
<path fill-rule="evenodd" clip-rule="evenodd" d="M474.657 130.317C423.114 100.561 339.546 100.561 288.003 130.317L133.998 219.225H55.3437L55.3437 290.879C52.6844 312.173 65.4556 333.989 93.6575 350.27L288.003 462.466C339.546 492.222 423.114 492.222 474.657 462.466L669.003 350.27C694.825 335.362 707.711 315.814 707.66 296.275H707.849V219.225L628.662 219.225L474.657 130.317Z"/>
</mask>
<path fill-rule="evenodd" clip-rule="evenodd" d="M474.657 130.317C423.114 100.561 339.546 100.561 288.003 130.317L133.998 219.225H55.3437L55.3437 290.879C52.6844 312.173 65.4556 333.989 93.6575 350.27L288.003 462.466C339.546 492.222 423.114 492.222 474.657 462.466L669.003 350.27C694.825 335.362 707.711 315.814 707.66 296.275H707.849V219.225L628.662 219.225L474.657 130.317Z" fill="#06152B"/>
<path d="M288.003 130.317L288.783 131.669L288.003 130.317ZM474.657 130.317L473.877 131.669L474.657 130.317ZM133.998 219.225V220.786H134.416L134.778 220.577L133.998 219.225ZM55.3437 219.225V217.663H53.7823V219.225H55.3437ZM55.3437 290.879L56.8932 291.072L56.9052 290.976V290.879H55.3437ZM93.6575 350.27L92.8768 351.622L93.6575 350.27ZM288.003 462.466L287.222 463.818L288.003 462.466ZM474.657 462.466L473.877 461.113L474.657 462.466ZM669.003 350.27L668.222 348.917L669.003 350.27ZM707.66 296.275V294.714H706.094L706.098 296.279L707.66 296.275ZM707.849 296.275V297.837H709.411V296.275H707.849ZM707.849 219.225H709.411V217.663H707.849V219.225ZM628.662 219.225L627.882 220.577L628.244 220.786H628.662V219.225ZM288.783 131.669C314.262 116.961 347.754 109.561 381.33 109.561C414.906 109.561 448.398 116.961 473.877 131.669L475.438 128.965C449.373 113.917 415.309 106.439 381.33 106.439C347.351 106.439 313.287 113.917 287.222 128.965L288.783 131.669ZM134.778 220.577L288.783 131.669L287.222 128.965L133.217 217.872L134.778 220.577ZM55.3437 220.786H133.998V217.663H55.3437V220.786ZM56.9052 290.879L56.9052 219.225H53.7823L53.7823 290.879H56.9052ZM94.4382 348.917C66.5476 332.816 54.3402 311.514 56.8932 291.072L53.7943 290.685C51.0285 312.831 64.3636 335.161 92.8768 351.622L94.4382 348.917ZM288.783 461.113L94.4382 348.917L92.8768 351.622L287.222 463.818L288.783 461.113ZM473.877 461.113C448.398 475.822 414.906 483.221 381.33 483.221C347.754 483.221 314.262 475.822 288.783 461.113L287.222 463.818C313.287 478.865 347.351 486.344 381.33 486.344C415.309 486.344 449.373 478.865 475.438 463.818L473.877 461.113ZM668.222 348.917L473.877 461.113L475.438 463.818L669.783 351.622L668.222 348.917ZM706.098 296.279C706.148 315.061 693.76 334.174 668.222 348.917L669.783 351.622C695.891 336.55 709.275 316.567 709.221 296.271L706.098 296.279ZM707.849 294.714H707.66V297.837H707.849V294.714ZM706.288 219.225V296.275H709.411V219.225H706.288ZM628.662 220.786L707.849 220.786V217.663L628.662 217.663V220.786ZM473.877 131.669L627.882 220.577L629.443 217.872L475.438 128.965L473.877 131.669Z" fill="url(#paint0_linear_5300_1756)" mask="url(#path-1-inside-1_5300_1756)"/>
<rect y="0.78069" width="438.37" height="438.37" rx="106.982" transform="matrix(0.866043 0.499969 -0.866043 0.499969 381.676 0.390369)" fill="#06152B"/>
<rect y="0.78069" width="438.37" height="438.37" rx="106.982" transform="matrix(0.866043 0.499969 -0.866043 0.499969 381.676 0.390369)" stroke="url(#paint1_linear_5300_1756)" stroke-width="1.56148"/>
<g opacity="0.25">
<mask id="path-5-inside-2_5300_1756" fill="white">
<path d="M479.959 220.789C479.011 252.315 433.989 277.49 379.282 276.95C324.663 276.38 281.106 250.382 282.054 218.855C283.003 187.329 327.993 162.158 382.574 162.714C437.276 163.159 480.869 189.248 479.959 220.789Z"/>
</mask>
<path d="M479.959 220.789L481.871 220.808L481.872 220.807L479.959 220.789ZM379.282 276.95L379.248 278.054L379.249 278.054L379.282 276.95ZM382.574 162.714L382.54 163.818L382.547 163.818L382.574 162.714ZM478.047 220.769C477.117 251.687 432.964 276.376 379.315 275.847L379.249 278.054C435.014 278.604 480.905 252.943 481.871 220.808L478.047 220.769ZM379.317 275.847C325.75 275.287 283.036 249.79 283.967 218.874L280.142 218.836C279.175 250.974 323.575 277.473 379.248 278.054L379.317 275.847ZM283.967 218.874C284.897 187.955 329.02 163.273 382.54 163.818L382.608 161.611C326.966 161.043 281.109 186.702 280.142 218.836L283.967 218.874ZM382.547 163.818C436.186 164.254 478.939 189.837 478.047 220.77L481.872 220.807C482.799 188.658 438.366 162.063 382.601 161.61L382.547 163.818Z" fill="url(#paint2_linear_5300_1756)" mask="url(#path-5-inside-2_5300_1756)"/>
</g>
<rect y="0.78069" width="438.37" height="438.37" rx="106.982" transform="matrix(0.866043 0.499969 -0.866043 0.499969 381.676 0.390369)" stroke="white" stroke-width="1.56148"/>
<mask id="path-7-inside-3_5300_1756" fill="white">
<path fill-rule="evenodd" clip-rule="evenodd" d="M474.329 130.928C422.786 101.172 339.218 101.172 287.675 130.928L133.67 219.836H55.0156L55.0156 291.49C52.3562 312.784 65.1275 334.6 93.3293 350.881L287.674 463.077C339.218 492.833 422.786 492.833 474.329 463.077L668.674 350.881C694.497 335.973 707.383 316.425 707.332 296.887H707.521V219.836L628.334 219.836L474.329 130.928Z"/>
</mask>
<path d="M287.675 130.928L288.455 132.281L287.675 130.928ZM474.329 130.928L473.549 132.281L474.329 130.928ZM133.67 219.836V221.397H134.088L134.45 221.188L133.67 219.836ZM55.0156 219.836V218.274H53.4541V219.836H55.0156ZM55.0156 291.49L56.5651 291.684L56.5771 291.587V291.49H55.0156ZM93.3293 350.881L92.5486 352.233L93.3293 350.881ZM287.674 463.077L286.894 464.429L287.674 463.077ZM474.329 463.077L473.549 461.725L474.329 463.077ZM668.674 350.881L667.894 349.529L668.674 350.881ZM707.332 296.887V295.325H705.766L705.77 296.891L707.332 296.887ZM707.521 296.887V298.448H709.082V296.887H707.521ZM707.521 219.836H709.082V218.274H707.521V219.836ZM628.334 219.836L627.553 221.188L627.916 221.397H628.334V219.836ZM288.455 132.281C313.934 117.572 347.426 110.173 381.002 110.173C414.578 110.173 448.07 117.572 473.549 132.281L475.11 129.576C449.045 114.529 414.981 107.05 381.002 107.05C347.023 107.05 312.959 114.529 286.894 129.576L288.455 132.281ZM134.45 221.188L288.455 132.281L286.894 129.576L132.889 218.484L134.45 221.188ZM55.0156 221.397H133.67V218.274H55.0156V221.397ZM56.5771 291.49V219.836H53.4541V291.49H56.5771ZM94.11 349.529C66.2195 333.427 54.0121 312.126 56.5651 291.684L53.4662 291.297C50.7004 313.442 64.0355 335.772 92.5486 352.233L94.11 349.529ZM288.455 461.725L94.11 349.529L92.5486 352.233L286.894 464.429L288.455 461.725ZM473.549 461.725C448.07 476.433 414.578 483.833 381.002 483.833C347.425 483.833 313.934 476.433 288.455 461.725L286.894 464.429C312.959 479.477 347.023 486.956 381.002 486.956C414.981 486.956 449.045 479.477 475.11 464.429L473.549 461.725ZM667.894 349.529L473.549 461.725L475.11 464.429L669.455 352.233L667.894 349.529ZM705.77 296.891C705.82 315.673 693.432 334.786 667.894 349.529L669.455 352.233C695.563 337.161 708.947 317.178 708.893 296.882L705.77 296.891ZM707.521 295.325H707.332V298.448H707.521V295.325ZM705.96 219.836V296.887H709.082V219.836H705.96ZM628.334 221.397L707.521 221.397V218.274L628.334 218.274V221.397ZM473.549 132.281L627.553 221.188L629.115 218.484L475.11 129.576L473.549 132.281Z" fill="url(#paint3_linear_5300_1756)" mask="url(#path-7-inside-3_5300_1756)"/>
<rect y="0.78069" width="438.37" height="438.37" rx="106.982" transform="matrix(0.866043 0.499969 -0.866043 0.499969 381.676 0.390369)" stroke="url(#paint4_linear_5300_1756)" stroke-width="1.56148"/>
<g opacity="0.25">
<mask id="path-11-inside-4_5300_1756" fill="white">
<path d="M479.959 220.789C479.011 252.315 433.989 277.49 379.282 276.95C324.663 276.38 281.106 250.382 282.054 218.855C283.003 187.329 327.993 162.158 382.574 162.714C437.276 163.159 480.869 189.248 479.959 220.789Z"/>
</mask>
<path d="M479.959 220.789L481.871 220.808L481.872 220.807L479.959 220.789ZM379.282 276.95L379.248 278.054L379.249 278.054L379.282 276.95ZM382.574 162.714L382.54 163.818L382.547 163.818L382.574 162.714ZM478.047 220.769C477.117 251.687 432.964 276.376 379.315 275.847L379.249 278.054C435.014 278.604 480.905 252.943 481.871 220.808L478.047 220.769ZM379.317 275.847C325.75 275.287 283.036 249.79 283.967 218.874L280.142 218.836C279.175 250.974 323.575 277.473 379.248 278.054L379.317 275.847ZM283.967 218.874C284.897 187.955 329.02 163.273 382.54 163.818L382.608 161.611C326.966 161.043 281.109 186.702 280.142 218.836L283.967 218.874ZM382.547 163.818C436.186 164.254 478.939 189.837 478.047 220.77L481.872 220.807C482.799 188.658 438.366 162.063 382.601 161.61L382.547 163.818Z" fill="url(#paint5_linear_5300_1756)" mask="url(#path-11-inside-4_5300_1756)"/>
</g>
<rect y="0.78069" width="438.37" height="438.37" rx="106.982" transform="matrix(0.866043 0.499969 -0.866043 0.499969 381.676 0.390369)" stroke="url(#paint6_linear_5300_1756)" stroke-width="1.56148"/>
<path d="M199.062 384.26V358.581L263.236 395.402V421.081L199.062 384.26Z" stroke="#2E5CFF" stroke-width="1.56148"/>
<path d="M122.015 340.078V314.399L186.189 351.22V376.899L122.015 340.078Z" stroke="#2E5CFF" stroke-width="1.56148"/>
<path d="M342.43 220.244C341.714 219.676 341.55 219.071 341.678 218.589C341.806 218.107 342.278 217.556 343.258 217.139L360.478 209.792C361.482 209.364 362.73 209.206 363.926 209.321C365.124 209.436 366.213 209.818 366.919 210.408L414.43 250.062C414.964 250.508 415.16 250.949 415.17 251.321C415.18 251.682 415.016 252.051 414.663 252.401C413.931 253.123 412.409 253.719 410.423 253.613L384.748 252.243C383.419 252.172 382.233 251.774 381.486 251.182L342.43 220.244Z" stroke="url(#paint7_linear_5300_1756)"/>
<path d="M377.426 187.114L377.427 187.114C378.758 187.176 379.952 187.566 380.711 188.153L420.385 218.828C421.113 219.391 421.288 219.995 421.17 220.477C421.051 220.96 420.591 221.513 419.619 221.938L402.548 229.398C401.552 229.833 400.308 229.999 399.109 229.893C397.909 229.786 396.812 229.411 396.094 228.826L347.791 189.492C347.25 189.051 347.042 188.606 347.023 188.227C347.005 187.857 347.163 187.477 347.509 187.117C348.224 186.376 349.729 185.756 351.712 185.848C351.713 185.848 351.713 185.848 351.713 185.848L377.426 187.114Z" stroke="url(#paint8_linear_5300_1756)"/>
<defs>
<linearGradient id="paint0_linear_5300_1756" x1="55" y1="437.685" x2="338.399" y2="-12.7453" gradientUnits="userSpaceOnUse">
<stop stop-color="#02AAB0"/>
<stop offset="1" stop-color="#00CDAC"/>
</linearGradient>
<linearGradient id="paint1_linear_5300_1756" x1="5.22391e-06" y1="384.94" x2="365.693" y2="49.4924" gradientUnits="userSpaceOnUse">
<stop stop-color="#02AAB0"/>
<stop offset="1" stop-color="#00CDAC"/>
</linearGradient>
<linearGradient id="paint2_linear_5300_1756" x1="301.25" y1="274.439" x2="354.813" y2="139.289" gradientUnits="userSpaceOnUse">
<stop stop-color="#02AAB0"/>
<stop offset="1" stop-color="#00CDAC"/>
</linearGradient>
<linearGradient id="paint3_linear_5300_1756" x1="54.6719" y1="438.296" x2="338.07" y2="-12.134" gradientUnits="userSpaceOnUse">
<stop stop-color="#02AAB0"/>
<stop offset="1" stop-color="#00CDAC"/>
</linearGradient>
<linearGradient id="paint4_linear_5300_1756" x1="5.22391e-06" y1="384.94" x2="365.693" y2="49.4924" gradientUnits="userSpaceOnUse">
<stop stop-color="#02AAB0"/>
<stop offset="1" stop-color="#00CDAC"/>
</linearGradient>
<linearGradient id="paint5_linear_5300_1756" x1="301.25" y1="274.439" x2="354.813" y2="139.289" gradientUnits="userSpaceOnUse">
<stop stop-color="#02AAB0"/>
<stop offset="1" stop-color="#00CDAC"/>
</linearGradient>
<linearGradient id="paint6_linear_5300_1756" x1="5.22391e-06" y1="384.94" x2="365.693" y2="49.4924" gradientUnits="userSpaceOnUse">
<stop stop-color="#02AAB0"/>
<stop offset="1" stop-color="#00CDAC"/>
</linearGradient>
<linearGradient id="paint7_linear_5300_1756" x1="334.783" y1="243.152" x2="374.14" y2="190.455" gradientUnits="userSpaceOnUse">
<stop stop-color="#02AAB0"/>
<stop offset="1" stop-color="#00CDAC"/>
</linearGradient>
<linearGradient id="paint8_linear_5300_1756" x1="427.571" y1="195.87" x2="389.066" y2="248.676" gradientUnits="userSpaceOnUse">
<stop stop-color="#02AAB0"/>
<stop offset="1" stop-color="#00CDAC"/>
</linearGradient>
</defs>
</svg>
