<svg width="44" height="59" viewBox="0 0 44 59" fill="none" xmlns="http://www.w3.org/2000/svg">
<path d="M2.20779 31.4837C1.32672 30.4731 1.42653 28.9409 2.43126 28.0531L10.4054 21.0075C11.4372 20.0958 13.0187 20.2184 13.8977 21.2782L40.3942 53.2268C41.7161 54.8207 40.5756 57.2329 38.5049 57.2228L25.6913 57.1603C24.9906 57.1569 24.3252 56.8523 23.8647 56.3241L2.20779 31.4837Z" fill="#428AEC"/>
<path d="M40.9927 26.1751C41.8854 27.1754 41.8034 28.7087 40.809 29.608L32.917 36.7455C31.8957 37.6691 30.3129 37.5648 29.4217 36.5152L2.55717 4.87563C1.21687 3.2971 2.31747 0.81433 4.3882 0.80045L17.2135 0.77212C17.9142 0.767423 18.5831 1.06431 19.0496 1.58709L40.9927 26.1751Z" fill="#01C1AE"/>
</svg>
