<svg width="66" height="73" viewBox="0 0 66 73" fill="none" xmlns="http://www.w3.org/2000/svg">
<path d="M13.0715 19.9907C13.2643 19.6578 13.745 19.6581 13.9373 19.9912L26.5476 41.8356C26.7401 42.1691 26.4993 42.5858 26.1143 42.5856L0.86661 42.5709C0.48158 42.5706 0.241277 42.1536 0.434181 41.8204L13.0715 19.9907Z" fill="#F3E445"/>
<path d="M57.6389 23.0831C57.7251 23.2369 57.724 23.4247 57.636 23.5774L48.7175 39.0493C48.5243 39.3846 48.0398 39.3827 47.8492 39.046L35.0828 16.4954C35.0782 16.4872 35.0783 16.4771 35.0832 16.469V16.469L38.4462 10.8857L35.0779 16.469V16.469C35.0664 16.487 35.0466 16.4978 35.0253 16.4978H12.271C12.0958 16.4978 11.9334 16.4062 11.8428 16.2562L2.65677 1.03175C2.4557 0.698506 2.69567 0.273438 3.08487 0.273438H44.7858C44.808 0.273438 44.8219 0.297503 44.8108 0.316769L44.7898 0.353244C44.7881 0.356293 44.7903 0.360101 44.7938 0.360101V0.360101C44.7954 0.360101 44.7969 0.359251 44.7977 0.357865L44.8087 0.339318C44.8255 0.3112 44.8663 0.311715 44.8823 0.340246L57.6389 23.0831Z" fill="#2E5CFF"/>
<path d="M44.8461 0.273438C44.8474 0.273438 44.8481 0.274999 44.8471 0.275911V0.275911C44.8471 0.275997 44.847 0.276092 44.8469 0.276196L44.7988 0.357076C44.798 0.358449 44.7965 0.359291 44.7949 0.359291V0.359291C44.7915 0.359291 44.7893 0.355519 44.791 0.352498L44.8353 0.275616C44.8361 0.274268 44.8376 0.273438 44.8391 0.273438H44.8461Z" fill="#765AD9"/>
<path d="M44.845 0.281846C44.8462 0.28302 44.8464 0.284845 44.8456 0.286273L44.7988 0.364881C44.798 0.366254 44.7965 0.367096 44.7949 0.367096V0.367096C44.7915 0.367096 44.7893 0.363324 44.791 0.360304L44.8366 0.281242L44.8377 0.27957C44.8394 0.277073 44.8432 0.277584 44.8441 0.280432V0.280432C44.8443 0.280965 44.8446 0.281449 44.845 0.281846V0.281846Z" fill="#765AD9"/>
<path d="M65.5666 71.4885C65.7592 71.8219 65.5187 72.2388 65.1337 72.2388H44.336C44.1572 72.2388 43.9919 72.1432 43.9027 71.9882L27.4132 43.3397C27.2219 43.0074 27.4606 42.5923 27.844 42.5903L48.5108 42.4858C48.6902 42.4849 48.8564 42.5803 48.9462 42.7356L65.5666 71.4885Z" fill="#31C5A0"/>
<path d="M38.4465 10.9062L35.084 16.4884C35.0836 16.4891 35.0829 16.4895 35.0821 16.4895V16.4895C35.0804 16.4895 35.0793 16.4876 35.0802 16.4861L38.4465 10.9062Z" fill="#2E5CFF"/>
</svg>
