<svg width="21" height="21" viewBox="0 0 21 21" fill="none" xmlns="http://www.w3.org/2000/svg">
<path d="M1.24762 18.1649C1.24762 18.1649 5.10476 17.2822 5.87619 14.6339C5.87619 14.6339 -0.295238 11.9857 1.24762 2.27534C1.24762 2.27534 4.33333 6.68912 8.9619 7.57187V5.80668C8.96199 4.79257 9.26719 3.80941 9.8262 3.0225C10.3852 2.23559 11.1639 1.69292 12.0315 1.48571C12.899 1.27851 13.8024 1.41941 14.5898 1.88473C15.3772 2.35005 16.0006 3.11141 16.3552 4.04081L19.7619 4.04085L16.6762 7.57187C16.6762 13.7512 12.819 19.9305 5.87619 19.9305C2.79048 19.9305 1.24762 18.1649 1.24762 18.1649Z" stroke="white" stroke-width="2" stroke-linecap="round" stroke-linejoin="round"/>
</svg>
